STARTFONT 2.3
FONT -FontForge-Roboto Condensed-Book-R-Condensed---16-160-72-72-P-79-ISO10646-1
SIZE 16 72 72  2
FONTBOUNDINGBOX 28 22 -12 -4
COMMENT "Generated by fontforge, http://fontforge.sourceforge.net"
COMMENT "Copyright 2011 Google Inc. All Rights Reserved."
STARTPROPERTIES 42
FOUNDRY "FontForge"
FAMILY_NAME "Roboto Condensed"
WEIGHT_NAME "Book"
SLANT "R"
SETWIDTH_NAME "Condensed"
ADD_STYLE_NAME ""
PIXEL_SIZE 16
POINT_SIZE 160
RESOLUTION_X 72
RESOLUTION_Y 72
SPACING "P"
AVERAGE_WIDTH 79
CHARSET_REGISTRY "ISO10646"
CHARSET_ENCODING "1"
FONTNAME_REGISTRY ""
CHARSET_COLLECTIONS "ISO8859-2 ISO8859-5 ISO8859-7 ISO8859-9 ISO8859-4 ISO10646-1"
BITS_PER_PIXEL 2
FONT_NAME "RobotoCondensed-Regular"
FACE_NAME "Roboto Condensed"
COPYRIGHT "Copyright 2011 Google Inc. All Rights Reserved."
FONT_VERSION "2.137; 2017"
FONT_ASCENT 12
FONT_DESCENT 4
UNDERLINE_POSITION -2
UNDERLINE_THICKNESS 1
X_HEIGHT 8
CAP_HEIGHT 11
DEFAULT_CHAR 1
RAW_ASCENT 750
RAW_DESCENT 250
NORM_SPACE 4
RELATIVE_WEIGHT 40
RELATIVE_SETWIDTH 50
SUPERSCRIPT_X 0
SUPERSCRIPT_Y 7
SUPERSCRIPT_SIZE 10
SUBSCRIPT_X 0
SUBSCRIPT_Y 2
SUBSCRIPT_SIZE 10
FIGURE_WIDTH 8
AVG_LOWERCASE_WIDTH 78
AVG_UPPERCASE_WIDTH 92
ENDPROPERTIES
CHARS 1296
STARTCHAR uni0000
ENCODING 0
SWIDTH 0 0
DWIDTH 0 0
BBX 1 1 0 0
BITMAP
00
ENDCHAR
STARTCHAR uni0002
ENCODING 2
SWIDTH 0 0
DWIDTH 0 0
BBX 1 1 0 0
BITMAP
00
ENDCHAR
STARTCHAR uni000D
ENCODING 13
SWIDTH 229 0
DWIDTH 4 0
BBX 1 1 0 0
BITMAP
00
ENDCHAR
STARTCHAR space
ENCODING 32
SWIDTH 229 0
DWIDTH 4 0
BBX 1 1 0 0
BITMAP
00
ENDCHAR
STARTCHAR exclam
ENCODING 33
SWIDTH 245 0
DWIDTH 4 0
BBX 2 12 1 0
BITMAP
A0
A0
A0
A0
A0
A0
A0
A0
50
00
50
A0
ENDCHAR
STARTCHAR quotedbl
ENCODING 34
SWIDTH 319 0
DWIDTH 5 0
BBX 4 4 1 8
BITMAP
D9
C9
C8
C8
ENDCHAR
STARTCHAR numbersign
ENCODING 35
SWIDTH 547 0
DWIDTH 9 0
BBX 8 12 1 0
BITMAP
0728
0624
0A34
7FFD
0D70
0C60
1CA0
FFFC
28D0
24C0
24C0
3180
ENDCHAR
STARTCHAR dollar
ENCODING 36
SWIDTH 493 0
DWIDTH 8 0
BBX 6 16 1 -2
BITMAP
0500
0600
2F80
75D0
A0A0
A060
7400
2E00
07D0
00A0
4070
D070
B5E0
2F80
0A00
0500
ENDCHAR
STARTCHAR percent
ENCODING 37
SWIDTH 632 0
DWIDTH 10 0
BBX 9 12 1 0
BITMAP
780000
C61800
C62400
C66000
7D9000
018000
024000
072E00
096240
1C9240
146240
002E00
ENDCHAR
STARTCHAR ampersand
ENCODING 38
SWIDTH 543 0
DWIDTH 9 0
BBX 8 12 1 0
BITMAP
1F40
75C0
70D0
71D0
3B80
2E00
7B08
E39C
D1F8
D0B4
B5F8
2F9D
ENDCHAR
STARTCHAR quotesingle
ENCODING 39
SWIDTH 174 0
DWIDTH 3 0
BBX 2 4 0 8
BITMAP
70
70
70
70
ENDCHAR
STARTCHAR parenleft
ENCODING 40
SWIDTH 313 0
DWIDTH 5 0
BBX 4 17 1 -4
BITMAP
05
0D
28
30
70
A0
E0
D0
D0
D0
E0
A0
70
34
28
0D
05
ENDCHAR
STARTCHAR parenright
ENCODING 41
SWIDTH 318 0
DWIDTH 5 0
BBX 4 17 0 -4
BITMAP
50
70
28
1C
0D
0A
0B
07
07
07
0B
0A
0D
0C
28
30
50
ENDCHAR
STARTCHAR asterisk
ENCODING 42
SWIDTH 430 0
DWIDTH 7 0
BBX 7 6 0 6
BITMAP
0300
0300
BBB8
1B80
1EC0
24A0
ENDCHAR
STARTCHAR plus
ENCODING 43
SWIDTH 496 0
DWIDTH 8 0
BBX 8 9 0 1
BITMAP
0140
0280
0280
0280
7FFD
1794
0280
0280
0280
ENDCHAR
STARTCHAR comma
ENCODING 44
SWIDTH 196 0
DWIDTH 3 0
BBX 3 4 0 -2
BITMAP
24
34
70
60
ENDCHAR
STARTCHAR hyphen
ENCODING 45
SWIDTH 248 0
DWIDTH 4 0
BBX 4 2 0 3
BITMAP
BE
14
ENDCHAR
STARTCHAR period
ENCODING 46
SWIDTH 263 0
DWIDTH 4 0
BBX 2 2 1 0
BITMAP
50
A0
ENDCHAR
STARTCHAR slash
ENCODING 47
SWIDTH 370 0
DWIDTH 6 0
BBX 6 13 0 -1
BITMAP
00D0
01C0
0280
0340
0300
0600
0900
0C00
1800
2400
3400
7000
A000
ENDCHAR
STARTCHAR zero
ENCODING 48
SWIDTH 493 0
DWIDTH 8 0
BBX 6 12 1 0
BITMAP
2F80
75D0
A0A0
D070
D070
D070
D070
D070
D070
A0A0
75D0
2F80
ENDCHAR
STARTCHAR one
ENCODING 49
SWIDTH 493 0
DWIDTH 8 0
BBX 4 12 1 0
BITMAP
06
2F
AB
07
07
07
07
07
07
07
07
07
ENDCHAR
STARTCHAR two
ENCODING 50
SWIDTH 493 0
DWIDTH 8 0
BBX 7 12 1 0
BITMAP
2F80
B5D0
D0A0
80A0
00A0
01D0
0380
0B00
1D00
3800
B550
FFF4
ENDCHAR
STARTCHAR three
ENCODING 51
SWIDTH 493 0
DWIDTH 8 0
BBX 6 12 1 0
BITMAP
2F40
A5D0
D0A0
00A0
01D0
1F80
05D0
00A0
00A0
D0A0
A5D0
2F40
ENDCHAR
STARTCHAR four
ENCODING 52
SWIDTH 493 0
DWIDTH 8 0
BBX 8 12 0 0
BITMAP
00B0
00F0
02F0
0370
0A70
0D70
2870
3470
BFFD
1574
0070
0070
ENDCHAR
STARTCHAR five
ENCODING 53
SWIDTH 493 0
DWIDTH 8 0
BBX 7 12 1 0
BITMAP
3FF0
3550
7000
7000
7B80
75E0
0070
0074
0074
A070
75E0
1F80
ENDCHAR
STARTCHAR six
ENCODING 54
SWIDTH 493 0
DWIDTH 8 0
BBX 6 12 1 0
BITMAP
0780
2D40
7400
A000
AB80
F5E0
E0B0
D070
E070
A070
79D0
1F80
ENDCHAR
STARTCHAR seven
ENCODING 55
SWIDTH 493 0
DWIDTH 8 0
BBX 8 12 0 0
BITMAP
7FFD
156C
0028
0034
0070
00A0
01D0
02C0
0380
0700
0A00
0D00
ENDCHAR
STARTCHAR eight
ENCODING 56
SWIDTH 493 0
DWIDTH 8 0
BBX 6 12 1 0
BITMAP
2F80
75D0
A0A0
A0A0
B1D0
2F80
75D0
D0A0
D070
D0B0
B5D0
2F80
ENDCHAR
STARTCHAR nine
ENCODING 57
SWIDTH 493 0
DWIDTH 8 0
BBX 6 12 1 0
BITMAP
2F40
B6C0
D0E0
D0A0
D0A0
D0B0
A1E0
7FA0
04A0
01D0
1780
2D00
ENDCHAR
STARTCHAR colon
ENCODING 58
SWIDTH 233 0
DWIDTH 4 0
BBX 2 9 1 0
BITMAP
50
A0
00
00
00
00
00
50
A0
ENDCHAR
STARTCHAR semicolon
ENCODING 59
SWIDTH 202 0
DWIDTH 3 0
BBX 3 11 0 -2
BITMAP
24
34
00
00
00
00
00
24
34
34
60
ENDCHAR
STARTCHAR less
ENCODING 60
SWIDTH 445 0
DWIDTH 7 0
BBX 6 7 0 2
BITMAP
0060
02E0
2E40
7400
2E40
02E0
0060
ENDCHAR
STARTCHAR equal
ENCODING 61
SWIDTH 479 0
DWIDTH 8 0
BBX 6 5 1 2
BITMAP
FFE0
5550
0000
FFE0
5540
ENDCHAR
STARTCHAR greater
ENCODING 62
SWIDTH 459 0
DWIDTH 7 0
BBX 6 7 1 2
BITMAP
9000
B900
0B80
01E0
1B80
B900
9000
ENDCHAR
STARTCHAR question
ENCODING 63
SWIDTH 421 0
DWIDTH 7 0
BBX 6 12 0 0
BITMAP
1B80
39E0
7070
0070
00A0
01D0
0340
0700
0600
0000
0500
0600
ENDCHAR
STARTCHAR at
ENCODING 64
SWIDTH 769 0
DWIDTH 12 0
BBX 11 14 1 -3
BITMAP
02FE00
0E4680
240060
60B930
918924
D24914
C30914
C70D14
C70D24
D36D70
92E7D0
700000
1D0500
06F900
ENDCHAR
STARTCHAR A
ENCODING 65
SWIDTH 576 0
DWIDTH 9 0
BBX 9 12 0 0
BITMAP
00D000
01E000
02B000
037400
072800
0A1C00
0D1D00
1D0E00
2FFF00
395700
740340
B00280
ENDCHAR
STARTCHAR B
ENCODING 66
SWIDTH 545 0
DWIDTH 9 0
BBX 7 12 1 0
BITMAP
BFD0
A5B4
A038
A038
A074
BFE0
A574
A028
A028
A028
A5B4
BFD0
ENDCHAR
STARTCHAR C
ENCODING 67
SWIDTH 566 0
DWIDTH 9 0
BBX 8 12 1 0
BITMAP
1BE0
3978
B01C
E009
D000
D000
D000
D000
E009
B01C
3978
1BE0
ENDCHAR
STARTCHAR D
ENCODING 68
SWIDTH 570 0
DWIDTH 9 0
BBX 7 12 1 0
BITMAP
BF90
A5B4
A028
A01C
A01C
A01C
A01C
A01C
A01C
A038
A5B4
BF90
ENDCHAR
STARTCHAR E
ENCODING 69
SWIDTH 496 0
DWIDTH 8 0
BBX 7 12 1 0
BITMAP
BFF4
A550
A000
A000
A000
BFE0
A540
A000
A000
A000
A550
BFF4
ENDCHAR
STARTCHAR F
ENCODING 70
SWIDTH 480 0
DWIDTH 8 0
BBX 6 12 1 0
BITMAP
BFF0
A550
A000
A000
A000
BFE0
A540
A000
A000
A000
A000
A000
ENDCHAR
STARTCHAR G
ENCODING 71
SWIDTH 590 0
DWIDTH 9 0
BBX 8 12 1 0
BITMAP
1BE0
7978
A01C
E004
D000
D000
D0FD
D05D
E00D
B00D
396D
1BE4
ENDCHAR
STARTCHAR H
ENCODING 72
SWIDTH 620 0
DWIDTH 10 0
BBX 8 12 1 0
BITMAP
A00A
A00A
A00A
A00A
A00A
BFFE
A55A
A00A
A00A
A00A
A00A
A00A
ENDCHAR
STARTCHAR I
ENCODING 73
SWIDTH 250 0
DWIDTH 4 0
BBX 2 12 1 0
BITMAP
A0
A0
A0
A0
A0
A0
A0
A0
A0
A0
A0
A0
ENDCHAR
STARTCHAR J
ENCODING 74
SWIDTH 483 0
DWIDTH 8 0
BBX 7 12 0 0
BITMAP
0038
0038
0038
0038
0038
0038
0038
0038
1038
7034
39B0
1B90
ENDCHAR
STARTCHAR K
ENCODING 75
SWIDTH 544 0
DWIDTH 9 0
BBX 8 12 1 0
BITMAP
A02C
A074
A0E0
A2C0
A740
AF00
BB40
B2C0
A0E0
A074
A038
A01D
ENDCHAR
STARTCHAR L
ENCODING 76
SWIDTH 475 0
DWIDTH 8 0
BBX 6 12 1 0
BITMAP
A000
A000
A000
A000
A000
A000
A000
A000
A000
A000
A550
BFF0
ENDCHAR
STARTCHAR M
ENCODING 77
SWIDTH 755 0
DWIDTH 12 0
BBX 10 12 1 0
BITMAP
B400F0
B801F0
BC02F0
AC03B0
AD07B0
AA0AB0
A70DB0
A35CB0
A2A8B0
A1F4B0
A0F0B0
A0A0B0
ENDCHAR
STARTCHAR N
ENCODING 78
SWIDTH 619 0
DWIDTH 10 0
BBX 8 12 1 0
BITMAP
B00A
B40A
BC0A
AD0A
A70A
A34A
A1CA
A0DA
A0BA
A03E
A02E
A00E
ENDCHAR
STARTCHAR O
ENCODING 79
SWIDTH 600 0
DWIDTH 10 0
BBX 8 12 1 0
BITMAP
1BE0
3978
B01D
E00D
D00E
D00A
D00A
D00E
E00D
B01D
3978
1BE0
ENDCHAR
STARTCHAR P
ENCODING 80
SWIDTH 554 0
DWIDTH 9 0
BBX 8 12 1 0
BITMAP
BFE0
A578
A01C
A01D
A01C
A028
BFF4
A500
A000
A000
A000
A000
ENDCHAR
STARTCHAR Q
ENCODING 81
SWIDTH 600 0
DWIDTH 10 0
BBX 8 14 1 -2
BITMAP
1BE0
7978
B01C
D00D
D00E
D00E
D00E
D00E
E00D
A01D
7978
1BF4
002D
0004
ENDCHAR
STARTCHAR R
ENCODING 82
SWIDTH 530 0
DWIDTH 9 0
BBX 7 12 1 0
BITMAP
BF90
A5B4
A028
A028
A028
A074
BFE0
A5D0
A0A0
A074
A038
A02C
ENDCHAR
STARTCHAR S
ENCODING 83
SWIDTH 518 0
DWIDTH 8 0
BBX 8 12 0 0
BITMAP
0BE4
2D6C
380D
3405
2D00
0F90
01F8
001D
100E
740E
2D6D
0BE4
ENDCHAR
STARTCHAR T
ENCODING 84
SWIDTH 520 0
DWIDTH 8 0
BBX 8 12 0 0
BITMAP
BFFF
16D5
02C0
02C0
02C0
02C0
02C0
02C0
02C0
02C0
02C0
02C0
ENDCHAR
STARTCHAR U
ENCODING 85
SWIDTH 561 0
DWIDTH 9 0
BBX 7 12 1 0
BITMAP
D01C
D01C
D01C
D01C
D01C
D01C
D01C
D01C
D01C
A02C
7574
1FD0
ENDCHAR
STARTCHAR V
ENCODING 86
SWIDTH 560 0
DWIDTH 9 0
BBX 9 12 0 0
BITMAP
B00380
740740
380B00
280E00
1C0D00
0D1C00
0A2800
073400
077000
03F000
02E000
01D000
ENDCHAR
STARTCHAR W
ENCODING 87
SWIDTH 761 0
DWIDTH 12 0
BBX 12 12 0 0
BITMAP
702C0A
342C0D
343D0D
283A1C
28661C
1CA728
1C9328
0DC274
0EC2B0
0B81F0
0740E0
0740E0
ENDCHAR
STARTCHAR X
ENCODING 88
SWIDTH 550 0
DWIDTH 9 0
BBX 8 12 0 0
BITMAP
380B
2C0E
0D2C
0B38
03F0
02E0
02E0
07B0
0B38
1D2C
2C0E
740B
ENDCHAR
STARTCHAR Y
ENCODING 89
SWIDTH 524 0
DWIDTH 8 0
BBX 8 12 0 0
BITMAP
B00B
340D
281C
1D38
0E74
07A0
03D0
02C0
02C0
02C0
02C0
02C0
ENDCHAR
STARTCHAR Z
ENCODING 90
SWIDTH 522 0
DWIDTH 8 0
BBX 8 12 0 0
BITMAP
7FFD
155D
0028
0074
00E0
01C0
0380
0700
0E00
2C00
3954
7FFE
ENDCHAR
STARTCHAR bracketleft
ENCODING 91
SWIDTH 250 0
DWIDTH 4 0
BBX 3 15 1 -2
BITMAP
F8
E0
D0
D0
D0
D0
D0
D0
D0
D0
D0
D0
D0
E0
F8
ENDCHAR
STARTCHAR backslash
ENCODING 92
SWIDTH 369 0
DWIDTH 6 0
BBX 6 13 0 -1
BITMAP
7000
3000
2400
2800
1C00
0D00
0A00
0700
0340
0280
01C0
00D0
00A0
ENDCHAR
STARTCHAR bracketright
ENCODING 93
SWIDTH 250 0
DWIDTH 4 0
BBX 3 15 0 -2
BITMAP
BC
2C
2C
2C
2C
2C
2C
2C
2C
2C
2C
2C
2C
2C
BC
ENDCHAR
STARTCHAR asciicircum
ENCODING 94
SWIDTH 371 0
DWIDTH 6 0
BBX 6 6 0 6
BITMAP
0A00
0F00
1B40
2A80
35C0
70D0
ENDCHAR
STARTCHAR underscore
ENCODING 95
SWIDTH 404 0
DWIDTH 6 0
BBX 7 2 0 -2
BITMAP
BFF4
1550
ENDCHAR
STARTCHAR grave
ENCODING 96
SWIDTH 309 0
DWIDTH 5 0
BBX 3 2 1 10
BITMAP
E0
34
ENDCHAR
STARTCHAR a
ENCODING 97
SWIDTH 479 0
DWIDTH 8 0
BBX 6 9 1 0
BITMAP
2F80
B5D0
90E0
00A0
2FE0
A4A0
D0A0
E6E0
7EA0
ENDCHAR
STARTCHAR b
ENCODING 98
SWIDTH 493 0
DWIDTH 8 0
BBX 6 12 1 0
BITMAP
D000
D000
D000
EB80
F5E0
D070
D070
D070
D070
D070
F5E0
DB80
ENDCHAR
STARTCHAR c
ENCODING 99
SWIDTH 461 0
DWIDTH 7 0
BBX 7 9 0 0
BITMAP
0BE0
2D74
3428
7400
7000
7400
3428
2D74
0BE0
ENDCHAR
STARTCHAR d
ENCODING 100
SWIDTH 496 0
DWIDTH 8 0
BBX 7 12 0 0
BITMAP
002C
002C
002C
0BAC
2D7C
342C
742C
702C
742C
342C
2D7C
0BAC
ENDCHAR
STARTCHAR e
ENCODING 101
SWIDTH 468 0
DWIDTH 8 0
BBX 7 9 0 0
BITMAP
0BE0
2D74
3428
342C
7FFC
7550
3400
2D68
0BE0
ENDCHAR
STARTCHAR f
ENCODING 102
SWIDTH 316 0
DWIDTH 5 0
BBX 5 12 0 0
BITMAP
07C0
1E40
1C00
7F40
1C00
1C00
1C00
1C00
1C00
1C00
1C00
1C00
ENDCHAR
STARTCHAR g
ENCODING 103
SWIDTH 492 0
DWIDTH 8 0
BBX 7 12 0 -3
BITMAP
0BAC
2D7C
342C
742C
702C
742C
342C
2D7C
0BAC
0028
1974
1BE0
ENDCHAR
STARTCHAR h
ENCODING 104
SWIDTH 482 0
DWIDTH 8 0
BBX 6 12 1 0
BITMAP
D000
D000
D000
EB80
F5D0
E0A0
D0A0
D0A0
D0A0
D0A0
D0A0
D0A0
ENDCHAR
STARTCHAR i
ENCODING 105
SWIDTH 229 0
DWIDTH 4 0
BBX 2 12 1 0
BITMAP
50
90
00
E0
E0
E0
E0
E0
E0
E0
E0
E0
ENDCHAR
STARTCHAR j
ENCODING 106
SWIDTH 223 0
DWIDTH 4 0
BBX 3 15 0 -3
BITMAP
24
34
00
34
34
34
34
34
34
34
34
34
34
74
E0
ENDCHAR
STARTCHAR k
ENCODING 107
SWIDTH 450 0
DWIDTH 7 0
BBX 6 12 1 0
BITMAP
D000
D000
D000
D1D0
D380
DB00
ED00
FD00
EB00
D380
D1D0
D0A0
ENDCHAR
STARTCHAR l
ENCODING 108
SWIDTH 229 0
DWIDTH 4 0
BBX 2 12 1 0
BITMAP
E0
E0
E0
E0
E0
E0
E0
E0
E0
E0
E0
E0
ENDCHAR
STARTCHAR m
ENCODING 109
SWIDTH 752 0
DWIDTH 12 0
BBX 10 9 1 0
BITMAP
EB8B80
F5F9E0
D0B070
D0A070
D0A070
D0A070
D0A070
D0A070
D0A070
ENDCHAR
STARTCHAR n
ENCODING 110
SWIDTH 483 0
DWIDTH 8 0
BBX 6 9 1 0
BITMAP
EB80
F5D0
E0A0
D0A0
D0A0
D0A0
D0A0
D0A0
D0A0
ENDCHAR
STARTCHAR o
ENCODING 111
SWIDTH 501 0
DWIDTH 8 0
BBX 8 9 0 0
BITMAP
0BE0
2D78
341C
740D
700D
740D
341C
2D78
0BE0
ENDCHAR
STARTCHAR p
ENCODING 112
SWIDTH 493 0
DWIDTH 8 0
BBX 6 12 1 -3
BITMAP
DB80
F5E0
D070
D070
D070
D070
D070
F5E0
EB80
D000
D000
D000
ENDCHAR
STARTCHAR q
ENCODING 113
SWIDTH 500 0
DWIDTH 8 0
BBX 7 12 0 -3
BITMAP
0BAC
2D7C
342C
742C
702C
742C
342C
2D7C
0BAC
002C
002C
002C
ENDCHAR
STARTCHAR r
ENCODING 114
SWIDTH 304 0
DWIDTH 5 0
BBX 4 9 1 0
BITMAP
ED
F9
E0
D0
D0
D0
D0
D0
D0
ENDCHAR
STARTCHAR s
ENCODING 115
SWIDTH 455 0
DWIDTH 7 0
BBX 6 9 1 0
BITMAP
2F40
A6D0
D090
B400
2F40
02D0
90D0
E5D0
2F40
ENDCHAR
STARTCHAR t
ENCODING 116
SWIDTH 295 0
DWIDTH 5 0
BBX 4 11 0 0
BITMAP
2C
2C
BF
2C
2C
2C
2C
2C
2C
1D
0B
ENDCHAR
STARTCHAR u
ENCODING 117
SWIDTH 483 0
DWIDTH 8 0
BBX 6 9 1 0
BITMAP
D0A0
D0A0
D0A0
D0A0
D0A0
D0A0
D0A0
B6E0
2EA0
ENDCHAR
STARTCHAR v
ENCODING 118
SWIDTH 427 0
DWIDTH 7 0
BBX 7 9 0 0
BITMAP
B034
7070
34A0
2890
1CD0
0DC0
0B80
0B40
0700
ENDCHAR
STARTCHAR w
ENCODING 119
SWIDTH 649 0
DWIDTH 10 0
BBX 10 9 0 0
BITMAP
707070
70B0A0
34F4D0
25E8D0
299DC0
1E4E80
0F4B40
0F0B40
0A0700
ENDCHAR
STARTCHAR x
ENCODING 120
SWIDTH 438 0
DWIDTH 7 0
BBX 7 9 0 0
BITMAP
7474
28A0
1DD0
0B80
0740
0B80
1DD0
28A0
7474
ENDCHAR
STARTCHAR y
ENCODING 121
SWIDTH 416 0
DWIDTH 7 0
BBX 7 12 0 -3
BITMAP
B074
7070
34A0
28D0
1DC0
0E80
0B80
0B40
0700
0A00
1D00
7800
ENDCHAR
STARTCHAR z
ENCODING 122
SWIDTH 438 0
DWIDTH 7 0
BBX 7 9 0 0
BITMAP
7FF4
15B0
00D0
0280
0740
0E00
1C00
3950
7FF4
ENDCHAR
STARTCHAR braceleft
ENCODING 123
SWIDTH 306 0
DWIDTH 5 0
BBX 5 15 0 -3
BITMAP
0240
0A00
0D00
0D00
0D00
0D00
2C00
7400
2C00
0D00
0D00
0D00
0D00
0A00
0240
ENDCHAR
STARTCHAR bar
ENCODING 124
SWIDTH 243 0
DWIDTH 4 0
BBX 2 14 1 -2
BITMAP
A0
A0
A0
A0
A0
A0
A0
A0
A0
A0
A0
A0
A0
A0
ENDCHAR
STARTCHAR braceright
ENCODING 125
SWIDTH 306 0
DWIDTH 5 0
BBX 5 15 0 -3
BITMAP
A000
3400
2800
1C00
1C00
1C00
0D00
0B40
0E00
1C00
1C00
1C00
2C00
3400
A000
ENDCHAR
STARTCHAR asciitilde
ENCODING 126
SWIDTH 589 0
DWIDTH 9 0
BBX 8 4 1 3
BITMAP
0400
7E09
A39C
D0B4
ENDCHAR
STARTCHAR uni00A0
ENCODING 160
SWIDTH 229 0
DWIDTH 4 0
BBX 1 1 0 0
BITMAP
00
ENDCHAR
STARTCHAR exclamdown
ENCODING 161
SWIDTH 231 0
DWIDTH 4 0
BBX 2 12 1 -3
BITMAP
90
50
00
50
A0
A0
A0
A0
A0
A0
A0
E0
ENDCHAR
STARTCHAR cent
ENCODING 162
SWIDTH 479 0
DWIDTH 8 0
BBX 7 13 0 -2
BITMAP
0240
0280
0BE0
1D74
3428
3400
7400
3400
3418
2D78
0BE0
0280
0280
ENDCHAR
STARTCHAR sterling
ENCODING 163
SWIDTH 510 0
DWIDTH 8 0
BBX 8 12 0 0
BITMAP
02F4
0A6C
0D0D
1C00
1C00
1D00
7FD0
1D40
1D00
1D00
2D54
7FFE
ENDCHAR
STARTCHAR currency
ENCODING 164
SWIDTH 712 0
DWIDTH 11 0
BBX 10 10 1 0
BITMAP
A6F9D0
BE5FC0
740380
A001C0
D000D0
D000D0
A001C0
740380
BE5FD0
96F990
ENDCHAR
STARTCHAR yen
ENCODING 165
SWIDTH 463 0
DWIDTH 7 0
BBX 7 12 0 0
BITMAP
B02C
7438
2874
1CA0
0ED0
0BC0
3FF4
0340
3FF4
0340
0340
0340
ENDCHAR
STARTCHAR brokenbar
ENCODING 166
SWIDTH 239 0
DWIDTH 4 0
BBX 2 14 1 -2
BITMAP
E0
E0
E0
E0
E0
E0
E0
00
E0
E0
E0
E0
E0
E0
ENDCHAR
STARTCHAR section
ENCODING 167
SWIDTH 537 0
DWIDTH 9 0
BBX 8 16 0 -4
BITMAP
0BE4
2D6C
380D
3805
2D00
1FE0
34BC
740E
340A
2E4E
07F8
006C
200D
340D
2D6C
0BE4
ENDCHAR
STARTCHAR dieresis
ENCODING 168
SWIDTH 417 0
DWIDTH 7 0
BBX 5 2 1 10
BITMAP
8140
D280
ENDCHAR
STARTCHAR copyright
ENCODING 169
SWIDTH 785 0
DWIDTH 13 0
BBX 12 12 0 0
BITMAP
01BE40
0741A0
1C7E18
24D249
318186
628002
628002
318186
24D249
1C7E18
0741A0
01BE40
ENDCHAR
STARTCHAR ordfeminine
ENCODING 170
SWIDTH 395 0
DWIDTH 6 0
BBX 5 6 1 6
BITMAP
7E00
5700
7F40
A340
E740
7B40
ENDCHAR
STARTCHAR guillemotleft
ENCODING 171
SWIDTH 417 0
DWIDTH 7 0
BBX 5 6 1 1
BITMAP
2580
7300
DA00
DA00
7300
2580
ENDCHAR
STARTCHAR logicalnot
ENCODING 172
SWIDTH 487 0
DWIDTH 8 0
BBX 6 3 1 3
BITMAP
FFE0
55E0
00E0
ENDCHAR
STARTCHAR uni00AD
ENCODING 173
SWIDTH 248 0
DWIDTH 4 0
BBX 4 2 0 3
BITMAP
BE
14
ENDCHAR
STARTCHAR registered
ENCODING 174
SWIDTH 786 0
DWIDTH 13 0
BBX 12 12 0 0
BITMAP
01BE40
0741A0
1CFE18
24C289
30C286
60FF02
60C246
30C186
24C189
1C0018
0741A0
01BE40
ENDCHAR
STARTCHAR macron
ENCODING 175
SWIDTH 414 0
DWIDTH 7 0
BBX 5 1 1 10
BITMAP
FF80
ENDCHAR
STARTCHAR degree
ENCODING 176
SWIDTH 373 0
DWIDTH 6 0
BBX 4 4 1 8
BITMAP
7D
D7
D7
7D
ENDCHAR
STARTCHAR plusminus
ENCODING 177
SWIDTH 469 0
DWIDTH 8 0
BBX 7 11 0 0
BITMAP
0100
0280
0280
0280
7FFC
1690
0280
0280
0140
1550
3FF8
ENDCHAR
STARTCHAR uni00B2
ENCODING 178
SWIDTH 329 0
DWIDTH 5 0
BBX 5 7 0 5
BITMAP
2E00
7240
0240
0700
0D00
2800
7F80
ENDCHAR
STARTCHAR uni00B3
ENCODING 179
SWIDTH 329 0
DWIDTH 5 0
BBX 5 7 0 5
BITMAP
2E00
1340
0F00
0240
1280
7240
2E00
ENDCHAR
STARTCHAR acute
ENCODING 180
SWIDTH 313 0
DWIDTH 5 0
BBX 3 2 1 10
BITMAP
38
A0
ENDCHAR
STARTCHAR mu
ENCODING 181
SWIDTH 498 0
DWIDTH 8 0
BBX 6 12 1 -3
BITMAP
E0A0
E0A0
E0A0
E0A0
E0A0
E0A0
E0A0
F5E0
EFA0
E000
E000
E000
ENDCHAR
STARTCHAR paragraph
ENCODING 182
SWIDTH 434 0
DWIDTH 7 0
BBX 6 12 0 0
BITMAP
0150
1FE0
3FE0
7FE0
7FE0
7FE0
3FE0
0BE0
00A0
00A0
00A0
00A0
ENDCHAR
STARTCHAR periodcentered
ENCODING 183
SWIDTH 243 0
DWIDTH 4 0
BBX 2 2 1 5
BITMAP
A0
50
ENDCHAR
STARTCHAR cedilla
ENCODING 184
SWIDTH 229 0
DWIDTH 4 0
BBX 2 3 1 -3
BITMAP
C0
60
E0
ENDCHAR
STARTCHAR uni00B9
ENCODING 185
SWIDTH 329 0
DWIDTH 5 0
BBX 3 7 1 5
BITMAP
64
B4
24
24
24
24
24
ENDCHAR
STARTCHAR ordmasculine
ENCODING 186
SWIDTH 402 0
DWIDTH 6 0
BBX 5 6 1 6
BITMAP
6E00
A740
C240
C240
A740
7E00
ENDCHAR
STARTCHAR guillemotright
ENCODING 187
SWIDTH 417 0
DWIDTH 7 0
BBX 5 6 1 1
BITMAP
DA00
6340
2580
2580
6340
DA00
ENDCHAR
STARTCHAR onequarter
ENCODING 188
SWIDTH 637 0
DWIDTH 10 0
BBX 10 12 0 0
BITMAP
190000
6D0000
0D0600
0D0900
0D1800
0D3400
0062C0
00C3C0
028AC0
0319C0
052FE0
0001C0
ENDCHAR
STARTCHAR onehalf
ENCODING 189
SWIDTH 677 0
DWIDTH 11 0
BBX 10 12 0 0
BITMAP
190000
6D0000
0D0500
0D0C00
0D2400
0D3000
0097D0
018DA0
0240A0
0601C0
080700
000FF0
ENDCHAR
STARTCHAR threequarters
ENCODING 190
SWIDTH 673 0
DWIDTH 11 0
BBX 9 12 1 0
BITMAP
BD0000
4A0000
2D0500
060C00
962800
BD3000
009340
01CB40
025A40
062640
093FC0
000240
ENDCHAR
STARTCHAR questiondown
ENCODING 191
SWIDTH 421 0
DWIDTH 7 0
BBX 6 12 0 -3
BITMAP
0700
0200
0000
0600
0700
0E00
2C00
3400
7000
7070
39E0
1F80
ENDCHAR
STARTCHAR Agrave
ENCODING 192
SWIDTH 576 0
DWIDTH 9 0
BBX 9 15 0 0
BITMAP
074000
01C000
000000
00D000
01E000
02B000
037400
072800
0A1C00
0D1D00
1D0E00
2FFF00
395700
740340
B00280
ENDCHAR
STARTCHAR Aacute
ENCODING 193
SWIDTH 576 0
DWIDTH 9 0
BBX 9 15 0 0
BITMAP
007800
00A000
000000
00D000
01E000
02B000
037400
072800
0A1C00
0D1D00
1D0E00
2FFF00
395700
740340
B00280
ENDCHAR
STARTCHAR Acircumflex
ENCODING 194
SWIDTH 576 0
DWIDTH 9 0
BBX 9 15 0 0
BITMAP
01E000
026400
000000
00D000
01E000
02B000
037400
072800
0A1C00
0D1D00
1D0E00
2FFF00
395700
740340
B00280
ENDCHAR
STARTCHAR Atilde
ENCODING 195
SWIDTH 576 0
DWIDTH 9 0
BBX 9 16 0 0
BITMAP
000400
079C00
097400
000000
00D000
01E000
02B000
037400
072800
0A1C00
0D1D00
1D0E00
2FFF00
395700
740340
B00280
ENDCHAR
STARTCHAR Adieresis
ENCODING 196
SWIDTH 576 0
DWIDTH 9 0
BBX 9 15 0 0
BITMAP
050800
0A1C00
000000
00D000
01E000
02B000
037400
072800
0A1C00
0D1D00
1D0E00
2FFF00
395700
740340
B00280
ENDCHAR
STARTCHAR Aring
ENCODING 197
SWIDTH 576 0
DWIDTH 9 0
BBX 9 16 0 0
BITMAP
02A000
022400
02A000
000000
00D000
01E000
02B000
037400
072800
0A1C00
0D1D00
1D0E00
2FFF00
395700
740340
B00280
ENDCHAR
STARTCHAR AE
ENCODING 198
SWIDTH 812 0
DWIDTH 13 0
BBX 13 12 0 0
BITMAP
001FFF40
003E5500
007A0000
00EA0000
01CA0000
038BFE00
074B5400
0F0B0000
1FFF0000
2D5B0000
74075500
B007FF80
ENDCHAR
STARTCHAR Ccedilla
ENCODING 199
SWIDTH 566 0
DWIDTH 9 0
BBX 8 15 1 -3
BITMAP
1BE0
3978
B01C
E009
D000
D000
D000
D000
E009
B01C
3978
1BE0
0300
0180
0380
ENDCHAR
STARTCHAR Egrave
ENCODING 200
SWIDTH 496 0
DWIDTH 8 0
BBX 7 15 1 0
BITMAP
2C00
0A00
0000
BFF4
A550
A000
A000
A000
BFE0
A540
A000
A000
A000
A550
BFF4
ENDCHAR
STARTCHAR Eacute
ENCODING 201
SWIDTH 496 0
DWIDTH 8 0
BBX 7 15 1 0
BITMAP
02D0
0740
0000
BFF4
A550
A000
A000
A000
BFE0
A540
A000
A000
A000
A550
BFF4
ENDCHAR
STARTCHAR Ecircumflex
ENCODING 202
SWIDTH 496 0
DWIDTH 8 0
BBX 7 15 1 0
BITMAP
0B40
1980
0000
BFF4
A550
A000
A000
A000
BFE0
A540
A000
A000
A000
A550
BFF4
ENDCHAR
STARTCHAR Edieresis
ENCODING 203
SWIDTH 496 0
DWIDTH 8 0
BBX 7 15 1 0
BITMAP
2050
34A0
0000
BFF4
A550
A000
A000
A000
BFE0
A540
A000
A000
A000
A550
BFF4
ENDCHAR
STARTCHAR Igrave
ENCODING 204
SWIDTH 250 0
DWIDTH 4 0
BBX 3 15 0 0
BITMAP
A0
24
00
28
28
28
28
28
28
28
28
28
28
28
28
ENDCHAR
STARTCHAR Iacute
ENCODING 205
SWIDTH 250 0
DWIDTH 4 0
BBX 3 15 1 0
BITMAP
28
60
00
A0
A0
A0
A0
A0
A0
A0
A0
A0
A0
A0
A0
ENDCHAR
STARTCHAR Icircumflex
ENCODING 206
SWIDTH 250 0
DWIDTH 4 0
BBX 4 15 0 0
BITMAP
38
96
00
28
28
28
28
28
28
28
28
28
28
28
28
ENDCHAR
STARTCHAR Idieresis
ENCODING 207
SWIDTH 250 0
DWIDTH 4 0
BBX 6 15 -1 0
BITMAP
6090
70D0
0000
0A00
0A00
0A00
0A00
0A00
0A00
0A00
0A00
0A00
0A00
0A00
0A00
ENDCHAR
STARTCHAR Eth
ENCODING 208
SWIDTH 585 0
DWIDTH 9 0
BBX 9 12 0 0
BITMAP
2FE400
2D6D00
2C0B00
2C0740
2C0340
FF4340
2D0340
2C0340
2C0740
2C0B00
2D6D00
2FE400
ENDCHAR
STARTCHAR Ntilde
ENCODING 209
SWIDTH 619 0
DWIDTH 10 0
BBX 8 15 1 0
BITMAP
0F64
19E0
0000
B00A
B40A
BC0A
AD0A
A70A
A34A
A1CA
A0DA
A0BA
A03E
A02E
A00E
ENDCHAR
STARTCHAR Ograve
ENCODING 210
SWIDTH 600 0
DWIDTH 10 0
BBX 8 15 1 0
BITMAP
1E00
0740
0000
1BE0
3978
B01D
E00D
D00E
D00A
D00A
D00E
E00D
B01D
3978
1BE0
ENDCHAR
STARTCHAR Oacute
ENCODING 211
SWIDTH 600 0
DWIDTH 10 0
BBX 8 15 1 0
BITMAP
00E0
0280
0000
1BE0
3978
B01D
E00D
D00E
D00A
D00A
D00E
E00D
B01D
3978
1BE0
ENDCHAR
STARTCHAR Ocircumflex
ENCODING 212
SWIDTH 600 0
DWIDTH 10 0
BBX 8 15 1 0
BITMAP
0780
09A0
0000
1BE0
3978
B01D
E00D
D00E
D00A
D00A
D00E
E00D
B01D
3978
1BE0
ENDCHAR
STARTCHAR Otilde
ENCODING 213
SWIDTH 600 0
DWIDTH 10 0
BBX 8 15 1 0
BITMAP
0E70
19E0
0000
1BE0
3978
B01D
E00D
D00E
D00A
D00A
D00E
E00D
B01D
3978
1BE0
ENDCHAR
STARTCHAR Odieresis
ENCODING 214
SWIDTH 600 0
DWIDTH 10 0
BBX 8 15 1 0
BITMAP
1420
1874
0000
1BE0
3978
B01D
E00D
D00E
D00A
D00A
D00E
E00D
B01D
3978
1BE0
ENDCHAR
STARTCHAR multiply
ENCODING 215
SWIDTH 470 0
DWIDTH 8 0
BBX 6 7 1 2
BITMAP
8090
A1D0
3B40
1E00
3B40
A1D0
8090
ENDCHAR
STARTCHAR Oslash
ENCODING 216
SWIDTH 600 0
DWIDTH 10 0
BBX 8 14 1 -1
BITMAP
0001
0BD9
39BC
B02C
A03D
D09A
D0CA
D24A
D60E
A90D
B81C
3D78
6BE0
5000
ENDCHAR
STARTCHAR Ugrave
ENCODING 217
SWIDTH 561 0
DWIDTH 9 0
BBX 7 15 1 0
BITMAP
1D00
0600
0000
D01C
D01C
D01C
D01C
D01C
D01C
D01C
D01C
D01C
A02C
7574
1FD0
ENDCHAR
STARTCHAR Uacute
ENCODING 218
SWIDTH 561 0
DWIDTH 9 0
BBX 7 15 1 0
BITMAP
01D0
0240
0000
D01C
D01C
D01C
D01C
D01C
D01C
D01C
D01C
D01C
A02C
7574
1FD0
ENDCHAR
STARTCHAR Ucircumflex
ENCODING 219
SWIDTH 561 0
DWIDTH 9 0
BBX 7 15 1 0
BITMAP
0740
1890
0000
D01C
D01C
D01C
D01C
D01C
D01C
D01C
D01C
D01C
A02C
7574
1FD0
ENDCHAR
STARTCHAR Udieresis
ENCODING 220
SWIDTH 561 0
DWIDTH 9 0
BBX 7 15 1 0
BITMAP
1450
2470
0000
D01C
D01C
D01C
D01C
D01C
D01C
D01C
D01C
D01C
A02C
7574
1FD0
ENDCHAR
STARTCHAR Yacute
ENCODING 221
SWIDTH 524 0
DWIDTH 8 0
BBX 8 15 0 0
BITMAP
00B4
01D0
0000
B00B
340D
281C
1D38
0E74
07A0
03D0
02C0
02C0
02C0
02C0
02C0
ENDCHAR
STARTCHAR Thorn
ENCODING 222
SWIDTH 515 0
DWIDTH 8 0
BBX 7 12 1 0
BITMAP
A000
A000
BF90
A5B0
A034
A038
A034
A0B0
BFD0
A400
A000
A000
ENDCHAR
STARTCHAR germandbls
ENCODING 223
SWIDTH 521 0
DWIDTH 8 0
BBX 7 12 1 0
BITMAP
2F40
B6C0
E0D0
D1C0
D280
D340
D280
D1E0
D074
D028
D574
DBE0
ENDCHAR
STARTCHAR agrave
ENCODING 224
SWIDTH 479 0
DWIDTH 8 0
BBX 6 12 1 0
BITMAP
3800
0900
0000
2F80
B5D0
90E0
00A0
2FE0
A4A0
D0A0
E6E0
7EA0
ENDCHAR
STARTCHAR aacute
ENCODING 225
SWIDTH 479 0
DWIDTH 8 0
BBX 6 12 1 0
BITMAP
0280
0600
0000
2F80
B5D0
90E0
00A0
2FE0
A4A0
D0A0
E6E0
7EA0
ENDCHAR
STARTCHAR acircumflex
ENCODING 226
SWIDTH 479 0
DWIDTH 8 0
BBX 6 12 1 0
BITMAP
0E00
2580
0000
2F80
B5D0
90E0
00A0
2FE0
A4A0
D0A0
E6E0
7EA0
ENDCHAR
STARTCHAR atilde
ENCODING 227
SWIDTH 479 0
DWIDTH 8 0
BBX 6 12 1 0
BITMAP
3D90
6780
0000
2F80
B5D0
90E0
00A0
2FE0
A4A0
D0A0
E6E0
7EA0
ENDCHAR
STARTCHAR adieresis
ENCODING 228
SWIDTH 479 0
DWIDTH 8 0
BBX 6 12 1 0
BITMAP
6090
70D0
0000
2F80
B5D0
90E0
00A0
2FE0
A4A0
D0A0
E6E0
7EA0
ENDCHAR
STARTCHAR aring
ENCODING 229
SWIDTH 479 0
DWIDTH 8 0
BBX 6 13 1 0
BITMAP
1A40
2580
1A40
0000
2F80
B5D0
90E0
00A0
2FE0
A4A0
D0A0
E6E0
7EA0
ENDCHAR
STARTCHAR ae
ENCODING 230
SWIDTH 728 0
DWIDTH 12 0
BBX 11 9 0 0
BITMAP
0BD7E0
29BD74
34381C
00341C
1BFFFC
393400
703800
35BD58
1F87F4
ENDCHAR
STARTCHAR ccedilla
ENCODING 231
SWIDTH 461 0
DWIDTH 7 0
BBX 7 12 0 -3
BITMAP
0BE0
2D74
3428
7400
7000
7400
3428
2D74
0BE0
0300
0180
0380
ENDCHAR
STARTCHAR egrave
ENCODING 232
SWIDTH 468 0
DWIDTH 8 0
BBX 7 12 0 0
BITMAP
0E00
0340
0000
0BE0
2D74
3428
342C
7FFC
7550
3400
2D68
0BE0
ENDCHAR
STARTCHAR eacute
ENCODING 233
SWIDTH 468 0
DWIDTH 8 0
BBX 7 12 0 0
BITMAP
00E0
0280
0000
0BE0
2D74
3428
342C
7FFC
7550
3400
2D68
0BE0
ENDCHAR
STARTCHAR ecircumflex
ENCODING 234
SWIDTH 468 0
DWIDTH 8 0
BBX 7 12 0 0
BITMAP
0780
09A0
0000
0BE0
2D74
3428
342C
7FFC
7550
3400
2D68
0BE0
ENDCHAR
STARTCHAR edieresis
ENCODING 235
SWIDTH 468 0
DWIDTH 8 0
BBX 7 12 0 0
BITMAP
1420
1C34
0000
0BE0
2D74
3428
342C
7FFC
7550
3400
2D68
0BE0
ENDCHAR
STARTCHAR igrave
ENCODING 236
SWIDTH 234 0
DWIDTH 4 0
BBX 3 12 0 0
BITMAP
E0
34
00
38
38
38
38
38
38
38
38
38
ENDCHAR
STARTCHAR iacute
ENCODING 237
SWIDTH 234 0
DWIDTH 4 0
BBX 3 12 1 0
BITMAP
38
A0
00
E0
E0
E0
E0
E0
E0
E0
E0
E0
ENDCHAR
STARTCHAR icircumflex
ENCODING 238
SWIDTH 234 0
DWIDTH 4 0
BBX 4 12 0 0
BITMAP
78
9A
00
38
38
38
38
38
38
38
38
38
ENDCHAR
STARTCHAR idieresis
ENCODING 239
SWIDTH 234 0
DWIDTH 4 0
BBX 6 12 -1 0
BITMAP
5080
70D0
0000
0E00
0E00
0E00
0E00
0E00
0E00
0E00
0E00
0E00
ENDCHAR
STARTCHAR eth
ENCODING 240
SWIDTH 513 0
DWIDTH 8 0
BBX 7 12 1 0
BITMAP
2400
2ED0
0B80
19D0
00A0
2FF0
B5B0
E074
D070
E070
B5E0
2F80
ENDCHAR
STARTCHAR ntilde
ENCODING 241
SWIDTH 483 0
DWIDTH 8 0
BBX 6 12 1 0
BITMAP
3DD0
6780
0000
EB80
F5D0
E0A0
D0A0
D0A0
D0A0
D0A0
D0A0
D0A0
ENDCHAR
STARTCHAR ograve
ENCODING 242
SWIDTH 501 0
DWIDTH 8 0
BBX 8 12 0 0
BITMAP
0E00
0240
0000
0BE0
2D78
341C
740D
700D
740D
341C
2D78
0BE0
ENDCHAR
STARTCHAR oacute
ENCODING 243
SWIDTH 501 0
DWIDTH 8 0
BBX 8 12 0 0
BITMAP
00A0
0180
0000
0BE0
2D78
341C
740D
700D
740D
341C
2D78
0BE0
ENDCHAR
STARTCHAR ocircumflex
ENCODING 244
SWIDTH 501 0
DWIDTH 8 0
BBX 8 12 0 0
BITMAP
0380
0960
0000
0BE0
2D78
341C
740D
700D
740D
341C
2D78
0BE0
ENDCHAR
STARTCHAR otilde
ENCODING 245
SWIDTH 501 0
DWIDTH 8 0
BBX 8 12 0 0
BITMAP
0F64
19E0
0000
0BE0
2D78
341C
740D
700D
740D
341C
2D78
0BE0
ENDCHAR
STARTCHAR odieresis
ENCODING 246
SWIDTH 501 0
DWIDTH 8 0
BBX 8 12 0 0
BITMAP
1820
1C34
0000
0BE0
2D78
341C
740D
700D
740D
341C
2D78
0BE0
ENDCHAR
STARTCHAR divide
ENCODING 247
SWIDTH 500 0
DWIDTH 8 0
BBX 8 8 0 1
BITMAP
0280
0100
0000
7FFD
1554
0000
0280
0240
ENDCHAR
STARTCHAR oslash
ENCODING 248
SWIDTH 498 0
DWIDTH 8 0
BBX 8 11 0 -1
BITMAP
0014
0BF0
1D78
34AC
349D
718D
361C
3A1C
1E74
0FE0
1400
ENDCHAR
STARTCHAR ugrave
ENCODING 249
SWIDTH 483 0
DWIDTH 8 0
BBX 6 12 1 0
BITMAP
3800
0D00
0000
D0A0
D0A0
D0A0
D0A0
D0A0
D0A0
D0A0
B6E0
2EA0
ENDCHAR
STARTCHAR uacute
ENCODING 250
SWIDTH 483 0
DWIDTH 8 0
BBX 6 12 1 0
BITMAP
0380
0A00
0000
D0A0
D0A0
D0A0
D0A0
D0A0
D0A0
D0A0
B6E0
2EA0
ENDCHAR
STARTCHAR ucircumflex
ENCODING 251
SWIDTH 483 0
DWIDTH 8 0
BBX 6 12 1 0
BITMAP
1E00
2680
0000
D0A0
D0A0
D0A0
D0A0
D0A0
D0A0
D0A0
B6E0
2EA0
ENDCHAR
STARTCHAR udieresis
ENCODING 252
SWIDTH 483 0
DWIDTH 8 0
BBX 6 12 1 0
BITMAP
5080
70D0
0000
D0A0
D0A0
D0A0
D0A0
D0A0
D0A0
D0A0
B6E0
2EA0
ENDCHAR
STARTCHAR yacute
ENCODING 253
SWIDTH 416 0
DWIDTH 7 0
BBX 7 15 0 -3
BITMAP
01D0
0240
0000
B074
7070
34A0
28D0
1DC0
0E80
0B80
0B40
0700
0A00
1D00
7800
ENDCHAR
STARTCHAR thorn
ENCODING 254
SWIDTH 508 0
DWIDTH 8 0
BBX 7 15 1 -3
BITMAP
D000
D000
D000
EB80
F5E0
E0B0
D070
D074
D070
E070
F5E0
EB80
D000
D000
D000
ENDCHAR
STARTCHAR ydieresis
ENCODING 255
SWIDTH 416 0
DWIDTH 7 0
BBX 7 15 0 -3
BITMAP
1450
3460
0000
B074
7070
34A0
28D0
1DC0
0E80
0B80
0B40
0700
0A00
1D00
7800
ENDCHAR
STARTCHAR Amacron
ENCODING 256
SWIDTH 576 0
DWIDTH 9 0
BBX 9 12 0 0
BITMAP
0BFC00
01E000
02B000
037400
072800
0A1C00
0D1D00
1D0E00
2FFF00
395700
740340
B00280
ENDCHAR
STARTCHAR amacron
ENCODING 257
SWIDTH 479 0
DWIDTH 8 0
BBX 6 11 1 0
BITMAP
7FD0
0000
2F80
B5D0
90E0
00A0
2FE0
A4A0
D0A0
E6E0
7EA0
ENDCHAR
STARTCHAR Abreve
ENCODING 258
SWIDTH 576 0
DWIDTH 9 0
BBX 9 15 0 0
BITMAP
0A1C00
02F400
000000
00D000
01E000
02B000
037400
072800
0A1C00
0D1D00
1D0E00
2FFF00
395700
740340
B00280
ENDCHAR
STARTCHAR abreve
ENCODING 259
SWIDTH 479 0
DWIDTH 8 0
BBX 6 12 1 0
BITMAP
70D0
2F80
0000
2F80
B5D0
90E0
00A0
2FE0
A4A0
D0A0
E6E0
7EA0
ENDCHAR
STARTCHAR Aogonek
ENCODING 260
SWIDTH 576 0
DWIDTH 9 0
BBX 9 15 0 -3
BITMAP
00D000
01E000
02B000
037400
072800
0A1C00
0D1D00
1D0E00
2FFF00
395700
740340
B00280
000600
000A00
000780
ENDCHAR
STARTCHAR aogonek
ENCODING 261
SWIDTH 479 0
DWIDTH 8 0
BBX 6 12 1 -3
BITMAP
2F80
B5D0
90E0
00A0
2FE0
A4A0
D0A0
E6E0
7EA0
0180
0280
01E0
ENDCHAR
STARTCHAR Cacute
ENCODING 262
SWIDTH 566 0
DWIDTH 9 0
BBX 8 15 1 0
BITMAP
01E0
0280
0000
1BE0
3978
B01C
E009
D000
D000
D000
D000
E009
B01C
3978
1BE0
ENDCHAR
STARTCHAR cacute
ENCODING 263
SWIDTH 461 0
DWIDTH 7 0
BBX 7 12 0 0
BITMAP
01E0
0280
0000
0BE0
2D74
3428
7400
7000
7400
3428
2D74
0BE0
ENDCHAR
STARTCHAR Ccircumflex
ENCODING 264
SWIDTH 566 0
DWIDTH 9 0
BBX 8 15 1 0
BITMAP
0780
0990
0000
1BE0
3978
B01C
E009
D000
D000
D000
D000
E009
B01C
3978
1BE0
ENDCHAR
STARTCHAR ccircumflex
ENCODING 265
SWIDTH 461 0
DWIDTH 7 0
BBX 7 12 0 0
BITMAP
0780
0990
0000
0BE0
2D74
3428
7400
7000
7400
3428
2D74
0BE0
ENDCHAR
STARTCHAR Cdotaccent
ENCODING 266
SWIDTH 566 0
DWIDTH 9 0
BBX 8 15 1 0
BITMAP
0200
0340
0000
1BE0
3978
B01C
E009
D000
D000
D000
D000
E009
B01C
3978
1BE0
ENDCHAR
STARTCHAR cdotaccent
ENCODING 267
SWIDTH 461 0
DWIDTH 7 0
BBX 7 12 0 0
BITMAP
0200
0340
0000
0BE0
2D74
3428
7400
7000
7400
3428
2D74
0BE0
ENDCHAR
STARTCHAR Ccaron
ENCODING 268
SWIDTH 566 0
DWIDTH 9 0
BBX 8 15 1 0
BITMAP
0D90
0740
0000
1BE0
3978
B01C
E009
D000
D000
D000
D000
E009
B01C
3978
1BE0
ENDCHAR
STARTCHAR ccaron
ENCODING 269
SWIDTH 461 0
DWIDTH 7 0
BBX 7 12 0 0
BITMAP
0D90
0740
0000
0BE0
2D74
3428
7400
7000
7400
3428
2D74
0BE0
ENDCHAR
STARTCHAR Dcaron
ENCODING 270
SWIDTH 570 0
DWIDTH 9 0
BBX 7 15 1 0
BITMAP
2980
0B00
0000
BF90
A5B4
A028
A01C
A01C
A01C
A01C
A01C
A01C
A038
A5B4
BF90
ENDCHAR
STARTCHAR dcaron
ENCODING 271
SWIDTH 569 0
DWIDTH 9 0
BBX 9 12 0 0
BITMAP
002DC0
002DC0
002E40
0BAC00
2D7C00
342C00
742C00
702C00
742C00
342C00
2D7C00
0BAC00
ENDCHAR
STARTCHAR Dcroat
ENCODING 272
SWIDTH 585 0
DWIDTH 9 0
BBX 9 12 0 0
BITMAP
2FE400
2D6D00
2C0B00
2C0740
2C0340
FF4340
2D0340
2C0340
2C0740
2C0B00
2D6D00
2FE400
ENDCHAR
STARTCHAR dcroat
ENCODING 273
SWIDTH 529 0
DWIDTH 8 0
BBX 8 12 0 0
BITMAP
002C
00FF
006D
0BAC
2D7C
342C
342C
702C
742C
342C
2D7C
0BAC
ENDCHAR
STARTCHAR Emacron
ENCODING 274
SWIDTH 496 0
DWIDTH 8 0
BBX 7 14 1 0
BITMAP
3FE0
0000
BFF4
A550
A000
A000
A000
BFE0
A540
A000
A000
A000
A550
BFF4
ENDCHAR
STARTCHAR emacron
ENCODING 275
SWIDTH 468 0
DWIDTH 8 0
BBX 7 11 0 0
BITMAP
1FF4
0000
0BE0
2D74
3428
342C
7FFC
7550
3400
2D68
0BE0
ENDCHAR
STARTCHAR Ebreve
ENCODING 276
SWIDTH 496 0
DWIDTH 8 0
BBX 7 15 1 0
BITMAP
3490
1F80
0000
BFF4
A550
A000
A000
A000
BFE0
A540
A000
A000
A000
A550
BFF4
ENDCHAR
STARTCHAR ebreve
ENCODING 277
SWIDTH 468 0
DWIDTH 8 0
BBX 7 12 0 0
BITMAP
1C70
0BD0
0000
0BE0
2D74
3428
342C
7FFC
7550
3400
2D68
0BE0
ENDCHAR
STARTCHAR Edotaccent
ENCODING 278
SWIDTH 496 0
DWIDTH 8 0
BBX 7 15 1 0
BITMAP
0600
0700
0000
BFF4
A550
A000
A000
A000
BFE0
A540
A000
A000
A000
A550
BFF4
ENDCHAR
STARTCHAR edotaccent
ENCODING 279
SWIDTH 468 0
DWIDTH 8 0
BBX 7 12 0 0
BITMAP
0140
0280
0000
0BE0
2D74
3428
342C
7FFC
7550
3400
2D68
0BE0
ENDCHAR
STARTCHAR Eogonek
ENCODING 280
SWIDTH 496 0
DWIDTH 8 0
BBX 7 15 1 -3
BITMAP
BFF4
A550
A000
A000
A000
BFE0
A540
A000
A000
A000
A550
BFF4
00D0
01C0
01E0
ENDCHAR
STARTCHAR eogonek
ENCODING 281
SWIDTH 468 0
DWIDTH 8 0
BBX 7 12 0 -3
BITMAP
0BE0
2D74
3428
342C
7FFC
7550
3400
2D68
0BE0
0180
0280
01D0
ENDCHAR
STARTCHAR Ecaron
ENCODING 282
SWIDTH 496 0
DWIDTH 8 0
BBX 7 15 1 0
BITMAP
29C0
0B00
0000
BFF4
A550
A000
A000
A000
BFE0
A540
A000
A000
A000
A550
BFF4
ENDCHAR
STARTCHAR ecaron
ENCODING 283
SWIDTH 468 0
DWIDTH 8 0
BBX 7 12 0 0
BITMAP
09A0
0380
0000
0BE0
2D74
3428
342C
7FFC
7550
3400
2D68
0BE0
ENDCHAR
STARTCHAR Gcircumflex
ENCODING 284
SWIDTH 590 0
DWIDTH 9 0
BBX 8 15 1 0
BITMAP
0780
1890
0000
1BE0
7978
A01C
E004
D000
D000
D0FD
D05D
E00D
B00D
396D
1BE4
ENDCHAR
STARTCHAR gcircumflex
ENCODING 285
SWIDTH 492 0
DWIDTH 8 0
BBX 7 15 0 -3
BITMAP
0780
0990
0000
0BAC
2D7C
342C
742C
702C
742C
342C
2D7C
0BAC
0028
1974
1BE0
ENDCHAR
STARTCHAR Gbreve
ENCODING 286
SWIDTH 590 0
DWIDTH 9 0
BBX 8 15 1 0
BITMAP
28A0
0B90
0000
1BE0
7978
A01C
E004
D000
D000
D0FD
D05D
E00D
B00D
396D
1BE4
ENDCHAR
STARTCHAR gbreve
ENCODING 287
SWIDTH 492 0
DWIDTH 8 0
BBX 7 15 0 -3
BITMAP
1870
0BD0
0000
0BAC
2D7C
342C
742C
702C
742C
342C
2D7C
0BAC
0028
1974
1BE0
ENDCHAR
STARTCHAR Gdotaccent
ENCODING 288
SWIDTH 590 0
DWIDTH 9 0
BBX 8 15 1 0
BITMAP
0200
0740
0000
1BE0
7978
A01C
E004
D000
D000
D0FD
D05D
E00D
B00D
396D
1BE4
ENDCHAR
STARTCHAR gdotaccent
ENCODING 289
SWIDTH 492 0
DWIDTH 8 0
BBX 7 15 0 -3
BITMAP
0140
0340
0000
0BAC
2D7C
342C
742C
702C
742C
342C
2D7C
0BAC
0028
1974
1BE0
ENDCHAR
STARTCHAR uni0122
ENCODING 290
SWIDTH 590 0
DWIDTH 9 0
BBX 8 16 1 -4
BITMAP
1BE0
7978
A01C
E004
D000
D000
D0FD
D05D
E00D
B00D
396D
1BE4
0000
0280
0340
0200
ENDCHAR
STARTCHAR uni0123
ENCODING 291
SWIDTH 492 0
DWIDTH 8 0
BBX 7 16 0 -3
BITMAP
0180
0280
0340
0000
0BAC
2D7C
342C
742C
702C
742C
342C
2D7C
0BAC
0028
1974
1BE0
ENDCHAR
STARTCHAR Hcircumflex
ENCODING 292
SWIDTH 620 0
DWIDTH 10 0
BBX 8 15 1 0
BITMAP
0780
0990
0000
A00A
A00A
A00A
A00A
A00A
BFFE
A55A
A00A
A00A
A00A
A00A
A00A
ENDCHAR
STARTCHAR hcircumflex
ENCODING 293
SWIDTH 482 0
DWIDTH 8 0
BBX 6 15 1 0
BITMAP
2D00
6240
0000
D000
D000
D000
EB80
F5D0
E0A0
D0A0
D0A0
D0A0
D0A0
D0A0
D0A0
ENDCHAR
STARTCHAR Hbar
ENCODING 294
SWIDTH 611 0
DWIDTH 10 0
BBX 10 12 0 0
BITMAP
280280
280280
BFFFE0
280280
280280
2FFF80
295680
280280
280280
280280
280280
280280
ENDCHAR
STARTCHAR hbar
ENCODING 295
SWIDTH 497 0
DWIDTH 8 0
BBX 7 12 0 0
BITMAP
2800
FF00
6900
2AE0
2E78
282C
281C
281C
281C
281C
281C
281C
ENDCHAR
STARTCHAR Itilde
ENCODING 296
SWIDTH 250 0
DWIDTH 4 0
BBX 6 15 -1 0
BITMAP
3D90
6780
0000
0A00
0A00
0A00
0A00
0A00
0A00
0A00
0A00
0A00
0A00
0A00
0A00
ENDCHAR
STARTCHAR itilde
ENCODING 297
SWIDTH 234 0
DWIDTH 4 0
BBX 5 12 -1 0
BITMAP
39C0
6780
0000
0E00
0E00
0E00
0E00
0E00
0E00
0E00
0E00
0E00
ENDCHAR
STARTCHAR Imacron
ENCODING 298
SWIDTH 250 0
DWIDTH 4 0
BBX 6 14 -1 0
BITMAP
7FD0
0000
0A00
0A00
0A00
0A00
0A00
0A00
0A00
0A00
0A00
0A00
0A00
0A00
ENDCHAR
STARTCHAR imacron
ENCODING 299
SWIDTH 234 0
DWIDTH 4 0
BBX 6 11 -1 0
BITMAP
7FD0
0000
0E00
0E00
0E00
0E00
0E00
0E00
0E00
0E00
0E00
ENDCHAR
STARTCHAR Ibreve
ENCODING 300
SWIDTH 250 0
DWIDTH 4 0
BBX 6 15 -1 0
BITMAP
70D0
2F80
0000
0A00
0A00
0A00
0A00
0A00
0A00
0A00
0A00
0A00
0A00
0A00
0A00
ENDCHAR
STARTCHAR ibreve
ENCODING 301
SWIDTH 234 0
DWIDTH 4 0
BBX 5 12 -1 0
BITMAP
71C0
2F40
0000
0E00
0E00
0E00
0E00
0E00
0E00
0E00
0E00
0E00
ENDCHAR
STARTCHAR Iogonek
ENCODING 302
SWIDTH 250 0
DWIDTH 4 0
BBX 3 15 0 -3
BITMAP
28
28
28
28
28
28
28
28
28
28
28
3C
70
A0
78
ENDCHAR
STARTCHAR iogonek
ENCODING 303
SWIDTH 229 0
DWIDTH 4 0
BBX 3 15 0 -3
BITMAP
14
24
00
38
38
38
38
38
38
38
38
38
60
90
B4
ENDCHAR
STARTCHAR Idotaccent
ENCODING 304
SWIDTH 250 0
DWIDTH 4 0
BBX 2 15 1 0
BITMAP
50
A0
00
A0
A0
A0
A0
A0
A0
A0
A0
A0
A0
A0
A0
ENDCHAR
STARTCHAR dotlessi
ENCODING 305
SWIDTH 234 0
DWIDTH 4 0
BBX 2 9 1 0
BITMAP
E0
E0
E0
E0
E0
E0
E0
E0
E0
ENDCHAR
STARTCHAR IJ
ENCODING 306
SWIDTH 733 0
DWIDTH 12 0
BBX 10 12 1 0
BITMAP
A000E0
A000E0
A000E0
A000E0
A000E0
A000E0
A000E0
A000E0
A040E0
A1C0D0
A0E6C0
A06E40
ENDCHAR
STARTCHAR ij
ENCODING 307
SWIDTH 452 0
DWIDTH 7 0
BBX 5 15 1 -3
BITMAP
5080
91C0
0000
E1C0
E1C0
E1C0
E1C0
E1C0
E1C0
E1C0
E1C0
E1C0
01C0
02C0
0740
ENDCHAR
STARTCHAR Jcircumflex
ENCODING 308
SWIDTH 483 0
DWIDTH 8 0
BBX 8 15 0 0
BITMAP
0078
0099
0000
0038
0038
0038
0038
0038
0038
0038
0038
1038
7034
39B0
1B90
ENDCHAR
STARTCHAR jcircumflex
ENCODING 309
SWIDTH 237 0
DWIDTH 4 0
BBX 5 15 -1 -3
BITMAP
0E00
2580
0000
0A00
0A00
0A00
0A00
0A00
0A00
0A00
0A00
0A00
0A00
1D00
7800
ENDCHAR
STARTCHAR uni0136
ENCODING 310
SWIDTH 544 0
DWIDTH 9 0
BBX 8 15 1 -3
BITMAP
A02C
A074
A0E0
A2C0
A740
AF00
BB40
B2C0
A0E0
A074
A038
A01D
0340
0700
0600
ENDCHAR
STARTCHAR uni0137
ENCODING 311
SWIDTH 450 0
DWIDTH 7 0
BBX 6 15 1 -3
BITMAP
D000
D000
D000
D1D0
D380
DB00
ED00
FD00
EB00
D380
D1D0
D0A0
0D00
0C00
1800
ENDCHAR
STARTCHAR kgreenlandic
ENCODING 312
SWIDTH 491 0
DWIDTH 8 0
BBX 6 9 1 0
BITMAP
E0A0
E1D0
E380
EB00
FD00
EB00
E380
E1D0
E0B0
ENDCHAR
STARTCHAR Lacute
ENCODING 313
SWIDTH 475 0
DWIDTH 8 0
BBX 6 15 1 0
BITMAP
2800
6000
0000
A000
A000
A000
A000
A000
A000
A000
A000
A000
A000
A550
BFF0
ENDCHAR
STARTCHAR lacute
ENCODING 314
SWIDTH 229 0
DWIDTH 4 0
BBX 3 15 1 0
BITMAP
38
A0
00
E0
E0
E0
E0
E0
E0
E0
E0
E0
E0
E0
E0
ENDCHAR
STARTCHAR uni013B
ENCODING 315
SWIDTH 475 0
DWIDTH 8 0
BBX 6 16 1 -4
BITMAP
A000
A000
A000
A000
A000
A000
A000
A000
A000
A000
A550
BFF0
0000
0700
0A00
0900
ENDCHAR
STARTCHAR uni013C
ENCODING 316
SWIDTH 229 0
DWIDTH 4 0
BBX 2 16 1 -4
BITMAP
E0
E0
E0
E0
E0
E0
E0
E0
E0
E0
E0
E0
00
90
D0
80
ENDCHAR
STARTCHAR Lcaron
ENCODING 317
SWIDTH 475 0
DWIDTH 8 0
BBX 6 12 1 0
BITMAP
A280
A280
A200
A000
A000
A000
A000
A000
A000
A000
A550
BFF0
ENDCHAR
STARTCHAR lcaron
ENCODING 318
SWIDTH 302 0
DWIDTH 5 0
BBX 4 12 1 0
BITMAP
E7
EA
E9
E0
E0
E0
E0
E0
E0
E0
E0
E0
ENDCHAR
STARTCHAR Ldot
ENCODING 319
SWIDTH 475 0
DWIDTH 8 0
BBX 6 12 1 0
BITMAP
A000
A000
A000
A000
A140
A240
A000
A000
A000
A000
A550
BFF0
ENDCHAR
STARTCHAR ldot
ENCODING 320
SWIDTH 336 0
DWIDTH 5 0
BBX 4 12 1 0
BITMAP
E0
E0
E0
E0
E0
E5
EA
E0
E0
E0
E0
E0
ENDCHAR
STARTCHAR Lslash
ENCODING 321
SWIDTH 475 0
DWIDTH 8 0
BBX 7 12 0 0
BITMAP
2800
2800
2800
2800
2A40
7D00
6800
2800
2800
2800
2954
2FFC
ENDCHAR
STARTCHAR lslash
ENCODING 322
SWIDTH 250 0
DWIDTH 4 0
BBX 4 12 0 0
BITMAP
28
28
28
28
28
2E
78
68
28
28
28
28
ENDCHAR
STARTCHAR Nacute
ENCODING 323
SWIDTH 619 0
DWIDTH 10 0
BBX 8 15 1 0
BITMAP
00A0
0180
0000
B00A
B40A
BC0A
AD0A
A70A
A34A
A1CA
A0DA
A0BA
A03E
A02E
A00E
ENDCHAR
STARTCHAR nacute
ENCODING 324
SWIDTH 483 0
DWIDTH 8 0
BBX 6 12 1 0
BITMAP
0280
0600
0000
EB80
F5D0
E0A0
D0A0
D0A0
D0A0
D0A0
D0A0
D0A0
ENDCHAR
STARTCHAR uni0145
ENCODING 325
SWIDTH 619 0
DWIDTH 10 0
BBX 8 16 1 -4
BITMAP
B00A
B40A
BC0A
AD0A
A70A
A34A
A1CA
A0DA
A0BA
A03E
A02E
A00E
0000
0280
0340
0200
ENDCHAR
STARTCHAR uni0146
ENCODING 326
SWIDTH 483 0
DWIDTH 8 0
BBX 6 13 1 -4
BITMAP
EB80
F5D0
E0A0
D0A0
D0A0
D0A0
D0A0
D0A0
D0A0
0000
0D00
0D00
0800
ENDCHAR
STARTCHAR Ncaron
ENCODING 327
SWIDTH 619 0
DWIDTH 10 0
BBX 8 15 1 0
BITMAP
09A0
0280
0000
B00A
B40A
BC0A
AD0A
A70A
A34A
A1CA
A0DA
A0BA
A03E
A02E
A00E
ENDCHAR
STARTCHAR ncaron
ENCODING 328
SWIDTH 483 0
DWIDTH 8 0
BBX 6 12 1 0
BITMAP
2680
0A00
0000
EB80
F5D0
E0A0
D0A0
D0A0
D0A0
D0A0
D0A0
D0A0
ENDCHAR
STARTCHAR napostrophe
ENCODING 329
SWIDTH 483 0
DWIDTH 8 0
BBX 7 12 0 0
BITMAP
D000
D000
8000
3AE0
3D74
3828
3428
3428
3428
3428
3428
3428
ENDCHAR
STARTCHAR Eng
ENCODING 330
SWIDTH 599 0
DWIDTH 10 0
BBX 8 15 1 -3
BITMAP
B00D
B40D
B80D
AD0D
AA0D
A34D
A28D
A0DD
A0AD
A03D
A02D
A00D
000D
001D
0078
ENDCHAR
STARTCHAR eng
ENCODING 331
SWIDTH 498 0
DWIDTH 8 0
BBX 6 12 1 -3
BITMAP
DB80
F5E0
D0A0
D0B0
D0B0
D0B0
D0B0
D0B0
D0B0
00A0
01E0
0380
ENDCHAR
STARTCHAR Omacron
ENCODING 332
SWIDTH 600 0
DWIDTH 10 0
BBX 8 14 1 0
BITMAP
1FF0
0000
1BE0
3978
B01D
E00D
D00E
D00A
D00A
D00E
E00D
B01D
3978
1BE0
ENDCHAR
STARTCHAR omacron
ENCODING 333
SWIDTH 501 0
DWIDTH 8 0
BBX 8 11 0 0
BITMAP
1FF4
0000
0BE0
2D78
341C
740D
700D
740D
341C
2D78
0BE0
ENDCHAR
STARTCHAR Obreve
ENCODING 334
SWIDTH 600 0
DWIDTH 10 0
BBX 8 15 1 0
BITMAP
1C70
0BD0
0000
1BE0
3978
B01D
E00D
D00E
D00A
D00A
D00E
E00D
B01D
3978
1BE0
ENDCHAR
STARTCHAR obreve
ENCODING 335
SWIDTH 501 0
DWIDTH 8 0
BBX 8 12 0 0
BITMAP
1C34
0BD0
0000
0BE0
2D78
341C
740D
700D
740D
341C
2D78
0BE0
ENDCHAR
STARTCHAR Ohungarumlaut
ENCODING 336
SWIDTH 600 0
DWIDTH 10 0
BBX 8 15 1 0
BITMAP
0778
0AA0
0000
1BE0
3978
B01D
E00D
D00E
D00A
D00A
D00E
E00D
B01D
3978
1BE0
ENDCHAR
STARTCHAR ohungarumlaut
ENCODING 337
SWIDTH 501 0
DWIDTH 8 0
BBX 8 12 0 0
BITMAP
0368
0660
0000
0BE0
2D78
341C
740D
700D
740D
341C
2D78
0BE0
ENDCHAR
STARTCHAR OE
ENCODING 338
SWIDTH 826 0
DWIDTH 13 0
BBX 12 12 0 0
BITMAP
06FFFF
1E5D55
280D00
340D00
340D00
740FFD
740D54
340D00
340D00
280D00
1E5D55
06FFFF
ENDCHAR
STARTCHAR oe
ENCODING 339
SWIDTH 777 0
DWIDTH 12 0
BBX 12 9 0 0
BITMAP
0BE1F4
1D7B5D
382E0A
341D0A
741FFF
341D54
342E00
1D7B59
0BE1F8
ENDCHAR
STARTCHAR Racute
ENCODING 340
SWIDTH 530 0
DWIDTH 9 0
BBX 7 15 1 0
BITMAP
02D0
0700
0000
BF90
A5B4
A028
A028
A028
A074
BFE0
A5D0
A0A0
A074
A038
A02C
ENDCHAR
STARTCHAR racute
ENCODING 341
SWIDTH 304 0
DWIDTH 5 0
BBX 4 12 1 0
BITMAP
0E
28
00
ED
F9
E0
D0
D0
D0
D0
D0
D0
ENDCHAR
STARTCHAR uni0156
ENCODING 342
SWIDTH 530 0
DWIDTH 9 0
BBX 7 16 1 -4
BITMAP
BF90
A5B4
A028
A028
A028
A074
BFE0
A5D0
A0A0
A074
A038
A02C
0000
0600
0A00
0900
ENDCHAR
STARTCHAR uni0157
ENCODING 343
SWIDTH 304 0
DWIDTH 5 0
BBX 4 13 1 -4
BITMAP
ED
F9
E0
D0
D0
D0
D0
D0
D0
00
D0
D0
80
ENDCHAR
STARTCHAR Rcaron
ENCODING 344
SWIDTH 530 0
DWIDTH 9 0
BBX 7 15 1 0
BITMAP
2980
0B00
0000
BF90
A5B4
A028
A028
A028
A074
BFE0
A5D0
A0A0
A074
A038
A02C
ENDCHAR
STARTCHAR rcaron
ENCODING 345
SWIDTH 304 0
DWIDTH 5 0
BBX 4 12 1 0
BITMAP
9A
38
00
ED
F9
E0
D0
D0
D0
D0
D0
D0
ENDCHAR
STARTCHAR Sacute
ENCODING 346
SWIDTH 518 0
DWIDTH 8 0
BBX 8 15 0 0
BITMAP
00B4
01D0
0000
0BE4
2D6C
380D
3405
2D00
0F90
01F8
001D
100E
740E
2D6D
0BE4
ENDCHAR
STARTCHAR sacute
ENCODING 347
SWIDTH 455 0
DWIDTH 7 0
BBX 6 12 1 0
BITMAP
0280
0600
0000
2F40
A6D0
D090
B400
2F40
02D0
90D0
E5D0
2F40
ENDCHAR
STARTCHAR Scircumflex
ENCODING 348
SWIDTH 518 0
DWIDTH 8 0
BBX 8 15 0 0
BITMAP
02D0
0660
0000
0BE4
2D6C
380D
3405
2D00
0F90
01F8
001D
100E
740E
2D6D
0BE4
ENDCHAR
STARTCHAR scircumflex
ENCODING 349
SWIDTH 455 0
DWIDTH 7 0
BBX 6 12 1 0
BITMAP
1E00
2680
0000
2F40
A6D0
D090
B400
2F40
02D0
90D0
E5D0
2F40
ENDCHAR
STARTCHAR Scedilla
ENCODING 350
SWIDTH 518 0
DWIDTH 8 0
BBX 8 15 0 -3
BITMAP
0BE4
2D6C
380D
3405
2D00
0F90
01F8
001D
100E
740E
2D6D
0BE4
0180
0090
01D0
ENDCHAR
STARTCHAR scedilla
ENCODING 351
SWIDTH 455 0
DWIDTH 7 0
BBX 6 12 1 -3
BITMAP
2F40
A6D0
D090
B400
2F40
02D0
90D0
E5D0
2F40
0900
0200
0A00
ENDCHAR
STARTCHAR Scaron
ENCODING 352
SWIDTH 518 0
DWIDTH 8 0
BBX 8 15 0 0
BITMAP
0670
02C0
0000
0BE4
2D6C
380D
3405
2D00
0F90
01F8
001D
100E
740E
2D6D
0BE4
ENDCHAR
STARTCHAR scaron
ENCODING 353
SWIDTH 455 0
DWIDTH 7 0
BBX 6 12 1 0
BITMAP
2680
0A00
0000
2F40
A6D0
D090
B400
2F40
02D0
90D0
E5D0
2F40
ENDCHAR
STARTCHAR uni0162
ENCODING 354
SWIDTH 520 0
DWIDTH 8 0
BBX 8 15 0 -3
BITMAP
BFFF
16D5
02C0
02C0
02C0
02C0
02C0
02C0
02C0
02C0
02C0
02C0
0180
0090
01D0
ENDCHAR
STARTCHAR uni0163
ENCODING 355
SWIDTH 295 0
DWIDTH 5 0
BBX 5 14 0 -3
BITMAP
2C00
2C00
BF00
2C00
2C00
2C00
2C00
2C00
2C00
1D00
0B00
0600
0240
0740
ENDCHAR
STARTCHAR Tcaron
ENCODING 356
SWIDTH 520 0
DWIDTH 8 0
BBX 8 15 0 0
BITMAP
0A60
02C0
0000
BFFF
16D5
02C0
02C0
02C0
02C0
02C0
02C0
02C0
02C0
02C0
02C0
ENDCHAR
STARTCHAR tcaron
ENCODING 357
SWIDTH 314 0
DWIDTH 5 0
BBX 6 13 0 0
BITMAP
00D0
00C0
2D80
2C00
BF00
2C00
2C00
2C00
2C00
2C00
2C00
1D00
0B00
ENDCHAR
STARTCHAR Tbar
ENCODING 358
SWIDTH 520 0
DWIDTH 8 0
BBX 8 12 0 0
BITMAP
BFFF
16D5
02C0
02C0
0FF4
02D0
02C0
02C0
02C0
02C0
02C0
02C0
ENDCHAR
STARTCHAR tbar
ENCODING 359
SWIDTH 295 0
DWIDTH 5 0
BBX 5 11 0 0
BITMAP
2C00
2C00
BF00
2C00
2C00
FF40
6D00
2C00
2C00
1D00
0B00
ENDCHAR
STARTCHAR Utilde
ENCODING 360
SWIDTH 561 0
DWIDTH 9 0
BBX 7 15 1 0
BITMAP
1E60
26D0
0000
D01C
D01C
D01C
D01C
D01C
D01C
D01C
D01C
D01C
A02C
7574
1FD0
ENDCHAR
STARTCHAR utilde
ENCODING 361
SWIDTH 483 0
DWIDTH 8 0
BBX 6 12 1 0
BITMAP
39C0
6780
0000
D0A0
D0A0
D0A0
D0A0
D0A0
D0A0
D0A0
B6E0
2EA0
ENDCHAR
STARTCHAR Umacron
ENCODING 362
SWIDTH 561 0
DWIDTH 9 0
BBX 7 12 1 0
BITMAP
FFFC
D01C
D01C
D01C
D01C
D01C
D01C
D01C
D01C
A02C
7574
1FD0
ENDCHAR
STARTCHAR umacron
ENCODING 363
SWIDTH 483 0
DWIDTH 8 0
BBX 6 11 1 0
BITMAP
7FD0
0000
D0A0
D0A0
D0A0
D0A0
D0A0
D0A0
D0A0
B6E0
2EA0
ENDCHAR
STARTCHAR Ubreve
ENCODING 364
SWIDTH 561 0
DWIDTH 9 0
BBX 7 15 1 0
BITMAP
28A0
1B90
0000
D01C
D01C
D01C
D01C
D01C
D01C
D01C
D01C
D01C
A02C
7574
1FD0
ENDCHAR
STARTCHAR ubreve
ENCODING 365
SWIDTH 483 0
DWIDTH 8 0
BBX 6 12 1 0
BITMAP
71C0
2F40
0000
D0A0
D0A0
D0A0
D0A0
D0A0
D0A0
D0A0
B6E0
2EA0
ENDCHAR
STARTCHAR Uring
ENCODING 366
SWIDTH 561 0
DWIDTH 9 0
BBX 7 16 1 0
BITMAP
0A80
0880
0A80
0000
D01C
D01C
D01C
D01C
D01C
D01C
D01C
D01C
D01C
A02C
7574
1FD0
ENDCHAR
STARTCHAR uring
ENCODING 367
SWIDTH 483 0
DWIDTH 8 0
BBX 6 13 1 0
BITMAP
1A00
2140
1A00
0000
D0A0
D0A0
D0A0
D0A0
D0A0
D0A0
D0A0
B6E0
2EA0
ENDCHAR
STARTCHAR Uhungarumlaut
ENCODING 368
SWIDTH 561 0
DWIDTH 9 0
BBX 7 15 1 0
BITMAP
0B74
0990
0000
D01C
D01C
D01C
D01C
D01C
D01C
D01C
D01C
D01C
A02C
7574
1FD0
ENDCHAR
STARTCHAR uhungarumlaut
ENCODING 369
SWIDTH 483 0
DWIDTH 8 0
BBX 6 12 1 0
BITMAP
1DE0
2A80
0000
D0A0
D0A0
D0A0
D0A0
D0A0
D0A0
D0A0
B6E0
2EA0
ENDCHAR
STARTCHAR Uogonek
ENCODING 370
SWIDTH 561 0
DWIDTH 9 0
BBX 7 15 1 -3
BITMAP
D01C
D01C
D01C
D01C
D01C
D01C
D01C
D01C
D01C
A02C
7574
1FD0
0280
0340
02D0
ENDCHAR
STARTCHAR uogonek
ENCODING 371
SWIDTH 483 0
DWIDTH 8 0
BBX 6 12 1 -3
BITMAP
D0A0
D0A0
D0A0
D0A0
D0A0
D0A0
D0A0
B6E0
2EA0
01C0
0280
01E0
ENDCHAR
STARTCHAR Wcircumflex
ENCODING 372
SWIDTH 761 0
DWIDTH 12 0
BBX 12 15 0 0
BITMAP
002D00
006600
000000
702C0A
342C0D
343D0D
283A1C
28661C
1CA728
1C9328
0DC274
0EC2B0
0B81F0
0740E0
0740E0
ENDCHAR
STARTCHAR wcircumflex
ENCODING 373
SWIDTH 649 0
DWIDTH 10 0
BBX 10 12 0 0
BITMAP
00B400
029800
000000
707070
70B0A0
34F4D0
25E8D0
299DC0
1E4E80
0F4B40
0F0B40
0A0700
ENDCHAR
STARTCHAR Ycircumflex
ENCODING 374
SWIDTH 524 0
DWIDTH 8 0
BBX 8 15 0 0
BITMAP
02D0
0660
0000
B00B
340D
281C
1D38
0E74
07A0
03D0
02C0
02C0
02C0
02C0
02C0
ENDCHAR
STARTCHAR ycircumflex
ENCODING 375
SWIDTH 416 0
DWIDTH 7 0
BBX 7 15 0 -3
BITMAP
0B40
1890
0000
B074
7070
34A0
28D0
1DC0
0E80
0B80
0B40
0700
0A00
1D00
7800
ENDCHAR
STARTCHAR Ydieresis
ENCODING 376
SWIDTH 524 0
DWIDTH 8 0
BBX 8 15 0 0
BITMAP
0814
0D28
0000
B00B
340D
281C
1D38
0E74
07A0
03D0
02C0
02C0
02C0
02C0
02C0
ENDCHAR
STARTCHAR Zacute
ENCODING 377
SWIDTH 522 0
DWIDTH 8 0
BBX 8 15 0 0
BITMAP
00B4
01D0
0000
7FFD
155D
0028
0074
00E0
01C0
0380
0700
0E00
2C00
3954
7FFE
ENDCHAR
STARTCHAR zacute
ENCODING 378
SWIDTH 438 0
DWIDTH 7 0
BBX 7 12 0 0
BITMAP
01D0
0240
0000
7FF4
15B0
00D0
0280
0740
0E00
1C00
3950
7FF4
ENDCHAR
STARTCHAR Zdotaccent
ENCODING 379
SWIDTH 522 0
DWIDTH 8 0
BBX 8 15 0 0
BITMAP
0180
01C0
0000
7FFD
155D
0028
0074
00E0
01C0
0380
0700
0E00
2C00
3954
7FFE
ENDCHAR
STARTCHAR zdotaccent
ENCODING 380
SWIDTH 438 0
DWIDTH 7 0
BBX 7 12 0 0
BITMAP
0200
0740
0000
7FF4
15B0
00D0
0280
0740
0E00
1C00
3950
7FF4
ENDCHAR
STARTCHAR Zcaron
ENCODING 381
SWIDTH 522 0
DWIDTH 8 0
BBX 8 15 0 0
BITMAP
0A70
02C0
0000
7FFD
155D
0028
0074
00E0
01C0
0380
0700
0E00
2C00
3954
7FFE
ENDCHAR
STARTCHAR zcaron
ENCODING 382
SWIDTH 438 0
DWIDTH 7 0
BBX 7 12 0 0
BITMAP
1CD0
0740
0000
7FF4
15B0
00D0
0280
0740
0E00
1C00
3950
7FF4
ENDCHAR
STARTCHAR longs
ENCODING 383
SWIDTH 234 0
DWIDTH 4 0
BBX 4 12 1 0
BITMAP
2D
B4
A0
A0
A0
A0
A0
A0
A0
A0
A0
A0
ENDCHAR
STARTCHAR uni018F
ENCODING 399
SWIDTH 597 0
DWIDTH 10 0
BBX 9 12 0 0
BITMAP
0BE400
096D00
000B00
000340
000380
000280
7FFF80
755780
340340
380700
1E5D00
06F400
ENDCHAR
STARTCHAR florin
ENCODING 402
SWIDTH 309 0
DWIDTH 5 0
BBX 5 15 0 -3
BITMAP
0B80
1D40
1C00
BF40
2C00
1C00
1C00
1C00
1C00
1C00
1C00
1C00
1C00
6800
E400
ENDCHAR
STARTCHAR Ohorn
ENCODING 416
SWIDTH 592 0
DWIDTH 9 0
BBX 10 13 0 0
BITMAP
0000A0
06F4D0
0E6F80
280B00
340740
340340
740380
740380
340340
340340
280B00
0E6D00
06F400
ENDCHAR
STARTCHAR ohorn
ENCODING 417
SWIDTH 502 0
DWIDTH 8 0
BBX 8 10 0 0
BITMAP
0002
0BE7
1D7D
341C
341D
700D
341C
341C
1D78
0BE0
ENDCHAR
STARTCHAR Uhorn
ENCODING 431
SWIDTH 608 0
DWIDTH 10 0
BBX 10 13 1 0
BITMAP
000040
D01C90
D01DD0
D01F40
D01C00
D01C00
D01C00
D01C00
D01C00
D01C00
A02800
79B400
1FD000
ENDCHAR
STARTCHAR uhorn
ENCODING 432
SWIDTH 549 0
DWIDTH 9 0
BBX 8 10 1 0
BITMAP
0006
D0A6
D0B8
D0A0
D0A0
D0A0
D0A0
D0A0
B6E0
2EA0
ENDCHAR
STARTCHAR uni01F0
ENCODING 496
SWIDTH 237 0
DWIDTH 4 0
BBX 5 15 -1 -3
BITMAP
2580
0A00
0000
0A00
0A00
0A00
0A00
0A00
0A00
0A00
0A00
0A00
0A00
1D00
7800
ENDCHAR
STARTCHAR Aringacute
ENCODING 506
SWIDTH 576 0
DWIDTH 9 0
BBX 9 15 0 0
BITMAP
006000
01D000
016000
01F000
01E000
02B000
037400
072800
0A1C00
0D1D00
1D0E00
2FFF00
395700
740340
B00280
ENDCHAR
STARTCHAR aringacute
ENCODING 507
SWIDTH 479 0
DWIDTH 8 0
BBX 6 13 1 0
BITMAP
0240
0A00
0A00
0A00
2F80
B5D0
90E0
00A0
2FE0
A4A0
D0A0
E6E0
7EA0
ENDCHAR
STARTCHAR AEacute
ENCODING 508
SWIDTH 812 0
DWIDTH 13 0
BBX 13 15 0 0
BITMAP
000B4000
001D0000
00000000
001FFF40
003E5500
007A0000
00EA0000
01CA0000
038BFE00
074B5400
0F0B0000
1FFF0000
2D5B0000
74075500
B007FF80
ENDCHAR
STARTCHAR aeacute
ENCODING 509
SWIDTH 728 0
DWIDTH 12 0
BBX 11 12 0 0
BITMAP
000E00
002800
000000
0BD7E0
29BD74
34381C
00341C
1BFFFC
393400
703800
35BD58
1F87F4
ENDCHAR
STARTCHAR Oslashacute
ENCODING 510
SWIDTH 600 0
DWIDTH 10 0
BBX 8 16 1 -1
BITMAP
00E0
0280
0001
0BD9
39BC
B02C
A03D
D09A
D0CA
D24A
D60E
A90D
B81C
3D78
6BE0
5000
ENDCHAR
STARTCHAR oslashacute
ENCODING 511
SWIDTH 498 0
DWIDTH 8 0
BBX 8 13 0 -1
BITMAP
00E0
0280
0014
0BF0
1D78
34AC
349D
718D
361C
3A1C
1E74
0FE0
1400
ENDCHAR
STARTCHAR uni0218
ENCODING 536
SWIDTH 518 0
DWIDTH 8 0
BBX 8 16 0 -4
BITMAP
0BE4
2D6C
380D
3405
2D00
0F90
01F8
001D
100E
740E
2D6D
0BE4
0000
01C0
0280
0240
ENDCHAR
STARTCHAR uni0219
ENCODING 537
SWIDTH 455 0
DWIDTH 7 0
BBX 6 13 1 -4
BITMAP
2F40
A6D0
D090
B400
2F40
02D0
90D0
E5D0
2F40
0000
0A00
0D00
0800
ENDCHAR
STARTCHAR uni021A
ENCODING 538
SWIDTH 520 0
DWIDTH 8 0
BBX 8 16 0 -4
BITMAP
BFFF
16D5
02C0
02C0
02C0
02C0
02C0
02C0
02C0
02C0
02C0
02C0
0000
01C0
0280
0240
ENDCHAR
STARTCHAR uni021B
ENCODING 539
SWIDTH 295 0
DWIDTH 5 0
BBX 4 15 0 -4
BITMAP
2C
2C
BF
2C
2C
2C
2C
2C
2C
1D
0B
00
06
0A
09
ENDCHAR
STARTCHAR uni0237
ENCODING 567
SWIDTH 237 0
DWIDTH 4 0
BBX 4 12 -1 -3
BITMAP
0A
0A
0A
0A
0A
0A
0A
0A
0A
0A
1D
78
ENDCHAR
STARTCHAR uni0259
ENCODING 601
SWIDTH 465 0
DWIDTH 7 0
BBX 7 9 0 0
BITMAP
1F90
25B0
0038
0028
7FF8
3568
3434
2DB0
0B90
ENDCHAR
STARTCHAR uni02BC
ENCODING 700
SWIDTH 194 0
DWIDTH 3 0
BBX 3 4 0 8
BITMAP
34
34
70
60
ENDCHAR
STARTCHAR circumflex
ENCODING 710
SWIDTH 428 0
DWIDTH 7 0
BBX 4 2 1 10
BITMAP
2D
66
ENDCHAR
STARTCHAR caron
ENCODING 711
SWIDTH 403 0
DWIDTH 6 0
BBX 4 2 1 10
BITMAP
A6
2C
ENDCHAR
STARTCHAR uni02C9
ENCODING 713
SWIDTH 414 0
DWIDTH 7 0
BBX 5 1 1 10
BITMAP
FF80
ENDCHAR
STARTCHAR breve
ENCODING 728
SWIDTH 426 0
DWIDTH 7 0
BBX 5 2 1 10
BITMAP
D280
7E00
ENDCHAR
STARTCHAR dotaccent
ENCODING 729
SWIDTH 242 0
DWIDTH 4 0
BBX 2 2 1 10
BITMAP
50
A0
ENDCHAR
STARTCHAR ring
ENCODING 730
SWIDTH 334 0
DWIDTH 5 0
BBX 4 3 1 9
BITMAP
A8
89
A8
ENDCHAR
STARTCHAR ogonek
ENCODING 731
SWIDTH 253 0
DWIDTH 4 0
BBX 3 4 0 -3
BITMAP
04
34
60
78
ENDCHAR
STARTCHAR tilde
ENCODING 732
SWIDTH 427 0
DWIDTH 7 0
BBX 5 2 1 10
BITMAP
B580
CB40
ENDCHAR
STARTCHAR hungarumlaut
ENCODING 733
SWIDTH 331 0
DWIDTH 5 0
BBX 5 2 1 10
BITMAP
A740
9D00
ENDCHAR
STARTCHAR uni02F3
ENCODING 755
SWIDTH 263 0
DWIDTH 4 0
BBX 3 3 1 -4
BITMAP
A0
A4
B0
ENDCHAR
STARTCHAR gravecomb
ENCODING 768
SWIDTH 0 0
DWIDTH 0 0
BBX 3 2 -6 10
BITMAP
74
18
ENDCHAR
STARTCHAR acutecomb
ENCODING 769
SWIDTH 0 0
DWIDTH 0 0
BBX 3 2 -4 10
BITMAP
74
90
ENDCHAR
STARTCHAR tildecomb
ENCODING 771
SWIDTH 0 0
DWIDTH 0 0
BBX 5 3 -6 10
BITMAP
0040
79C0
9740
ENDCHAR
STARTCHAR hookabovecomb
ENCODING 777
SWIDTH 0 0
DWIDTH 0 0
BBX 3 3 -5 10
BITMAP
74
28
70
ENDCHAR
STARTCHAR uni030F
ENCODING 783
SWIDTH 0 0
DWIDTH 0 0
BBX 5 2 -6 10
BITMAP
AA00
2A40
ENDCHAR
STARTCHAR dotbelowcomb
ENCODING 803
SWIDTH 0 0
DWIDTH 0 0
BBX 2 2 -6 -3
BITMAP
70
60
ENDCHAR
STARTCHAR tonos
ENCODING 900
SWIDTH 256 0
DWIDTH 4 0
BBX 2 3 1 10
BITMAP
70
60
50
ENDCHAR
STARTCHAR dieresistonos
ENCODING 901
SWIDTH 452 0
DWIDTH 7 0
BBX 5 3 1 10
BITMAP
0A00
8980
D1C0
ENDCHAR
STARTCHAR Alphatonos
ENCODING 902
SWIDTH 576 0
DWIDTH 9 0
BBX 9 13 0 0
BITMAP
1C0000
28D000
15E000
02B000
037400
072800
0A1C00
0D1D00
1D0E00
2FFF00
395700
740340
B00280
ENDCHAR
STARTCHAR anoteleia
ENCODING 903
SWIDTH 243 0
DWIDTH 4 0
BBX 2 2 1 5
BITMAP
A0
50
ENDCHAR
STARTCHAR Epsilontonos
ENCODING 904
SWIDTH 496 0
DWIDTH 8 0
BBX 10 13 -2 0
BITMAP
340000
72FFD0
629540
028000
028000
028000
02FF80
029500
028000
028000
028000
029540
02FFD0
ENDCHAR
STARTCHAR Etatonos
ENCODING 905
SWIDTH 620 0
DWIDTH 10 0
BBX 11 13 -2 0
BITMAP
340000
728028
628028
028028
028028
028028
02FFF8
029568
028028
028028
028028
028028
028028
ENDCHAR
STARTCHAR Iotatonos
ENCODING 906
SWIDTH 250 0
DWIDTH 4 0
BBX 5 13 -2 0
BITMAP
3400
3280
6280
0280
0280
0280
0280
0280
0280
0280
0280
0280
0280
ENDCHAR
STARTCHAR Omicrontonos
ENCODING 908
SWIDTH 610 0
DWIDTH 10 0
BBX 9 13 0 0
BITMAP
D00000
C2F800
8F5F00
1C0340
280280
380280
380280
380280
380280
280280
1C0340
0E5F00
02F800
ENDCHAR
STARTCHAR Upsilontonos
ENCODING 910
SWIDTH 573 0
DWIDTH 9 0
BBX 11 13 -2 0
BITMAP
700000
628038
51D074
00E0B0
0070D0
0035C0
002A80
001F00
000A00
000A00
000A00
000A00
000A00
ENDCHAR
STARTCHAR Omegatonos
ENCODING 911
SWIDTH 591 0
DWIDTH 9 0
BBX 9 13 0 0
BITMAP
D00000
C2F400
8E5D00
1C0B00
280740
380340
340340
380340
380340
280700
1C0A00
1B6D00
3F7F40
ENDCHAR
STARTCHAR iotadieresistonos
ENCODING 912
SWIDTH 299 0
DWIDTH 5 0
BBX 6 13 -1 0
BITMAP
0340
5650
7060
0000
0B00
0B00
0B00
0B00
0B00
0B00
0B00
0740
02C0
ENDCHAR
STARTCHAR Alpha
ENCODING 913
SWIDTH 576 0
DWIDTH 9 0
BBX 9 12 0 0
BITMAP
00D000
01E000
02B000
037400
072800
0A1C00
0D1D00
1D0E00
2FFF00
395700
740340
B00280
ENDCHAR
STARTCHAR Beta
ENCODING 914
SWIDTH 545 0
DWIDTH 9 0
BBX 7 12 1 0
BITMAP
BFD0
A5B4
A038
A038
A074
BFE0
A574
A028
A028
A028
A5B4
BFD0
ENDCHAR
STARTCHAR Gamma
ENCODING 915
SWIDTH 487 0
DWIDTH 8 0
BBX 7 12 1 0
BITMAP
BFF4
A550
A000
A000
A000
A000
A000
A000
A000
A000
A000
A000
ENDCHAR
STARTCHAR Delta.dup1
ENCODING 916
SWIDTH 614 0
DWIDTH 10 0
BBX 10 12 0 0
BITMAP
00A000
00F000
01F400
02A800
035C00
070D00
0A0A00
0D0700
1C0740
380380
7556C0
BFFFD0
ENDCHAR
STARTCHAR Epsilon
ENCODING 917
SWIDTH 496 0
DWIDTH 8 0
BBX 7 12 1 0
BITMAP
BFF4
A550
A000
A000
A000
BFE0
A540
A000
A000
A000
A550
BFF4
ENDCHAR
STARTCHAR Zeta
ENCODING 918
SWIDTH 522 0
DWIDTH 8 0
BBX 8 12 0 0
BITMAP
7FFD
155D
0028
0074
00E0
01C0
0380
0700
0E00
2C00
3954
7FFE
ENDCHAR
STARTCHAR Eta
ENCODING 919
SWIDTH 620 0
DWIDTH 10 0
BBX 8 12 1 0
BITMAP
A00A
A00A
A00A
A00A
A00A
BFFE
A55A
A00A
A00A
A00A
A00A
A00A
ENDCHAR
STARTCHAR Theta
ENCODING 920
SWIDTH 593 0
DWIDTH 10 0
BBX 9 12 0 0
BITMAP
06F400
0E6D00
2C0B00
340340
340340
77F780
745380
340340
340340
2C0700
0E5D00
06F400
ENDCHAR
STARTCHAR Iota
ENCODING 921
SWIDTH 250 0
DWIDTH 4 0
BBX 2 12 1 0
BITMAP
A0
A0
A0
A0
A0
A0
A0
A0
A0
A0
A0
A0
ENDCHAR
STARTCHAR Kappa
ENCODING 922
SWIDTH 544 0
DWIDTH 9 0
BBX 8 12 1 0
BITMAP
A02C
A074
A0E0
A2C0
A740
AF00
BB40
B2C0
A0E0
A074
A038
A01D
ENDCHAR
STARTCHAR Lambda
ENCODING 923
SWIDTH 572 0
DWIDTH 9 0
BBX 9 12 0 0
BITMAP
01D000
02E000
02F000
03B400
073400
0A2800
0D1C00
1D0D00
2C0E00
380B00
340740
700380
ENDCHAR
STARTCHAR Mu
ENCODING 924
SWIDTH 755 0
DWIDTH 12 0
BBX 10 12 1 0
BITMAP
B400F0
B801F0
BC02F0
AC03B0
AD07B0
AA0AB0
A70DB0
A35CB0
A2A8B0
A1F4B0
A0F0B0
A0A0B0
ENDCHAR
STARTCHAR Nu
ENCODING 925
SWIDTH 619 0
DWIDTH 10 0
BBX 8 12 1 0
BITMAP
B00A
B40A
BC0A
AD0A
A70A
A34A
A1CA
A0DA
A0BA
A03E
A02E
A00E
ENDCHAR
STARTCHAR Xi
ENCODING 926
SWIDTH 502 0
DWIDTH 8 0
BBX 6 12 1 0
BITMAP
FFF0
5550
0000
0000
0000
BFE0
1540
0000
0000
0000
5550
FFF0
ENDCHAR
STARTCHAR Omicron
ENCODING 927
SWIDTH 600 0
DWIDTH 10 0
BBX 8 12 1 0
BITMAP
1BE0
3978
B01D
E00D
D00E
D00A
D00A
D00E
E00D
B01D
3978
1BE0
ENDCHAR
STARTCHAR Pi
ENCODING 928
SWIDTH 620 0
DWIDTH 10 0
BBX 8 12 1 0
BITMAP
BFFE
A55E
A00A
A00A
A00A
A00A
A00A
A00A
A00A
A00A
A00A
A00A
ENDCHAR
STARTCHAR Rho
ENCODING 929
SWIDTH 554 0
DWIDTH 9 0
BBX 8 12 1 0
BITMAP
BFE0
A578
A01C
A01D
A01C
A028
BFF4
A500
A000
A000
A000
A000
ENDCHAR
STARTCHAR Sigma
ENCODING 931
SWIDTH 502 0
DWIDTH 8 0
BBX 8 12 0 0
BITMAP
7FFC
3954
2C00
0E00
0740
02C0
02C0
0740
0E00
2C00
3954
7FFD
ENDCHAR
STARTCHAR Tau
ENCODING 932
SWIDTH 520 0
DWIDTH 8 0
BBX 8 12 0 0
BITMAP
BFFF
16D5
02C0
02C0
02C0
02C0
02C0
02C0
02C0
02C0
02C0
02C0
ENDCHAR
STARTCHAR Upsilon
ENCODING 933
SWIDTH 524 0
DWIDTH 8 0
BBX 8 12 0 0
BITMAP
B00B
340D
281C
1D38
0E74
07A0
03D0
02C0
02C0
02C0
02C0
02C0
ENDCHAR
STARTCHAR Phi
ENCODING 934
SWIDTH 621 0
DWIDTH 10 0
BBX 10 12 0 0
BITMAP
00A000
00A000
07FD00
2DA780
34A1C0
70A0D0
70A0D0
34A1C0
2DA780
0BFE00
00A000
00A000
ENDCHAR
STARTCHAR Chi
ENCODING 935
SWIDTH 550 0
DWIDTH 9 0
BBX 8 12 0 0
BITMAP
380B
2C0E
0D2C
0B38
03F0
02E0
02E0
07B0
0B38
1D2C
2C0E
740B
ENDCHAR
STARTCHAR Psi
ENCODING 936
SWIDTH 600 0
DWIDTH 10 0
BBX 9 12 0 0
BITMAP
70D280
70D280
70D280
70D280
70D280
74D280
34D340
2DDB00
0BFD00
01E000
00D000
00D000
ENDCHAR
STARTCHAR Omega.dup2
ENCODING 937
SWIDTH 581 0
DWIDTH 9 0
BBX 8 12 1 0
BITMAP
1B90
39B4
B028
E01C
D01D
D01D
D01D
D01C
A01C
7028
78B4
FDFD
ENDCHAR
STARTCHAR Iotadieresis
ENCODING 938
SWIDTH 250 0
DWIDTH 4 0
BBX 6 15 -1 0
BITMAP
6090
70D0
0000
0A00
0A00
0A00
0A00
0A00
0A00
0A00
0A00
0A00
0A00
0A00
0A00
ENDCHAR
STARTCHAR Upsilondieresis
ENCODING 939
SWIDTH 524 0
DWIDTH 8 0
BBX 8 15 0 0
BITMAP
0814
0D28
0000
B00B
340D
281C
1D38
0E74
07A0
03D0
02C0
02C0
02C0
02C0
02C0
ENDCHAR
STARTCHAR alphatonos
ENCODING 940
SWIDTH 494 0
DWIDTH 8 0
BBX 8 13 0 0
BITMAP
00D0
00C0
0080
0000
0B98
2D78
3828
3428
7428
3428
342C
2D7D
0B9E
ENDCHAR
STARTCHAR epsilontonos
ENCODING 941
SWIDTH 470 0
DWIDTH 8 0
BBX 7 13 0 0
BITMAP
01C0
0280
0240
0000
0BD0
2974
3424
3800
1FC0
3900
7414
3974
1BE0
ENDCHAR
STARTCHAR etatonos
ENCODING 942
SWIDTH 498 0
DWIDTH 8 0
BBX 6 16 1 -3
BITMAP
0700
0600
0500
0000
DB80
F5E0
E0A0
D0B0
D0B0
D0B0
D0B0
D0B0
D0B0
00B0
00B0
00B0
ENDCHAR
STARTCHAR iotatonos
ENCODING 943
SWIDTH 299 0
DWIDTH 5 0
BBX 3 13 1 0
BITMAP
34
30
20
00
B0
B0
B0
B0
B0
B0
B0
74
2C
ENDCHAR
STARTCHAR upsilondieresistonos
ENCODING 944
SWIDTH 480 0
DWIDTH 8 0
BBX 6 13 1 0
BITMAP
0A00
5980
90D0
0000
D0D0
D0E0
D0A0
D0B0
D070
D0A0
A0E0
B6C0
2F40
ENDCHAR
STARTCHAR alpha
ENCODING 945
SWIDTH 494 0
DWIDTH 8 0
BBX 8 9 0 0
BITMAP
0B98
2D78
3828
3428
7428
3428
342C
2D7D
0B9E
ENDCHAR
STARTCHAR beta
ENCODING 946
SWIDTH 517 0
DWIDTH 8 0
BBX 7 15 1 -3
BITMAP
1F80
75E0
A070
A070
A0A0
A7C0
A1A0
A034
A034
A034
B5B0
AB80
A000
A000
A000
ENDCHAR
STARTCHAR gamma
ENCODING 947
SWIDTH 444 0
DWIDTH 7 0
BBX 7 12 0 -3
BITMAP
7028
3434
2870
1CA0
1CD0
0EC0
0B80
0740
0340
0340
0340
0340
ENDCHAR
STARTCHAR delta
ENCODING 948
SWIDTH 498 0
DWIDTH 8 0
BBX 6 12 1 0
BITMAP
1F80
7540
7000
2D00
2FC0
B1E0
D0B0
D070
D070
D070
B5D0
2F80
ENDCHAR
STARTCHAR epsilon
ENCODING 949
SWIDTH 470 0
DWIDTH 8 0
BBX 7 9 0 0
BITMAP
0BD0
2974
3424
3800
1FC0
3900
7414
3974
1BE0
ENDCHAR
STARTCHAR zeta
ENCODING 950
SWIDTH 462 0
DWIDTH 7 0
BBX 6 15 1 -3
BITMAP
FFE0
55D0
0280
0700
0D00
2800
3400
7000
A000
B000
7400
2F80
01D0
01C0
0140
ENDCHAR
STARTCHAR eta
ENCODING 951
SWIDTH 498 0
DWIDTH 8 0
BBX 6 12 1 -3
BITMAP
DB80
F5E0
E0A0
D0B0
D0B0
D0B0
D0B0
D0B0
D0B0
00B0
00B0
00B0
ENDCHAR
STARTCHAR theta
ENCODING 952
SWIDTH 496 0
DWIDTH 8 0
BBX 6 12 1 0
BITMAP
2F40
75D0
A0A0
D070
D070
FFF0
D570
D070
D0B0
A0A0
75D0
1F40
ENDCHAR
STARTCHAR iota
ENCODING 953
SWIDTH 299 0
DWIDTH 5 0
BBX 3 9 1 0
BITMAP
B0
B0
B0
B0
B0
B0
B0
74
2C
ENDCHAR
STARTCHAR kappa
ENCODING 954
SWIDTH 491 0
DWIDTH 8 0
BBX 6 9 1 0
BITMAP
E0A0
E1D0
E380
EB00
FD00
EB00
E380
E1D0
E0B0
ENDCHAR
STARTCHAR lambda
ENCODING 955
SWIDTH 485 0
DWIDTH 8 0
BBX 8 12 0 0
BITMAP
2C00
1E00
0B00
0740
0780
0BC0
0ED0
1CE0
2CB0
3874
3438
701D
ENDCHAR
STARTCHAR uni03BC
ENCODING 956
SWIDTH 498 0
DWIDTH 8 0
BBX 6 12 1 -3
BITMAP
E0A0
E0A0
E0A0
E0A0
E0A0
E0A0
E0A0
F5E0
EFA0
E000
E000
E000
ENDCHAR
STARTCHAR nu
ENCODING 957
SWIDTH 427 0
DWIDTH 7 0
BBX 7 9 0 0
BITMAP
B034
7070
34A0
2890
1CD0
0DC0
0B80
0B40
0700
ENDCHAR
STARTCHAR xi
ENCODING 958
SWIDTH 431 0
DWIDTH 7 0
BBX 7 15 0 -3
BITMAP
0BF0
2D50
2800
1D00
0BE0
1D40
3400
3400
7400
3800
2D00
07E0
0074
0030
0060
ENDCHAR
STARTCHAR omicron
ENCODING 959
SWIDTH 501 0
DWIDTH 8 0
BBX 8 9 0 0
BITMAP
0BE0
2D78
341C
740D
700D
740D
341C
2D78
0BE0
ENDCHAR
STARTCHAR pi
ENCODING 960
SWIDTH 520 0
DWIDTH 8 0
BBX 8 9 0 0
BITMAP
BFFE
2D68
2C28
2C28
2C28
2C28
2C28
2C2D
2C1F
ENDCHAR
STARTCHAR rho
ENCODING 961
SWIDTH 498 0
DWIDTH 8 0
BBX 6 12 1 -3
BITMAP
1F80
75D0
A0B0
E070
D070
D070
D0B0
F5E0
EB80
D000
D000
D000
ENDCHAR
STARTCHAR sigma1
ENCODING 962
SWIDTH 472 0
DWIDTH 8 0
BBX 7 12 0 -3
BITMAP
0BD0
1D74
3828
3400
7400
3400
3800
1E00
06E0
0074
0070
0050
ENDCHAR
STARTCHAR sigma
ENCODING 963
SWIDTH 498 0
DWIDTH 8 0
BBX 8 9 0 0
BITMAP
0BFE
1D74
3828
341C
741C
341C
382C
1D74
0BD0
ENDCHAR
STARTCHAR tau
ENCODING 964
SWIDTH 460 0
DWIDTH 7 0
BBX 7 9 0 0
BITMAP
7FF8
1750
0340
0340
0340
0340
0340
0390
01E0
ENDCHAR
STARTCHAR upsilon
ENCODING 965
SWIDTH 480 0
DWIDTH 8 0
BBX 6 9 1 0
BITMAP
D0D0
D0E0
D0A0
D0B0
D070
D0A0
A0E0
B6C0
2F40
ENDCHAR
STARTCHAR phi
ENCODING 966
SWIDTH 617 0
DWIDTH 10 0
BBX 10 13 0 -4
BITMAP
187D00
28A740
34A2C0
70A1C0
70A1D0
74A1C0
38A280
1EEB40
07F900
00A000
00A000
00A000
00A000
ENDCHAR
STARTCHAR chi
ENCODING 967
SWIDTH 438 0
DWIDTH 7 0
BBX 7 12 0 -3
BITMAP
B438
2C70
0DA0
0AD0
07C0
0380
0780
0BC0
0DD0
1CA0
2834
742C
ENDCHAR
STARTCHAR psi
ENCODING 968
SWIDTH 612 0
DWIDTH 10 0
BBX 9 13 0 -4
BITMAP
70E380
70E280
70E1C0
70E1C0
70E1C0
34E1C0
38E280
1EEB40
07F900
00E000
00E000
00E000
00E000
ENDCHAR
STARTCHAR omega
ENCODING 969
SWIDTH 711 0
DWIDTH 11 0
BBX 10 9 1 0
BITMAP
700280
A001C0
E051D0
D0D0D0
D0D0D0
D0D0D0
E1E1D0
B6BBC0
2E1F40
ENDCHAR
STARTCHAR iotadieresis
ENCODING 970
SWIDTH 299 0
DWIDTH 5 0
BBX 5 12 0 0
BITMAP
8140
D280
0000
2C00
2C00
2C00
2C00
2C00
2C00
2C00
1D00
0B00
ENDCHAR
STARTCHAR upsilondieresis
ENCODING 971
SWIDTH 480 0
DWIDTH 8 0
BBX 6 12 1 0
BITMAP
5080
A1C0
0000
D0D0
D0E0
D0A0
D0B0
D070
D0A0
A0E0
B6C0
2F40
ENDCHAR
STARTCHAR omicrontonos
ENCODING 972
SWIDTH 501 0
DWIDTH 8 0
BBX 8 13 0 0
BITMAP
01C0
0180
0140
0000
0BE0
2D78
341C
740D
700D
740D
341C
2D78
0BE0
ENDCHAR
STARTCHAR upsilontonos
ENCODING 973
SWIDTH 480 0
DWIDTH 8 0
BBX 6 13 1 0
BITMAP
0700
0A00
0900
0000
D0D0
D0E0
D0A0
D0B0
D070
D0A0
A0E0
B6C0
2F40
ENDCHAR
STARTCHAR omegatonos
ENCODING 974
SWIDTH 711 0
DWIDTH 11 0
BBX 10 13 1 0
BITMAP
00A000
009000
009000
000000
700280
A001C0
E051D0
D0D0D0
D0D0D0
D0D0D0
E1E1D0
B6BBC0
2E1F40
ENDCHAR
STARTCHAR theta1
ENCODING 977
SWIDTH 507 0
DWIDTH 8 0
BBX 7 12 1 0
BITMAP
0B80
1DE0
28A0
28A0
1CA0
4EA0
D2F8
D0B0
D0A0
D0A0
B5D0
2F40
ENDCHAR
STARTCHAR Upsilon1
ENCODING 978
SWIDTH 465 0
DWIDTH 7 0
BBX 8 12 0 0
BITMAP
E01D
7428
2874
1CB0
0DD0
0BC0
0780
0340
0340
0340
0340
0340
ENDCHAR
STARTCHAR omega1
ENCODING 982
SWIDTH 678 0
DWIDTH 11 0
BBX 11 9 0 0
BITMAP
7FFFF4
2D55E0
3800A0
3474B0
347470
3474B0
2874A0
1DE9D0
0B8B80
ENDCHAR
STARTCHAR uni0400
ENCODING 1024
SWIDTH 496 0
DWIDTH 8 0
BBX 7 15 1 0
BITMAP
2C00
0A00
0000
BFF4
A550
A000
A000
A000
BFE0
A540
A000
A000
A000
A550
BFF4
ENDCHAR
STARTCHAR uni0401
ENCODING 1025
SWIDTH 496 0
DWIDTH 8 0
BBX 7 15 1 0
BITMAP
2050
34A0
0000
BFF4
A550
A000
A000
A000
BFE0
A540
A000
A000
A000
A550
BFF4
ENDCHAR
STARTCHAR uni0402
ENCODING 1026
SWIDTH 650 0
DWIDTH 10 0
BBX 10 12 0 0
BITMAP
BFFF00
179500
038000
038000
038000
03FE40
0396D0
0380E0
0380A0
0380A0
0381D0
038A40
ENDCHAR
STARTCHAR uni0403
ENCODING 1027
SWIDTH 487 0
DWIDTH 8 0
BBX 7 15 1 0
BITMAP
02D0
0740
0000
BFF4
A550
A000
A000
A000
A000
A000
A000
A000
A000
A000
A000
ENDCHAR
STARTCHAR uni0404
ENCODING 1028
SWIDTH 589 0
DWIDTH 9 0
BBX 8 12 1 0
BITMAP
0BE0
3978
B01C
E00D
D000
FFC0
E540
D000
E00D
B01C
3978
0BE0
ENDCHAR
STARTCHAR uni0405
ENCODING 1029
SWIDTH 518 0
DWIDTH 8 0
BBX 8 12 0 0
BITMAP
0BE4
2D6C
380D
3405
2D00
0F90
01F8
001D
100E
740E
2D6D
0BE4
ENDCHAR
STARTCHAR uni0406
ENCODING 1030
SWIDTH 250 0
DWIDTH 4 0
BBX 2 12 1 0
BITMAP
A0
A0
A0
A0
A0
A0
A0
A0
A0
A0
A0
A0
ENDCHAR
STARTCHAR uni0407
ENCODING 1031
SWIDTH 250 0
DWIDTH 4 0
BBX 6 15 -1 0
BITMAP
6090
70D0
0000
0A00
0A00
0A00
0A00
0A00
0A00
0A00
0A00
0A00
0A00
0A00
0A00
ENDCHAR
STARTCHAR uni0408
ENCODING 1032
SWIDTH 483 0
DWIDTH 8 0
BBX 7 12 0 0
BITMAP
0038
0038
0038
0038
0038
0038
0038
0038
1038
7034
39B0
1B90
ENDCHAR
STARTCHAR uni0409
ENCODING 1033
SWIDTH 923 0
DWIDTH 15 0
BBX 14 12 0 0
BITMAP
07FF8000
0B578000
0B038000
0B038000
0A038000
0A03FF80
0A0395E0
0A038070
0E038070
0D0380B0
2C0395E0
B403FF80
ENDCHAR
STARTCHAR uni040A
ENCODING 1034
SWIDTH 927 0
DWIDTH 15 0
BBX 13 12 1 0
BITMAP
A00A0000
A00A0000
A00A0000
A00A0000
A00A0000
BFFFFE00
A55E5780
A00A01C0
A00A01C0
A00A01C0
A00A5780
A00BFE00
ENDCHAR
STARTCHAR uni040B
ENCODING 1035
SWIDTH 705 0
DWIDTH 11 0
BBX 10 12 0 0
BITMAP
7FFF00
179500
028000
028000
028000
02FF80
0295E0
0280B0
028070
028070
028070
028070
ENDCHAR
STARTCHAR uni040C
ENCODING 1036
SWIDTH 544 0
DWIDTH 9 0
BBX 8 15 1 0
BITMAP
02D0
0600
0000
A02C
A074
A0E0
A2C0
A740
AF00
BB40
B2C0
A0E0
A074
A038
A01D
ENDCHAR
STARTCHAR uni040D
ENCODING 1037
SWIDTH 619 0
DWIDTH 10 0
BBX 8 15 1 0
BITMAP
0E00
0240
0000
A00E
A02E
A03E
A0AE
A0DE
A1CE
A34E
A70E
AD0E
BC0E
B40E
B00E
ENDCHAR
STARTCHAR uni040E
ENCODING 1038
SWIDTH 547 0
DWIDTH 9 0
BBX 7 15 1 0
BITMAP
24A0
1B80
0000
D02C
A038
7074
34B0
28E0
1DD0
0FC0
0B80
0740
0700
1E00
3800
ENDCHAR
STARTCHAR uni040F
ENCODING 1039
SWIDTH 621 0
DWIDTH 10 0
BBX 8 15 1 -3
BITMAP
A00A
A00A
A00A
A00A
A00A
A00A
A00A
A00A
A00A
A00A
A55E
BFFE
0280
0280
0280
ENDCHAR
STARTCHAR uni0410
ENCODING 1040
SWIDTH 576 0
DWIDTH 9 0
BBX 9 12 0 0
BITMAP
00D000
01E000
02B000
037400
072800
0A1C00
0D1D00
1D0E00
2FFF00
395700
740340
B00280
ENDCHAR
STARTCHAR uni0411
ENCODING 1041
SWIDTH 549 0
DWIDTH 9 0
BBX 7 12 1 0
BITMAP
BFF0
A550
A000
A000
A000
BFE0
A578
A01C
A01C
A01C
A578
BFE0
ENDCHAR
STARTCHAR uni0412
ENCODING 1042
SWIDTH 545 0
DWIDTH 9 0
BBX 7 12 1 0
BITMAP
BFD0
A5B4
A038
A038
A074
BFE0
A574
A028
A028
A028
A5B4
BFD0
ENDCHAR
STARTCHAR uni0413
ENCODING 1043
SWIDTH 487 0
DWIDTH 8 0
BBX 7 12 1 0
BITMAP
BFF4
A550
A000
A000
A000
A000
A000
A000
A000
A000
A000
A000
ENDCHAR
STARTCHAR uni0414
ENCODING 1044
SWIDTH 660 0
DWIDTH 11 0
BBX 10 15 0 -3
BITMAP
07FF80
075680
070280
070280
070280
070280
0B0280
0A0280
0E0280
0D0280
2D5690
BFFFF0
B00070
B00070
B00070
ENDCHAR
STARTCHAR uni0415
ENCODING 1045
SWIDTH 496 0
DWIDTH 8 0
BBX 7 12 1 0
BITMAP
BFF4
A550
A000
A000
A000
BFE0
A540
A000
A000
A000
A550
BFF4
ENDCHAR
STARTCHAR uni0416
ENCODING 1046
SWIDTH 791 0
DWIDTH 13 0
BBX 12 12 0 0
BITMAP
741C0B
2C1C0D
1D1C1C
0A1C38
071C70
035CA0
02FFD0
039DB0
0B1C74
1D1C2C
2C1C0E
741C0B
ENDCHAR
STARTCHAR uni0417
ENCODING 1047
SWIDTH 517 0
DWIDTH 8 0
BBX 8 12 0 0
BITMAP
0BE4
2D6C
340D
100D
002C
03F4
016C
000D
100E
740D
2D6C
0BE0
ENDCHAR
STARTCHAR uni0418
ENCODING 1048
SWIDTH 619 0
DWIDTH 10 0
BBX 8 12 1 0
BITMAP
A00E
A02E
A03E
A0AE
A0DE
A1CE
A34E
A70E
AD0E
BC0E
B40E
B00E
ENDCHAR
STARTCHAR uni0419
ENCODING 1049
SWIDTH 619 0
DWIDTH 10 0
BBX 8 15 1 0
BITMAP
1C34
0BE0
0000
A00E
A02E
A03E
A0AE
A0DE
A1CE
A34E
A70E
AD0E
BC0E
B40E
B00E
ENDCHAR
STARTCHAR uni041A
ENCODING 1050
SWIDTH 560 0
DWIDTH 9 0
BBX 8 12 1 0
BITMAP
A01D
A038
A0B0
A1E0
A2C0
BB40
BF40
A2C0
A1E0
A0B4
A03C
A01E
ENDCHAR
STARTCHAR uni041B
ENCODING 1051
SWIDTH 615 0
DWIDTH 10 0
BBX 9 12 0 0
BITMAP
07FF80
0B5780
0B0380
0B0380
0A0380
0A0380
0A0380
0A0380
0A0380
0D0380
2C0380
B40380
ENDCHAR
STARTCHAR uni041C
ENCODING 1052
SWIDTH 755 0
DWIDTH 12 0
BBX 10 12 1 0
BITMAP
B400F0
B801F0
BC02F0
AC03B0
AD07B0
AA0AB0
A70DB0
A35CB0
A2A8B0
A1F4B0
A0F0B0
A0A0B0
ENDCHAR
STARTCHAR uni041D
ENCODING 1053
SWIDTH 620 0
DWIDTH 10 0
BBX 8 12 1 0
BITMAP
A00A
A00A
A00A
A00A
A00A
BFFE
A55A
A00A
A00A
A00A
A00A
A00A
ENDCHAR
STARTCHAR uni041E
ENCODING 1054
SWIDTH 600 0
DWIDTH 10 0
BBX 8 12 1 0
BITMAP
1BE0
3978
B01D
E00D
D00E
D00A
D00A
D00E
E00D
B01D
3978
1BE0
ENDCHAR
STARTCHAR uni041F
ENCODING 1055
SWIDTH 620 0
DWIDTH 10 0
BBX 8 12 1 0
BITMAP
BFFE
A55E
A00A
A00A
A00A
A00A
A00A
A00A
A00A
A00A
A00A
A00A
ENDCHAR
STARTCHAR uni0420
ENCODING 1056
SWIDTH 554 0
DWIDTH 9 0
BBX 8 12 1 0
BITMAP
BFE0
A578
A01C
A01D
A01C
A028
BFF4
A500
A000
A000
A000
A000
ENDCHAR
STARTCHAR uni0421
ENCODING 1057
SWIDTH 566 0
DWIDTH 9 0
BBX 8 12 1 0
BITMAP
1BE0
3978
B01C
E009
D000
D000
D000
D000
E009
B01C
3978
1BE0
ENDCHAR
STARTCHAR uni0422
ENCODING 1058
SWIDTH 520 0
DWIDTH 8 0
BBX 8 12 0 0
BITMAP
BFFF
16D5
02C0
02C0
02C0
02C0
02C0
02C0
02C0
02C0
02C0
02C0
ENDCHAR
STARTCHAR uni0423
ENCODING 1059
SWIDTH 547 0
DWIDTH 9 0
BBX 7 12 1 0
BITMAP
D02C
A038
7074
34B0
28E0
1DD0
0FC0
0B80
0740
0700
1E00
3800
ENDCHAR
STARTCHAR uni0424
ENCODING 1060
SWIDTH 676 0
DWIDTH 11 0
BBX 10 12 0 0
BITMAP
007000
007000
06FE40
1D76D0
3470B0
707070
707070
3470B0
1D76D0
06FE40
007000
007000
ENDCHAR
STARTCHAR uni0425
ENCODING 1061
SWIDTH 550 0
DWIDTH 9 0
BBX 8 12 0 0
BITMAP
380B
2C0E
0D2C
0B38
03F0
02E0
02E0
07B0
0B38
1D2C
2C0E
740B
ENDCHAR
STARTCHAR uni0426
ENCODING 1062
SWIDTH 639 0
DWIDTH 10 0
BBX 9 15 1 -3
BITMAP
A00A00
A00A00
A00A00
A00A00
A00A00
A00A00
A00A00
A00A00
A00A00
A00A00
A55E40
BFFF80
000280
000280
000280
ENDCHAR
STARTCHAR uni0427
ENCODING 1063
SWIDTH 600 0
DWIDTH 10 0
BBX 8 12 1 0
BITMAP
E00D
E00D
E00D
E00D
A00D
B41D
2FFD
010D
000D
000D
000D
000D
ENDCHAR
STARTCHAR uni0428
ENCODING 1064
SWIDTH 814 0
DWIDTH 13 0
BBX 11 12 1 0
BITMAP
A07428
A07428
A07428
A07428
A07428
A07428
A07428
A07428
A07428
A07428
A57568
BFFFF8
ENDCHAR
STARTCHAR uni0429
ENCODING 1065
SWIDTH 841 0
DWIDTH 13 0
BBX 12 15 1 -3
BITMAP
A07428
A07428
A07428
A07428
A07428
A07428
A07428
A07428
A07428
A07428
A57568
BFFFFE
00000A
00000A
00000A
ENDCHAR
STARTCHAR uni042A
ENCODING 1066
SWIDTH 651 0
DWIDTH 10 0
BBX 10 12 0 0
BITMAP
BF4000
174000
074000
074000
074000
07FE40
0756D0
0740A0
0740A0
0740A0
0756D0
07FE40
ENDCHAR
STARTCHAR uni042B
ENCODING 1067
SWIDTH 755 0
DWIDTH 12 0
BBX 10 12 1 0
BITMAP
A000A0
A000A0
A000A0
A000A0
A000A0
BFE0A0
A578A0
A01CA0
A01DA0
A01CA0
A578A0
BFE0A0
ENDCHAR
STARTCHAR uni042C
ENCODING 1068
SWIDTH 551 0
DWIDTH 9 0
BBX 7 12 1 0
BITMAP
A000
A000
A000
A000
A000
BFE0
A578
A01C
A01C
A01C
A578
BFE0
ENDCHAR
STARTCHAR uni042D
ENCODING 1069
SWIDTH 589 0
DWIDTH 9 0
BBX 8 12 1 0
BITMAP
1BD0
3974
B01C
A00D
000E
0BFE
015E
000E
A00D
B01C
3978
1BD0
ENDCHAR
STARTCHAR uni042E
ENCODING 1070
SWIDTH 765 0
DWIDTH 12 0
BBX 11 12 1 0
BITMAP
A06F80
A1E5E0
A2C074
A38038
A34028
BF4028
A74028
A34028
A28038
A2C074
A0E5E0
A02F80
ENDCHAR
STARTCHAR uni042F
ENCODING 1071
SWIDTH 562 0
DWIDTH 9 0
BBX 7 12 1 0
BITMAP
1BF8
7978
A028
E028
A028
7428
1FF8
1D78
2828
7428
B028
D028
ENDCHAR
STARTCHAR uni0430
ENCODING 1072
SWIDTH 479 0
DWIDTH 8 0
BBX 6 9 1 0
BITMAP
2F80
B5D0
90E0
00A0
2FE0
A4A0
D0A0
E6E0
7EA0
ENDCHAR
STARTCHAR uni0431
ENCODING 1073
SWIDTH 484 0
DWIDTH 8 0
BBX 7 12 0 0
BITMAP
0028
02F4
0E40
2800
37E0
3D78
741C
741C
341C
341C
2D74
0BE0
ENDCHAR
STARTCHAR uni0432
ENCODING 1074
SWIDTH 503 0
DWIDTH 8 0
BBX 7 9 1 0
BITMAP
FF80
E5A0
E070
E0A0
FFD0
E1B0
E074
E5B0
FF90
ENDCHAR
STARTCHAR uni0433
ENCODING 1075
SWIDTH 371 0
DWIDTH 6 0
BBX 5 9 1 0
BITMAP
FF80
E500
E000
E000
E000
E000
E000
E000
E000
ENDCHAR
STARTCHAR uni0434
ENCODING 1076
SWIDTH 536 0
DWIDTH 9 0
BBX 8 11 0 -2
BITMAP
0BFC
0A6C
0A1C
0A1C
0E1C
0D1C
1C1C
295D
BFFF
B007
B007
ENDCHAR
STARTCHAR uni0435
ENCODING 1077
SWIDTH 468 0
DWIDTH 8 0
BBX 7 9 0 0
BITMAP
0BE0
2D74
3428
342C
7FFC
7550
3400
2D68
0BE0
ENDCHAR
STARTCHAR uni0436
ENCODING 1078
SWIDTH 662 0
DWIDTH 11 0
BBX 10 9 0 0
BITMAP
7470A0
2871D0
1D72C0
0A7340
07FF00
0AB740
1D72C0
3871D0
7470B0
ENDCHAR
STARTCHAR uni0437
ENCODING 1079
SWIDTH 446 0
DWIDTH 7 0
BBX 6 9 1 0
BITMAP
6E40
E6C0
81D0
01C0
2F40
06C0
80D0
E6C0
6F40
ENDCHAR
STARTCHAR uni0438
ENCODING 1080
SWIDTH 509 0
DWIDTH 8 0
BBX 6 9 1 0
BITMAP
E0B0
E0F0
E2F0
E3B0
E670
ED70
F870
F470
E070
ENDCHAR
STARTCHAR uni0439
ENCODING 1081
SWIDTH 509 0
DWIDTH 8 0
BBX 6 12 1 0
BITMAP
34D0
1F80
0000
E0B0
E0F0
E2F0
E3B0
E670
ED70
F870
F470
E070
ENDCHAR
STARTCHAR uni043A
ENCODING 1082
SWIDTH 479 0
DWIDTH 8 0
BBX 6 9 1 0
BITMAP
A0B0
A1D0
A380
A700
BE00
AB00
A380
A1D0
A0B0
ENDCHAR
STARTCHAR uni043B
ENCODING 1083
SWIDTH 509 0
DWIDTH 8 0
BBX 7 9 0 0
BITMAP
0FFC
0D6C
0D1C
0D1C
0D1C
0C1C
1C1C
681C
B41C
ENDCHAR
STARTCHAR uni043C
ENCODING 1084
SWIDTH 645 0
DWIDTH 10 0
BBX 9 9 1 0
BITMAP
F00B40
F40F40
F81F40
EC2B40
ED3740
E67740
E3A740
E2D740
E18740
ENDCHAR
STARTCHAR uni043D
ENCODING 1085
SWIDTH 508 0
DWIDTH 8 0
BBX 6 9 1 0
BITMAP
E070
E070
E070
E070
FFF0
E5B0
E070
E070
E070
ENDCHAR
STARTCHAR uni043E
ENCODING 1086
SWIDTH 501 0
DWIDTH 8 0
BBX 8 9 0 0
BITMAP
0BE0
2D78
341C
740D
700D
740D
341C
2D78
0BE0
ENDCHAR
STARTCHAR uni043F
ENCODING 1087
SWIDTH 509 0
DWIDTH 8 0
BBX 6 9 1 0
BITMAP
FFF0
E5B0
E070
E070
E070
E070
E070
E070
E070
ENDCHAR
STARTCHAR uni0440
ENCODING 1088
SWIDTH 493 0
DWIDTH 8 0
BBX 6 12 1 -3
BITMAP
DB80
F5E0
D070
D070
D070
D070
D070
F5E0
EB80
D000
D000
D000
ENDCHAR
STARTCHAR uni0441
ENCODING 1089
SWIDTH 461 0
DWIDTH 7 0
BBX 7 9 0 0
BITMAP
0BE0
2D74
3428
7400
7000
7400
3418
2D74
0BE0
ENDCHAR
STARTCHAR uni0442
ENCODING 1090
SWIDTH 424 0
DWIDTH 7 0
BBX 7 9 0 0
BITMAP
BFF4
1750
0700
0700
0700
0700
0700
0700
0700
ENDCHAR
STARTCHAR uni0443
ENCODING 1091
SWIDTH 416 0
DWIDTH 7 0
BBX 7 12 0 -3
BITMAP
B074
7070
34A0
28D0
1DC0
0E80
0B80
0B40
0700
0A00
1D00
7800
ENDCHAR
STARTCHAR uni0444
ENCODING 1092
SWIDTH 628 0
DWIDTH 10 0
BBX 10 15 0 -3
BITMAP
00A000
00A000
00A000
0BFE00
2DA780
34A1C0
34A1D0
74A0D0
34A0D0
34A1C0
2DA780
0BFE00
00A000
00A000
00A000
ENDCHAR
STARTCHAR uni0445
ENCODING 1093
SWIDTH 438 0
DWIDTH 7 0
BBX 7 9 0 0
BITMAP
7474
28A0
1DD0
0B80
0740
0B80
1DD0
28A0
7474
ENDCHAR
STARTCHAR uni0446
ENCODING 1094
SWIDTH 524 0
DWIDTH 8 0
BBX 7 12 1 -3
BITMAP
E070
E070
E070
E070
E070
E070
E070
E5B0
FFFC
0028
0028
0028
ENDCHAR
STARTCHAR uni0447
ENCODING 1095
SWIDTH 479 0
DWIDTH 8 0
BBX 7 9 0 0
BITMAP
7438
7438
7438
3438
3838
1FF8
0038
0038
0038
ENDCHAR
STARTCHAR uni0448
ENCODING 1096
SWIDTH 703 0
DWIDTH 11 0
BBX 9 9 1 0
BITMAP
E0D1C0
E0D1C0
E0D1C0
E0D1C0
E0D1C0
E0D1C0
E0D1C0
E5D5C0
FFFFC0
ENDCHAR
STARTCHAR uni0449
ENCODING 1097
SWIDTH 722 0
DWIDTH 12 0
BBX 10 12 1 -3
BITMAP
D0D1C0
D0D1C0
D0D1C0
D0D1C0
D0D1C0
D0D1C0
D0D1C0
E5D6D0
FFFFF0
000070
000070
000070
ENDCHAR
STARTCHAR uni044A
ENCODING 1098
SWIDTH 538 0
DWIDTH 9 0
BBX 8 9 0 0
BITMAP
BE00
1A00
0A00
0BF8
0A5A
0A07
0A07
0A5A
0BF8
ENDCHAR
STARTCHAR uni044B
ENCODING 1099
SWIDTH 679 0
DWIDTH 11 0
BBX 9 9 1 0
BITMAP
E00380
E00380
E00380
FF8380
E5E380
E0B380
E0B380
E5E380
FF8380
ENDCHAR
STARTCHAR uni044C
ENCODING 1100
SWIDTH 478 0
DWIDTH 8 0
BBX 6 9 1 0
BITMAP
E000
E000
E000
FF80
E5E0
E0B0
E0B0
E5E0
FF80
ENDCHAR
STARTCHAR uni044D
ENCODING 1101
SWIDTH 472 0
DWIDTH 8 0
BBX 6 9 1 0
BITMAP
2E40
A6C0
D0D0
00A0
0FE0
05A0
D0D0
A6C0
2E40
ENDCHAR
STARTCHAR uni044E
ENCODING 1102
SWIDTH 706 0
DWIDTH 11 0
BBX 10 9 1 0
BITMAP
E07E00
E1E680
E280D0
FF80E0
E740A0
E280D0
E180D0
E0E680
E06E00
ENDCHAR
STARTCHAR uni044F
ENCODING 1103
SWIDTH 482 0
DWIDTH 8 0
BBX 7 9 0 0
BITMAP
1BF8
3978
7428
3428
1FF8
0D78
2C28
3828
7028
ENDCHAR
STARTCHAR uni0450
ENCODING 1104
SWIDTH 468 0
DWIDTH 8 0
BBX 7 12 0 0
BITMAP
0E00
0340
0000
0BE0
2D74
3428
342C
7FFC
7550
3400
2D68
0BE0
ENDCHAR
STARTCHAR uni0451
ENCODING 1105
SWIDTH 468 0
DWIDTH 8 0
BBX 7 12 0 0
BITMAP
1420
1C34
0000
0BE0
2D74
3428
342C
7FFC
7550
3400
2D68
0BE0
ENDCHAR
STARTCHAR uni0452
ENCODING 1106
SWIDTH 482 0
DWIDTH 8 0
BBX 7 15 0 -3
BITMAP
3400
FF40
7900
3AE0
3D74
3828
3428
3428
3428
3428
3428
3428
0028
0078
00E0
ENDCHAR
STARTCHAR uni0453
ENCODING 1107
SWIDTH 371 0
DWIDTH 6 0
BBX 5 12 1 0
BITMAP
0A00
1800
0000
FF80
E500
E000
E000
E000
E000
E000
E000
E000
ENDCHAR
STARTCHAR uni0454
ENCODING 1108
SWIDTH 472 0
DWIDTH 8 0
BBX 6 9 1 0
BITMAP
2F80
75D0
D0A0
D000
FE00
D400
D060
75D0
2F80
ENDCHAR
STARTCHAR uni0455
ENCODING 1109
SWIDTH 455 0
DWIDTH 7 0
BBX 6 9 1 0
BITMAP
2F40
A6D0
D090
B400
2F40
02D0
90D0
E5D0
2F40
ENDCHAR
STARTCHAR uni0456
ENCODING 1110
SWIDTH 229 0
DWIDTH 4 0
BBX 2 12 1 0
BITMAP
50
90
00
E0
E0
E0
E0
E0
E0
E0
E0
E0
ENDCHAR
STARTCHAR uni0457
ENCODING 1111
SWIDTH 234 0
DWIDTH 4 0
BBX 6 12 -1 0
BITMAP
5080
70D0
0000
0E00
0E00
0E00
0E00
0E00
0E00
0E00
0E00
0E00
ENDCHAR
STARTCHAR uni0458
ENCODING 1112
SWIDTH 223 0
DWIDTH 4 0
BBX 3 15 0 -3
BITMAP
24
34
00
34
34
34
34
34
34
34
34
34
34
74
E0
ENDCHAR
STARTCHAR uni0459
ENCODING 1113
SWIDTH 729 0
DWIDTH 12 0
BBX 11 9 0 0
BITMAP
0FF800
0D6800
0D2800
0D2FE0
0D2968
1C281C
1C281C
682968
A02FE0
ENDCHAR
STARTCHAR uni045A
ENCODING 1114
SWIDTH 743 0
DWIDTH 12 0
BBX 11 9 1 0
BITMAP
E07000
E07000
E07000
FFFF90
E5B5B0
E07034
E07034
E075B0
E07FD0
ENDCHAR
STARTCHAR uni045B
ENCODING 1115
SWIDTH 499 0
DWIDTH 8 0
BBX 7 12 0 0
BITMAP
3400
BF40
3900
3AE0
3D74
3828
3428
3428
3428
3428
3428
3428
ENDCHAR
STARTCHAR uni045C
ENCODING 1116
SWIDTH 479 0
DWIDTH 8 0
BBX 6 12 1 0
BITMAP
0380
0A00
0000
A0B0
A1D0
A380
A700
BE00
AB00
A380
A1D0
A0B0
ENDCHAR
STARTCHAR uni045D
ENCODING 1117
SWIDTH 509 0
DWIDTH 8 0
BBX 6 12 1 0
BITMAP
2800
0900
0000
E0B0
E0F0
E2F0
E3B0
E670
ED70
F870
F470
E070
ENDCHAR
STARTCHAR uni045E
ENCODING 1118
SWIDTH 416 0
DWIDTH 7 0
BBX 7 15 0 -3
BITMAP
28A0
1B90
0000
B074
7070
34A0
28D0
1DC0
0E80
0B80
0B40
0700
0A00
1D00
7800
ENDCHAR
STARTCHAR uni045F
ENCODING 1119
SWIDTH 509 0
DWIDTH 8 0
BBX 6 12 1 -3
BITMAP
E070
E070
E070
E070
E070
E070
E070
E5B0
FFF0
0A00
0A00
0A00
ENDCHAR
STARTCHAR uni0460
ENCODING 1120
SWIDTH 754 0
DWIDTH 12 0
BBX 10 12 1 0
BITMAP
E0A070
E0A070
E0A070
E0A070
E0A070
E0A070
E0A070
E0A070
E0B070
A0B0B0
75F9E0
2F5F80
ENDCHAR
STARTCHAR uni0461
ENCODING 1121
SWIDTH 650 0
DWIDTH 10 0
BBX 9 9 1 0
BITMAP
D1C280
D1C280
D1C280
D1C280
D1C280
D1C280
D2C340
A7D740
6E7D00
ENDCHAR
STARTCHAR uni0462
ENCODING 1122
SWIDTH 551 0
DWIDTH 9 0
BBX 9 12 -1 0
BITMAP
0A0000
0A0000
7FC000
1E4000
0A0000
0BFE00
0A5780
0A01C0
0A01C0
0A01C0
0A5780
0BFE00
ENDCHAR
STARTCHAR uni0463
ENCODING 1123
SWIDTH 477 0
DWIDTH 8 0
BBX 7 12 0 0
BITMAP
3800
3800
FF80
7900
3800
3800
3FE0
3978
382C
382C
3978
3FE0
ENDCHAR
STARTCHAR uni0464
ENCODING 1124
SWIDTH 772 0
DWIDTH 12 0
BBX 11 12 1 0
BITMAP
A06F80
A0E5E0
A2C070
A38074
A34000
BFFF00
A75500
A34000
A38034
A2C070
A0E5E0
A06F40
ENDCHAR
STARTCHAR uni0465
ENCODING 1125
SWIDTH 646 0
DWIDTH 10 0
BBX 9 9 1 0
BITMAP
E0BD00
E2D740
E34280
E70000
FFF800
E75000
E34280
E29740
E0BD00
ENDCHAR
STARTCHAR uni0466
ENCODING 1126
SWIDTH 526 0
DWIDTH 8 0
BBX 9 12 0 0
BITMAP
01D000
02E000
03E000
037000
073400
0A2800
0D1C00
1FFD00
2DDD00
39CA00
35C700
71C340
ENDCHAR
STARTCHAR uni0467
ENCODING 1127
SWIDTH 470 0
DWIDTH 8 0
BBX 7 9 0 0
BITMAP
0340
0780
0AC0
0DD0
1CA0
2FF0
37B4
7368
A35C
ENDCHAR
STARTCHAR uni0468
ENCODING 1128
SWIDTH 759 0
DWIDTH 12 0
BBX 11 12 1 0
BITMAP
B00A00
B00F00
B01F40
B02A80
B03680
B071C0
B0B0D0
BFFFE0
B5DEB0
B1CA74
B28A38
B34A28
ENDCHAR
STARTCHAR uni0469
ENCODING 1129
SWIDTH 654 0
DWIDTH 10 0
BBX 9 9 1 0
BITMAP
A03400
A07800
A0AC00
A0DD00
A1CA00
BFFF00
A77740
A73680
AA35C0
ENDCHAR
STARTCHAR uni046A
ENCODING 1130
SWIDTH 747 0
DWIDTH 12 0
BBX 10 12 1 0
BITMAP
2FFF80
1E5740
0B0A00
075D00
02E800
1FFF40
75A5D0
A0A0A0
E0A0B0
E0A0B0
E0A0B0
E0A0B0
ENDCHAR
STARTCHAR uni046B
ENCODING 1131
SWIDTH 645 0
DWIDTH 10 0
BBX 9 9 1 0
BITMAP
2FFD00
1D7800
0A7400
07A000
2FF800
76DA00
A2C700
E2C740
E2C740
ENDCHAR
STARTCHAR uni046C
ENCODING 1132
SWIDTH 980 0
DWIDTH 16 0
BBX 14 12 1 0
BITMAP
A03FFF80
A01D5B00
A00E0E00
A0072C00
A003B400
BFFFFE40
A5B5E6C0
A0D0D0D0
A0D0D0E0
A1D0D0A0
A1D0D0A0
A1D0D0A0
ENDCHAR
STARTCHAR uni046D
ENCODING 1133
SWIDTH 856 0
DWIDTH 14 0
BBX 12 9 1 0
BITMAP
E07FF8
E039B0
E01CE0
E00EC0
FFFFF4
E5E76C
E1C34D
E2C34A
E2C34A
ENDCHAR
STARTCHAR uni046E
ENCODING 1134
SWIDTH 454 0
DWIDTH 7 0
BBX 7 18 0 -3
BITMAP
0D90
0780
0000
3F80
15E0
0070
0070
00A0
0F80
05E0
0070
0074
0070
01E0
3F80
7000
7400
1800
ENDCHAR
STARTCHAR uni046F
ENCODING 1135
SWIDTH 423 0
DWIDTH 7 0
BBX 6 15 0 -3
BITMAP
29C0
0B00
0000
3F80
15E0
00A0
00A0
0FC0
05A0
0070
01A0
3F80
7000
7400
1800
ENDCHAR
STARTCHAR uni0470
ENCODING 1136
SWIDTH 600 0
DWIDTH 10 0
BBX 9 12 0 0
BITMAP
70D280
70D280
70D280
70D280
70D280
74D280
34D340
2DDB00
0BFD00
01E000
00D000
00D000
ENDCHAR
STARTCHAR uni0471
ENCODING 1137
SWIDTH 612 0
DWIDTH 10 0
BBX 9 13 0 -4
BITMAP
70E380
70E280
70E1C0
70E1C0
70E1C0
34E1C0
38E280
1EEB40
07F900
00E000
00E000
00E000
00E000
ENDCHAR
STARTCHAR uni0472
ENCODING 1138
SWIDTH 593 0
DWIDTH 10 0
BBX 9 12 0 0
BITMAP
06F400
0E6D00
280700
340340
340340
7FFF80
755780
340340
380340
2C0B00
0E6D00
06F400
ENDCHAR
STARTCHAR uni0473
ENCODING 1139
SWIDTH 497 0
DWIDTH 8 0
BBX 8 9 0 0
BITMAP
0BE0
1D74
381C
341C
7FFD
355C
341C
1D74
0BE0
ENDCHAR
STARTCHAR uni0474
ENCODING 1140
SWIDTH 553 0
DWIDTH 9 0
BBX 9 12 0 0
BITMAP
B00340
740B00
340D00
281D00
1C1C00
1D2800
0D3400
0A3000
076000
03A000
02D000
02C000
ENDCHAR
STARTCHAR uni0475
ENCODING 1141
SWIDTH 443 0
DWIDTH 7 0
BBX 7 9 0 0
BITMAP
702C
3474
34A0
28A0
1CD0
0DC0
0A80
0740
0700
ENDCHAR
STARTCHAR uni0476
ENCODING 1142
SWIDTH 553 0
DWIDTH 9 0
BBX 9 15 0 0
BITMAP
2AC000
0A9000
000000
B00340
740B00
340D00
281D00
1C1C00
1D2800
0D3400
0A3000
076000
03A000
02D000
02C000
ENDCHAR
STARTCHAR uni0477
ENCODING 1143
SWIDTH 443 0
DWIDTH 7 0
BBX 7 12 0 0
BITMAP
7740
1D80
0000
702C
3474
34A0
28A0
1CD0
0DC0
0A80
0740
0700
ENDCHAR
STARTCHAR uni0478
ENCODING 1144
SWIDTH 1017 0
DWIDTH 16 0
BBX 15 15 1 -3
BITMAP
1BE00000
39780000
B01D0000
E00D3828
D00E2838
D00A1C34
D00A0D70
D00E0AA0
E00D0AD0
B01D07C0
397803C0
1BE00280
00000340
00001B00
00002D00
ENDCHAR
STARTCHAR uni0479
ENCODING 1145
SWIDTH 918 0
DWIDTH 15 0
BBX 15 12 0 -3
BITMAP
0BE0B074
2D787470
341C34A0
740D28D0
700D1DC0
740D0E80
341C0B80
2D780740
0BE00700
00000A00
00001D00
00007800
ENDCHAR
STARTCHAR uni047A
ENCODING 1146
SWIDTH 593 0
DWIDTH 10 0
BBX 9 14 0 -1
BITMAP
00D000
06F400
0EED00
2C0700
340340
340340
740380
740380
340340
340340
280700
0EEE00
06F800
00D000
ENDCHAR
STARTCHAR uni047B
ENCODING 1147
SWIDTH 498 0
DWIDTH 8 0
BBX 8 11 0 -1
BITMAP
0280
0BE0
2EB8
341C
341D
700D
341D
341C
2EB8
0BE0
0280
ENDCHAR
STARTCHAR uni047C
ENCODING 1148
SWIDTH 752 0
DWIDTH 12 0
BBX 10 15 1 0
BITMAP
02E400
031B00
007000
285280
7401D0
A000A0
E00070
E00070
E0A070
E0A070
E0A070
E0A070
A0B0A0
75F9D0
2F5F80
ENDCHAR
STARTCHAR uni047D
ENCODING 1149
SWIDTH 654 0
DWIDTH 10 0
BBX 9 12 1 0
BITMAP
07D000
096D00
00D000
248900
A00740
D00340
D00280
D1C280
D1C280
D2C340
A7E740
2E7E00
ENDCHAR
STARTCHAR uni047E
ENCODING 1150
SWIDTH 754 0
DWIDTH 12 0
BBX 10 15 1 0
BITMAP
0BFF00
00A000
000000
E0A070
E0A070
E0A070
E0A070
E0A070
E0A070
E0A070
E0A070
E0B070
A0B0B0
75F9E0
2F5F80
ENDCHAR
STARTCHAR uni047F
ENCODING 1151
SWIDTH 650 0
DWIDTH 10 0
BBX 9 12 1 0
BITMAP
1FFC00
01C000
000000
D1C280
D1C280
D1C280
D1C280
D1C280
D1C280
D2C340
A7D740
6E7D00
ENDCHAR
STARTCHAR uni0480
ENCODING 1152
SWIDTH 570 0
DWIDTH 9 0
BBX 7 15 1 -3
BITMAP
1BD0
3974
B02C
E018
D000
D000
D000
D000
E000
B000
7900
1F40
0340
0340
0340
ENDCHAR
STARTCHAR uni0481
ENCODING 1153
SWIDTH 472 0
DWIDTH 8 0
BBX 7 12 0 -3
BITMAP
0BD0
1D74
3428
3400
7400
3400
3400
2D00
0B80
0280
0280
0280
ENDCHAR
STARTCHAR uni0482
ENCODING 1154
SWIDTH 547 0
DWIDTH 9 0
BBX 7 10 1 0
BITMAP
0034
0860
0BD0
02E0
0368
D600
6D00
1F40
3580
6000
ENDCHAR
STARTCHAR uni0483
ENCODING 1155
SWIDTH 0 0
DWIDTH 0 0
BBX 5 3 -6 9
BITMAP
0180
FF80
D000
ENDCHAR
STARTCHAR uni0484
ENCODING 1156
SWIDTH 0 0
DWIDTH 0 0
BBX 5 2 -6 10
BITMAP
1B80
E4C0
ENDCHAR
STARTCHAR uni0485
ENCODING 1157
SWIDTH 0 0
DWIDTH 0 0
BBX 3 3 -5 10
BITMAP
70
30
14
ENDCHAR
STARTCHAR uni0486
ENCODING 1158
SWIDTH 0 0
DWIDTH 0 0
BBX 2 3 -4 10
BITMAP
70
A0
80
ENDCHAR
STARTCHAR uni0488
ENCODING 1160
SWIDTH 0 0
DWIDTH 0 0
BBX 16 15 -12 -3
BITMAP
00078000
00089000
00000000
0B4002D0
19800620
00000000
00000000
78000078
95000099
00000000
00000000
0B4002D0
15800620
00078000
00089000
ENDCHAR
STARTCHAR uni0489
ENCODING 1161
SWIDTH 0 0
DWIDTH 0 0
BBX 15 15 -12 -3
BITMAP
00014000
00030000
05020000
03000180
02400600
00000000
00000000
A80000A0
18000058
00000000
00000000
02800600
09024340
00030140
00020000
ENDCHAR
STARTCHAR uni048A
ENCODING 1162
SWIDTH 666 0
DWIDTH 11 0
BBX 9 18 1 -3
BITMAP
0D2800
07E000
000000
A00E00
A02E00
A03E00
A0AE00
A0DE00
A1CE00
A34E00
A70E00
AD0E00
BC0E00
B40E00
B00F80
0001C0
000280
000240
ENDCHAR
STARTCHAR uni048B
ENCODING 1163
SWIDTH 550 0
DWIDTH 9 0
BBX 8 15 1 -3
BITMAP
28A0
1B80
0000
E0B0
E0F0
E2F0
E3B0
E670
ED70
F870
F470
E079
000D
001D
0018
ENDCHAR
STARTCHAR uni048C
ENCODING 1164
SWIDTH 551 0
DWIDTH 9 0
BBX 9 12 -1 0
BITMAP
0A0000
0A0000
7FC000
1E4000
0A0000
0BFE00
0A5780
0A01C0
0A01C0
0A01C0
0A5780
0BFE00
ENDCHAR
STARTCHAR uni048D
ENCODING 1165
SWIDTH 477 0
DWIDTH 8 0
BBX 7 14 0 0
BITMAP
1400
3800
FF80
7900
3800
3800
3800
3800
3FE0
3978
382C
382C
3978
3FE0
ENDCHAR
STARTCHAR uni048E
ENCODING 1166
SWIDTH 557 0
DWIDTH 9 0
BBX 8 12 1 0
BITMAP
BFE0
A578
A01C
A01D
A0AC
A07C
BFFC
A509
A000
A000
A000
A000
ENDCHAR
STARTCHAR uni048F
ENCODING 1167
SWIDTH 496 0
DWIDTH 8 0
BBX 6 12 1 -3
BITMAP
EB80
F5E0
D0B0
D070
D070
D070
D2F0
F6E0
EBB0
D010
D000
D000
ENDCHAR
STARTCHAR uni0490
ENCODING 1168
SWIDTH 479 0
DWIDTH 8 0
BBX 6 15 1 0
BITMAP
0020
0070
0070
BFF0
A550
A000
A000
A000
A000
A000
A000
A000
A000
A000
A000
ENDCHAR
STARTCHAR uni0491
ENCODING 1169
SWIDTH 395 0
DWIDTH 6 0
BBX 5 12 1 0
BITMAP
0140
0280
0280
FF80
E500
D000
D000
D000
D000
D000
D000
D000
ENDCHAR
STARTCHAR uni0492
ENCODING 1170
SWIDTH 487 0
DWIDTH 8 0
BBX 8 12 0 0
BITMAP
2FFD
2954
2800
2800
6D00
BE40
2800
2800
2800
2800
2800
2800
ENDCHAR
STARTCHAR uni0493
ENCODING 1171
SWIDTH 371 0
DWIDTH 6 0
BBX 6 9 0 0
BITMAP
3FE0
3940
3800
3800
FF40
3900
3800
3800
3800
ENDCHAR
STARTCHAR uni0494
ENCODING 1172
SWIDTH 539 0
DWIDTH 9 0
BBX 7 14 1 -2
BITMAP
BFF4
A550
A000
A000
A000
BF80
A5B0
A034
A028
A028
A028
A028
0070
01D0
ENDCHAR
STARTCHAR uni0495
ENCODING 1173
SWIDTH 443 0
DWIDTH 7 0
BBX 6 11 1 -2
BITMAP
FF80
E500
D000
D000
FE00
E6C0
D0D0
D0D0
D0D0
0280
0600
ENDCHAR
STARTCHAR uni0496
ENCODING 1174
SWIDTH 833 0
DWIDTH 13 0
BBX 13 15 0 -3
BITMAP
741C0B00
2C1C0D00
1D1C1C00
0A1C3800
071C7000
035CA000
02FFD000
039DB000
0B1C7400
1D1C2C00
2C1C0E00
741C0BC0
000001C0
000001C0
000001C0
ENDCHAR
STARTCHAR uni0497
ENCODING 1175
SWIDTH 696 0
DWIDTH 11 0
BBX 11 12 0 -3
BITMAP
7470A0
2871D0
1D72C0
0A7340
07FF00
0AB740
1D72C0
3871D0
7470B8
000028
000028
000028
ENDCHAR
STARTCHAR uni0498
ENCODING 1176
SWIDTH 517 0
DWIDTH 8 0
BBX 8 16 0 -4
BITMAP
0BE4
2D6C
340D
100D
002C
03F4
016C
000D
100E
740D
2D6C
0BE0
0280
0280
0280
0280
ENDCHAR
STARTCHAR uni0499
ENCODING 1177
SWIDTH 446 0
DWIDTH 7 0
BBX 6 13 1 -4
BITMAP
6E40
E6C0
81D0
01C0
2F40
06C0
80D0
E6C0
6F40
0D00
0D00
0D00
0D00
ENDCHAR
STARTCHAR uni049A
ENCODING 1178
SWIDTH 617 0
DWIDTH 10 0
BBX 8 15 1 -3
BITMAP
A01D
A038
A0B0
A1E0
A2C0
BB40
BF40
A2C0
A1E0
A0B4
A03C
A01F
0007
0007
0007
ENDCHAR
STARTCHAR uni049B
ENCODING 1179
SWIDTH 524 0
DWIDTH 8 0
BBX 7 12 1 -3
BITMAP
A0B0
A1D0
A380
A700
BE00
AB00
A380
A1D0
A0BC
001C
001C
001C
ENDCHAR
STARTCHAR uni049C
ENCODING 1180
SWIDTH 553 0
DWIDTH 9 0
BBX 8 12 1 0
BITMAP
A01D
A028
A034
A070
A9A0
A9C0
BFC0
AED0
A9B0
A074
A02C
A01D
ENDCHAR
STARTCHAR uni049D
ENCODING 1181
SWIDTH 498 0
DWIDTH 8 0
BBX 7 9 1 0
BITMAP
E074
E0B0
E9D0
EEC0
FF80
EEC0
E9E0
E0B0
E038
ENDCHAR
STARTCHAR uni049E
ENCODING 1182
SWIDTH 570 0
DWIDTH 9 0
BBX 9 12 0 0
BITMAP
2C0740
2C0E00
FF6C00
2D7400
2CE000
2FD000
2DE000
2C7400
2C2C00
2C1E00
2C0B00
2C0380
ENDCHAR
STARTCHAR uni049F
ENCODING 1183
SWIDTH 462 0
DWIDTH 7 0
BBX 8 12 -1 0
BITMAP
0A00
7F80
1A00
0A0E
0A1C
0A38
0A70
0BE0
0A70
0A28
0A1D
0A0B
ENDCHAR
STARTCHAR uni04A0
ENCODING 1184
SWIDTH 710 0
DWIDTH 11 0
BBX 11 12 0 0
BITMAP
7FC078
15C0B0
01C1D0
01C380
01CB00
01FD00
01DB00
01C380
01C2C0
01C0E0
01C074
01C02C
ENDCHAR
STARTCHAR uni04A1
ENCODING 1185
SWIDTH 607 0
DWIDTH 10 0
BBX 10 9 0 0
BITMAP
7F82C0
168740
028A00
029C00
02F800
029D00
028B00
028380
0281D0
ENDCHAR
STARTCHAR uni04A2
ENCODING 1186
SWIDTH 662 0
DWIDTH 11 0
BBX 9 15 1 -3
BITMAP
A00A00
A00A00
A00A00
A00A00
A00A00
BFFE00
A55A00
A00A00
A00A00
A00A00
A00A00
A00BC0
0002C0
0002C0
0002C0
ENDCHAR
STARTCHAR uni04A3
ENCODING 1187
SWIDTH 541 0
DWIDTH 9 0
BBX 8 12 1 -3
BITMAP
E070
E070
E070
E070
FFF0
E5B0
E070
E070
E07D
001D
001D
001D
ENDCHAR
STARTCHAR uni04A4
ENCODING 1188
SWIDTH 829 0
DWIDTH 13 0
BBX 12 12 1 0
BITMAP
A00BFE
A00A54
A00A00
A00A00
A00A00
A00A00
BFFE00
A55A00
A00A00
A00A00
A00A00
A00A00
ENDCHAR
STARTCHAR uni04A5
ENCODING 1189
SWIDTH 614 0
DWIDTH 10 0
BBX 9 9 1 0
BITMAP
D07F40
D07500
D07000
D07000
FFF000
E5B000
D07000
D07000
D07000
ENDCHAR
STARTCHAR uni04A6
ENCODING 1190
SWIDTH 880 0
DWIDTH 14 0
BBX 13 14 1 -2
BITMAP
BFFE0000
A55E0000
A00A0000
A00A0000
A00A0000
A00BE400
A00A6D00
A00A0B00
A00A0700
A00A0340
A00A0740
A00A0700
00001E00
00003800
ENDCHAR
STARTCHAR uni04A7
ENCODING 1191
SWIDTH 755 0
DWIDTH 12 0
BBX 11 11 1 -2
BITMAP
FFF000
E5B000
D07000
D07000
D07F80
D075F0
D07034
D07034
D07034
0000A0
000180
ENDCHAR
STARTCHAR uni04A8
ENCODING 1192
SWIDTH 641 0
DWIDTH 10 0
BBX 9 12 1 0
BITMAP
187D00
75DB00
A28340
D38340
D38380
D38380
D38380
D28340
E2D740
70FE00
2DBE40
0BD680
ENDCHAR
STARTCHAR uni04A9
ENCODING 1193
SWIDTH 528 0
DWIDTH 8 0
BBX 7 9 1 0
BITMAP
26E0
A774
D728
DA28
DB28
D778
A3F4
76F4
1F5C
ENDCHAR
STARTCHAR uni04AA
ENCODING 1194
SWIDTH 566 0
DWIDTH 9 0
BBX 8 16 1 -4
BITMAP
1BE0
3978
B01C
E009
D000
D000
D000
D000
E009
B01C
3978
1BE0
0340
0340
0340
0340
ENDCHAR
STARTCHAR uni04AB
ENCODING 1195
SWIDTH 461 0
DWIDTH 7 0
BBX 7 13 0 -4
BITMAP
0BE0
2D74
3428
7400
7000
7400
3428
2D74
0BE0
0340
0340
0340
0340
ENDCHAR
STARTCHAR uni04AC
ENCODING 1196
SWIDTH 520 0
DWIDTH 8 0
BBX 8 15 0 -3
BITMAP
BFFF
16D5
02C0
02C0
02C0
02C0
02C0
02C0
02C0
02C0
02C0
02F0
0070
0070
0070
ENDCHAR
STARTCHAR uni04AD
ENCODING 1197
SWIDTH 424 0
DWIDTH 7 0
BBX 7 12 0 -3
BITMAP
BFF4
1750
0700
0700
0700
0700
0700
0700
07D0
00D0
00D0
00D0
ENDCHAR
STARTCHAR uni04AE
ENCODING 1198
SWIDTH 524 0
DWIDTH 8 0
BBX 8 12 0 0
BITMAP
B00B
340D
281C
1D38
0E74
07A0
03D0
02C0
02C0
02C0
02C0
02C0
ENDCHAR
STARTCHAR uni04AF
ENCODING 1199
SWIDTH 444 0
DWIDTH 7 0
BBX 7 12 0 -3
BITMAP
7028
3434
2870
1CA0
1CD0
0EC0
0B80
0740
0340
0340
0340
0340
ENDCHAR
STARTCHAR uni04B0
ENCODING 1200
SWIDTH 524 0
DWIDTH 8 0
BBX 8 12 0 0
BITMAP
B00B
340D
281C
0D38
0A70
07A0
0FF4
02D0
02C0
02C0
02C0
02C0
ENDCHAR
STARTCHAR uni04B1
ENCODING 1201
SWIDTH 444 0
DWIDTH 7 0
BBX 7 12 0 -3
BITMAP
7028
3434
2870
2CA0
1CD0
0EC0
0BC0
0780
1FE0
0340
0340
0340
ENDCHAR
STARTCHAR uni04B2
ENCODING 1202
SWIDTH 559 0
DWIDTH 9 0
BBX 9 15 0 -3
BITMAP
380B00
2C0E00
0D2C00
0B3800
03F000
02E000
02E000
07B000
0B3800
1D2C00
2C0E00
740B80
000280
000280
000280
ENDCHAR
STARTCHAR uni04B3
ENCODING 1203
SWIDTH 465 0
DWIDTH 7 0
BBX 7 12 0 -3
BITMAP
7474
28A0
1DD0
0B80
0740
0B80
1DD0
28A0
747C
001C
001C
001C
ENDCHAR
STARTCHAR uni04B4
ENCODING 1204
SWIDTH 781 0
DWIDTH 13 0
BBX 12 15 0 -3
BITMAP
7FF874
179074
034074
034074
034074
034074
034074
034074
034074
034074
039574
03FFFD
00000D
00000D
00000D
ENDCHAR
STARTCHAR uni04B5
ENCODING 1205
SWIDTH 587 0
DWIDTH 9 0
BBX 9 12 0 -3
BITMAP
BFC700
1E4700
0D0700
0D0700
0D0700
0D0700
0D0700
0E5B00
0FFF80
000280
000280
000280
ENDCHAR
STARTCHAR uni04B6
ENCODING 1206
SWIDTH 638 0
DWIDTH 10 0
BBX 9 15 1 -3
BITMAP
E00D00
E00D00
E00D00
E00D00
A00D00
B41D00
2FFD00
010D00
000D00
000D00
000D00
000F40
000340
000340
000340
ENDCHAR
STARTCHAR uni04B7
ENCODING 1207
SWIDTH 512 0
DWIDTH 8 0
BBX 8 12 0 -3
BITMAP
7438
7438
7438
3438
3838
1FF8
0038
0038
003E
000A
000A
000A
ENDCHAR
STARTCHAR uni04B8
ENCODING 1208
SWIDTH 595 0
DWIDTH 10 0
BBX 8 12 1 0
BITMAP
E00D
E00D
E00D
E10D
A24D
B25D
2FFD
068D
024D
000D
000D
000D
ENDCHAR
STARTCHAR uni04B9
ENCODING 1209
SWIDTH 483 0
DWIDTH 8 0
BBX 6 9 1 0
BITMAP
D0A0
D0A0
D0A0
D9A0
A9A0
7FE0
09A0
04A0
00A0
ENDCHAR
STARTCHAR uni04BA
ENCODING 1210
SWIDTH 595 0
DWIDTH 10 0
BBX 8 12 1 0
BITMAP
D000
D000
D000
D000
D000
EFE0
E578
D01C
D01D
D01D
D01D
D01D
ENDCHAR
STARTCHAR uni04BB
ENCODING 1211
SWIDTH 482 0
DWIDTH 8 0
BBX 6 12 1 0
BITMAP
D000
D000
D000
EB80
F5D0
E0A0
D0A0
D0A0
D0A0
D0A0
D0A0
D0A0
ENDCHAR
STARTCHAR uni04BC
ENCODING 1212
SWIDTH 674 0
DWIDTH 11 0
BBX 10 12 0 0
BITMAP
006E40
01E6C0
0280E0
6340A0
3740B0
1FFFF0
074000
074000
034000
028000
01E580
006F80
ENDCHAR
STARTCHAR uni04BD
ENCODING 1213
SWIDTH 518 0
DWIDTH 8 0
BBX 8 9 0 0
BITMAP
02E4
0A6C
8D0D
EC0D
7FFE
1D54
1C00
0E5D
02F4
ENDCHAR
STARTCHAR uni04BE
ENCODING 1214
SWIDTH 674 0
DWIDTH 11 0
BBX 10 16 0 -4
BITMAP
006E40
01E6C0
0280E0
6340A0
3740B0
1FFFF0
074000
074000
034000
028000
01E580
006F80
000D00
000D00
000D00
000D00
ENDCHAR
STARTCHAR uni04BF
ENCODING 1215
SWIDTH 518 0
DWIDTH 8 0
BBX 8 12 0 -3
BITMAP
02E4
0A6C
8D0D
EC0D
7FFE
1D54
1C00
0E5D
02F4
00E0
00E0
00E0
ENDCHAR
STARTCHAR uni04C0
ENCODING 1216
SWIDTH 250 0
DWIDTH 4 0
BBX 2 12 1 0
BITMAP
A0
A0
A0
A0
A0
A0
A0
A0
A0
A0
A0
A0
ENDCHAR
STARTCHAR uni04C1
ENCODING 1217
SWIDTH 791 0
DWIDTH 13 0
BBX 12 15 0 0
BITMAP
00D280
007E00
000000
741C0B
2C1C0D
1D1C1C
0A1C38
071C70
035CA0
02FFD0
039DB0
0B1C74
1D1C2C
2C1C0E
741C0B
ENDCHAR
STARTCHAR uni04C2
ENCODING 1218
SWIDTH 662 0
DWIDTH 11 0
BBX 10 12 0 0
BITMAP
034A00
01F800
000000
7470A0
2871D0
1D72C0
0A7340
07FF00
0AB740
1D72C0
3871D0
7470B0
ENDCHAR
STARTCHAR uni04C3
ENCODING 1219
SWIDTH 553 0
DWIDTH 9 0
BBX 8 14 1 -2
BITMAP
A02C
A074
A0E0
A2C0
A740
BF90
A5B4
A02C
A01C
A01D
A01D
A01C
0078
00E0
ENDCHAR
STARTCHAR uni04C4
ENCODING 1220
SWIDTH 481 0
DWIDTH 8 0
BBX 6 11 1 -2
BITMAP
E0A0
E280
EB00
FF40
E6D0
E0B0
E070
E070
E0A0
01D0
0240
ENDCHAR
STARTCHAR uni04C5
ENCODING 1221
SWIDTH 662 0
DWIDTH 11 0
BBX 10 15 0 -3
BITMAP
07FF80
0B5780
0B0380
0B0380
0A0380
0A0380
0A0380
0A0380
0A0380
0D0380
2C0380
B403E0
000070
0000A0
000090
ENDCHAR
STARTCHAR uni04C6
ENCODING 1222
SWIDTH 551 0
DWIDTH 9 0
BBX 9 12 0 -3
BITMAP
0FFC00
0D6C00
0D1C00
0D1C00
0D1C00
0C1C00
1C1C00
681C00
B41E40
000340
000740
000600
ENDCHAR
STARTCHAR uni04C7
ENCODING 1223
SWIDTH 620 0
DWIDTH 10 0
BBX 8 15 1 -3
BITMAP
A00A
A00A
A00A
A00A
A00A
BFFE
A55E
A00A
A00A
A00A
A00A
A00A
000E
001D
0078
ENDCHAR
STARTCHAR uni04C8
ENCODING 1224
SWIDTH 498 0
DWIDTH 8 0
BBX 6 12 1 -3
BITMAP
D070
D070
D070
FFF0
E5B0
D070
D070
D070
D070
00B0
01A0
0380
ENDCHAR
STARTCHAR uni04C9
ENCODING 1225
SWIDTH 671 0
DWIDTH 11 0
BBX 9 15 1 -3
BITMAP
A00A00
A00A00
A00A00
A00A00
A00A00
BFFE00
A55A00
A00A00
A00A00
A00A00
A00A00
A00B80
0001C0
0002C0
000240
ENDCHAR
STARTCHAR uni04CA
ENCODING 1226
SWIDTH 550 0
DWIDTH 9 0
BBX 8 12 1 -3
BITMAP
E070
E070
E070
E070
FFF0
E5B0
E070
E070
E079
000D
001D
0018
ENDCHAR
STARTCHAR uni04CB
ENCODING 1227
SWIDTH 600 0
DWIDTH 10 0
BBX 8 15 1 -3
BITMAP
E00D
E00D
E00D
E00D
A00D
B41D
2FFD
010D
000D
000D
000D
007D
0070
0070
0070
ENDCHAR
STARTCHAR uni04CC
ENCODING 1228
SWIDTH 479 0
DWIDTH 8 0
BBX 7 12 0 -3
BITMAP
7438
7438
7438
3438
3838
1FF8
0038
0038
00F8
00D0
00D0
00D0
ENDCHAR
STARTCHAR uni04CD
ENCODING 1229
SWIDTH 801 0
DWIDTH 13 0
BBX 12 15 1 -3
BITMAP
B400F0
B801F0
BC02F0
AC03B0
AD07B0
AA0AB0
A70DB0
A35CB0
A2A8B0
A1F4B0
A0F0B0
A0A0B9
00001D
00001C
000024
ENDCHAR
STARTCHAR uni04CE
ENCODING 1230
SWIDTH 687 0
DWIDTH 11 0
BBX 10 12 1 -3
BITMAP
F00B40
F40F40
F81F40
EC2B40
ED3740
E67740
E3A740
E2D740
E18790
0000A0
0000D0
000180
ENDCHAR
STARTCHAR uni04CF
ENCODING 1231
SWIDTH 250 0
DWIDTH 4 0
BBX 2 12 1 0
BITMAP
A0
A0
A0
A0
A0
A0
A0
A0
A0
A0
A0
A0
ENDCHAR
STARTCHAR uni04D0
ENCODING 1232
SWIDTH 576 0
DWIDTH 9 0
BBX 9 15 0 0
BITMAP
0A1C00
02F400
000000
00D000
01E000
02B000
037400
072800
0A1C00
0D1D00
1D0E00
2FFF00
395700
740340
B00280
ENDCHAR
STARTCHAR uni04D1
ENCODING 1233
SWIDTH 479 0
DWIDTH 8 0
BBX 6 12 1 0
BITMAP
70D0
2F80
0000
2F80
B5D0
90E0
00A0
2FE0
A4A0
D0A0
E6E0
7EA0
ENDCHAR
STARTCHAR uni04D2
ENCODING 1234
SWIDTH 576 0
DWIDTH 9 0
BBX 9 15 0 0
BITMAP
050800
0A1C00
000000
00D000
01E000
02B000
037400
072800
0A1C00
0D1D00
1D0E00
2FFF00
395700
740340
B00280
ENDCHAR
STARTCHAR uni04D3
ENCODING 1235
SWIDTH 479 0
DWIDTH 8 0
BBX 6 12 1 0
BITMAP
6090
70D0
0000
2F80
B5D0
90E0
00A0
2FE0
A4A0
D0A0
E6E0
7EA0
ENDCHAR
STARTCHAR uni04D4
ENCODING 1236
SWIDTH 812 0
DWIDTH 13 0
BBX 13 12 0 0
BITMAP
001FFF40
003E5500
007A0000
00EA0000
01CA0000
038BFE00
074B5400
0F0B0000
1FFF0000
2D5B0000
74075500
B007FF80
ENDCHAR
STARTCHAR uni04D5
ENCODING 1237
SWIDTH 728 0
DWIDTH 12 0
BBX 11 9 0 0
BITMAP
0BD7E0
29BD74
34381C
00341C
1BFFFC
393400
703800
35BD58
1F87F4
ENDCHAR
STARTCHAR uni04D6
ENCODING 1238
SWIDTH 496 0
DWIDTH 8 0
BBX 7 15 1 0
BITMAP
3490
1F80
0000
BFF4
A550
A000
A000
A000
BFE0
A540
A000
A000
A000
A550
BFF4
ENDCHAR
STARTCHAR uni04D7
ENCODING 1239
SWIDTH 468 0
DWIDTH 8 0
BBX 7 12 0 0
BITMAP
1C70
0BD0
0000
0BE0
2D74
3428
342C
7FFC
7550
3400
2D68
0BE0
ENDCHAR
STARTCHAR uni04D8
ENCODING 1240
SWIDTH 597 0
DWIDTH 10 0
BBX 9 12 0 0
BITMAP
0BE400
096D00
000B00
000340
000380
000280
7FFF80
755780
340340
380700
1E5D00
06F400
ENDCHAR
STARTCHAR uni04D9
ENCODING 1241
SWIDTH 465 0
DWIDTH 7 0
BBX 7 9 0 0
BITMAP
1F90
25B0
0038
0028
7FF8
3568
3434
2DB0
0B90
ENDCHAR
STARTCHAR uni04DA
ENCODING 1242
SWIDTH 597 0
DWIDTH 10 0
BBX 9 15 0 0
BITMAP
081400
0D2800
000000
0BE400
096D00
000B00
000340
000380
000280
7FFF80
755780
340340
380700
1E5D00
06F400
ENDCHAR
STARTCHAR uni04DB
ENCODING 1243
SWIDTH 465 0
DWIDTH 7 0
BBX 7 12 0 0
BITMAP
1420
2874
0000
1F90
25B0
0038
0028
7FF8
3568
3434
2DB0
0B90
ENDCHAR
STARTCHAR uni04DC
ENCODING 1244
SWIDTH 791 0
DWIDTH 13 0
BBX 12 15 0 0
BITMAP
009140
00D280
000000
741C0B
2C1C0D
1D1C1C
0A1C38
071C70
035CA0
02FFD0
039DB0
0B1C74
1D1C2C
2C1C0E
741C0B
ENDCHAR
STARTCHAR uni04DD
ENCODING 1245
SWIDTH 662 0
DWIDTH 11 0
BBX 10 12 0 0
BITMAP
020500
034A00
000000
7470A0
2871D0
1D72C0
0A7340
07FF00
0AB740
1D72C0
3871D0
7470B0
ENDCHAR
STARTCHAR uni04DE
ENCODING 1246
SWIDTH 517 0
DWIDTH 8 0
BBX 8 15 0 0
BITMAP
0814
1D34
0000
0BE4
2D6C
340D
100D
002C
03F4
016C
000D
100E
740D
2D6C
0BE0
ENDCHAR
STARTCHAR uni04DF
ENCODING 1247
SWIDTH 446 0
DWIDTH 7 0
BBX 6 12 1 0
BITMAP
5180
A1C0
0000
6E40
E6C0
81D0
01C0
2F40
06C0
80D0
E6C0
6F40
ENDCHAR
STARTCHAR uni04E0
ENCODING 1248
SWIDTH 510 0
DWIDTH 8 0
BBX 7 12 1 0
BITMAP
FFF0
55E0
02C0
0740
0E00
1F80
01E0
0070
4074
D070
B5E0
2F80
ENDCHAR
STARTCHAR uni04E1
ENCODING 1249
SWIDTH 510 0
DWIDTH 8 0
BBX 7 12 1 -3
BITMAP
FFF0
55D0
0280
0740
0E00
1F80
05E0
0070
4074
D070
B5E0
2F80
ENDCHAR
STARTCHAR uni04E2
ENCODING 1250
SWIDTH 619 0
DWIDTH 10 0
BBX 8 14 1 0
BITMAP
1FF4
0000
A00E
A02E
A03E
A0AE
A0DE
A1CE
A34E
A70E
AD0E
BC0E
B40E
B00E
ENDCHAR
STARTCHAR uni04E3
ENCODING 1251
SWIDTH 509 0
DWIDTH 8 0
BBX 6 11 1 0
BITMAP
3FD0
0000
E0B0
E0F0
E2F0
E3B0
E670
ED70
F870
F470
E070
ENDCHAR
STARTCHAR uni04E4
ENCODING 1252
SWIDTH 619 0
DWIDTH 10 0
BBX 8 15 1 0
BITMAP
1820
1C34
0000
A00E
A02E
A03E
A0AE
A0DE
A1CE
A34E
A70E
AD0E
BC0E
B40E
B00E
ENDCHAR
STARTCHAR uni04E5
ENCODING 1253
SWIDTH 509 0
DWIDTH 8 0
BBX 6 12 1 0
BITMAP
2050
70D0
0000
E0B0
E0F0
E2F0
E3B0
E670
ED70
F870
F470
E070
ENDCHAR
STARTCHAR uni04E6
ENCODING 1254
SWIDTH 600 0
DWIDTH 10 0
BBX 8 15 1 0
BITMAP
1420
1874
0000
1BE0
3978
B01D
E00D
D00E
D00A
D00A
D00E
E00D
B01D
3978
1BE0
ENDCHAR
STARTCHAR uni04E7
ENCODING 1255
SWIDTH 501 0
DWIDTH 8 0
BBX 8 12 0 0
BITMAP
1820
1C34
0000
0BE0
2D78
341C
740D
700D
740D
341C
2D78
0BE0
ENDCHAR
STARTCHAR uni04E8
ENCODING 1256
SWIDTH 593 0
DWIDTH 10 0
BBX 9 12 0 0
BITMAP
06F400
0E6D00
280700
340340
340340
7FFF80
755780
340340
380340
2C0B00
0E6D00
06F400
ENDCHAR
STARTCHAR uni04E9
ENCODING 1257
SWIDTH 497 0
DWIDTH 8 0
BBX 8 9 0 0
BITMAP
0BE0
1D74
381C
341C
7FFD
355C
341C
1D74
0BE0
ENDCHAR
STARTCHAR uni04EA
ENCODING 1258
SWIDTH 593 0
DWIDTH 10 0
BBX 9 15 0 0
BITMAP
060800
070D00
000000
06F400
0E6D00
280700
340340
340340
7FFF80
755780
340340
380340
2C0B00
0E6D00
06F400
ENDCHAR
STARTCHAR uni04EB
ENCODING 1259
SWIDTH 497 0
DWIDTH 8 0
BBX 8 12 0 0
BITMAP
1420
1874
0000
0BE0
1D74
381C
341C
7FFD
355C
341C
1D74
0BE0
ENDCHAR
STARTCHAR uni04EC
ENCODING 1260
SWIDTH 589 0
DWIDTH 9 0
BBX 8 15 1 0
BITMAP
1420
2870
0000
1BD0
3974
B01C
A00D
000E
0BFE
015E
000E
A00D
B01C
3978
1BD0
ENDCHAR
STARTCHAR uni04ED
ENCODING 1261
SWIDTH 472 0
DWIDTH 8 0
BBX 6 12 1 0
BITMAP
5080
A1C0
0000
2E40
A6C0
D0D0
00A0
0FE0
05A0
D0D0
A6C0
2E40
ENDCHAR
STARTCHAR uni04EE
ENCODING 1262
SWIDTH 547 0
DWIDTH 9 0
BBX 7 14 1 0
BITMAP
2FE0
0000
D02C
A038
7074
34B0
28E0
1DD0
0FC0
0B80
0740
0700
1E00
3800
ENDCHAR
STARTCHAR uni04EF
ENCODING 1263
SWIDTH 416 0
DWIDTH 7 0
BBX 7 14 0 -3
BITMAP
2FE0
0000
B074
7070
34A0
28D0
1DC0
0E80
0B80
0B40
0700
0A00
1D00
7800
ENDCHAR
STARTCHAR uni04F0
ENCODING 1264
SWIDTH 547 0
DWIDTH 9 0
BBX 7 15 1 0
BITMAP
2450
34A0
0000
D02C
A038
7074
34B0
28E0
1DD0
0FC0
0B80
0740
0700
1E00
3800
ENDCHAR
STARTCHAR uni04F1
ENCODING 1265
SWIDTH 416 0
DWIDTH 7 0
BBX 7 15 0 -3
BITMAP
1450
3460
0000
B074
7070
34A0
28D0
1DC0
0E80
0B80
0B40
0700
0A00
1D00
7800
ENDCHAR
STARTCHAR uni04F2
ENCODING 1266
SWIDTH 547 0
DWIDTH 9 0
BBX 7 15 1 0
BITMAP
0A74
09D0
0000
D02C
A038
7074
34B0
28E0
1DD0
0FC0
0B80
0740
0700
1E00
3800
ENDCHAR
STARTCHAR uni04F3
ENCODING 1267
SWIDTH 416 0
DWIDTH 7 0
BBX 7 15 0 -3
BITMAP
0B74
0990
0000
B074
7070
34A0
28D0
1DC0
0E80
0B80
0B40
0700
0A00
1D00
7800
ENDCHAR
STARTCHAR uni04F4
ENCODING 1268
SWIDTH 600 0
DWIDTH 10 0
BBX 8 15 1 0
BITMAP
1420
2870
0000
E00D
E00D
E00D
E00D
A00D
B41D
2FFD
010D
000D
000D
000D
000D
ENDCHAR
STARTCHAR uni04F5
ENCODING 1269
SWIDTH 479 0
DWIDTH 8 0
BBX 7 12 0 0
BITMAP
1460
2870
0000
7438
7438
7438
3438
3838
1FF8
0038
0038
0038
ENDCHAR
STARTCHAR uni04F6
ENCODING 1270
SWIDTH 487 0
DWIDTH 8 0
BBX 7 15 1 -3
BITMAP
BFF4
A550
A000
A000
A000
A000
A000
A000
A000
A000
A000
BC00
1C00
1C00
1C00
ENDCHAR
STARTCHAR uni04F7
ENCODING 1271
SWIDTH 371 0
DWIDTH 6 0
BBX 5 12 1 -3
BITMAP
FF80
E500
E000
E000
E000
E000
E000
E000
F800
2800
2800
2800
ENDCHAR
STARTCHAR uni04F8
ENCODING 1272
SWIDTH 755 0
DWIDTH 12 0
BBX 10 15 1 0
BITMAP
020900
070D00
000000
A000A0
A000A0
A000A0
A000A0
A000A0
BFE0A0
A578A0
A01CA0
A00DA0
A01CA0
A578A0
BFE0A0
ENDCHAR
STARTCHAR uni04F9
ENCODING 1273
SWIDTH 679 0
DWIDTH 11 0
BBX 9 12 1 0
BITMAP
081400
0D2800
000000
E00380
E00380
E00380
FF8380
E5E380
E0B380
E0B380
E5E380
FF8380
ENDCHAR
STARTCHAR uni04FA
ENCODING 1274
SWIDTH 520 0
DWIDTH 8 0
BBX 8 15 0 -3
BITMAP
1FFE
1D55
1D00
1D00
1D00
7FC0
1D00
1D00
1D00
1D00
1D00
1F40
0340
0740
1E00
ENDCHAR
STARTCHAR uni04FB
ENCODING 1275
SWIDTH 410 0
DWIDTH 7 0
BBX 7 12 0 -3
BITMAP
1FF4
1D50
1C00
1C00
7FC0
1D00
1C00
1D00
1F40
0340
0740
1E00
ENDCHAR
STARTCHAR uni04FC
ENCODING 1276
SWIDTH 570 0
DWIDTH 9 0
BBX 9 15 0 -3
BITMAP
380B00
2C0E00
0D2C00
0B3800
03F000
02E000
02E000
07B000
0B3800
1D2C00
2C0E00
740BC0
000280
000780
000E00
ENDCHAR
STARTCHAR uni04FD
ENCODING 1277
SWIDTH 476 0
DWIDTH 8 0
BBX 8 12 0 -3
BITMAP
7474
28A0
1DD0
0B80
0740
0B80
1DD0
28B4
747D
001D
006C
00B4
ENDCHAR
STARTCHAR uni04FE
ENCODING 1278
SWIDTH 550 0
DWIDTH 9 0
BBX 8 12 0 0
BITMAP
380B
2C0D
0D2C
0B34
03F0
0BF8
03E0
07B4
0B38
1D2C
2C0E
740B
ENDCHAR
STARTCHAR uni04FF
ENCODING 1279
SWIDTH 438 0
DWIDTH 7 0
BBX 7 9 0 0
BITMAP
7474
28A0
1DD0
0F80
2FE0
0B80
1DD0
28A0
7474
ENDCHAR
STARTCHAR uni0500
ENCODING 1280
SWIDTH 555 0
DWIDTH 9 0
BBX 8 12 0 0
BITMAP
000A
000A
000A
000A
000A
0BFE
2D5A
340A
740A
340A
2D5A
0BFE
ENDCHAR
STARTCHAR uni0501
ENCODING 1281
SWIDTH 496 0
DWIDTH 8 0
BBX 7 12 0 0
BITMAP
002C
002C
002C
0BAC
2D7C
342C
742C
702C
742C
342C
2D7C
0BAC
ENDCHAR
STARTCHAR uni0502
ENCODING 1282
SWIDTH 723 0
DWIDTH 12 0
BBX 11 12 0 0
BITMAP
000A00
000A00
000A00
000A00
000A00
0BFE00
2D5A28
340A1C
740A1C
340A1C
2D5A78
0BFFE0
ENDCHAR
STARTCHAR uni0503
ENCODING 1283
SWIDTH 743 0
DWIDTH 12 0
BBX 11 12 0 0
BITMAP
002800
002800
002800
0BA800
2D7814
382828
34281C
74281C
34281C
342828
2D7D74
0B8BD0
ENDCHAR
STARTCHAR uni0504
ENCODING 1284
SWIDTH 685 0
DWIDTH 11 0
BBX 10 12 0 0
BITMAP
7F8000
15E000
007000
007000
00A050
1FC0A0
05E0B0
007070
0070B0
0070A0
0039D0
001F40
ENDCHAR
STARTCHAR uni0505
ENCODING 1285
SWIDTH 562 0
DWIDTH 9 0
BBX 9 9 0 0
BITMAP
7E4000
16C000
01C000
02C700
3F4340
06C340
01C340
01DB00
00B900
ENDCHAR
STARTCHAR uni0506
ENCODING 1286
SWIDTH 470 0
DWIDTH 8 0
BBX 7 14 0 -2
BITMAP
7E40
16C0
00E0
00A0
00A0
01D0
2F80
06D0
00E0
00A0
00B8
00BC
0028
0020
ENDCHAR
STARTCHAR uni0507
ENCODING 1287
SWIDTH 443 0
DWIDTH 7 0
BBX 6 11 1 -2
BITMAP
FE00
5740
0280
0740
BE00
1740
0280
0290
02E0
00A0
0080
ENDCHAR
STARTCHAR uni0508
ENCODING 1288
SWIDTH 834 0
DWIDTH 13 0
BBX 13 12 0 0
BITMAP
07FF4000
07574000
07034000
07034000
07034100
07034340
0B034280
0A034280
0A034280
0E038340
2D02DB00
7400B900
ENDCHAR
STARTCHAR uni0509
ENCODING 1289
SWIDTH 698 0
DWIDTH 11 0
BBX 11 9 0 0
BITMAP
0BFC00
0E6C00
0D2C34
0D2C28
0D2C28
0D2C28
0D1C34
2C1D70
740BD0
ENDCHAR
STARTCHAR uni050A
ENCODING 1290
SWIDTH 864 0
DWIDTH 14 0
BBX 12 12 1 0
BITMAP
A00E00
A00E00
A00E00
A00E00
A00E05
BFFE0A
A55E0A
A00E0A
A00E0A
A00A0E
A00B6C
A002E4
ENDCHAR
STARTCHAR uni050B
ENCODING 1291
SWIDTH 716 0
DWIDTH 11 0
BBX 10 9 1 0
BITMAP
D07000
D07000
D07090
FFF0A0
E5B0A0
D070A0
D070A0
D039D0
D01F40
ENDCHAR
STARTCHAR uni050C
ENCODING 1292
SWIDTH 541 0
DWIDTH 9 0
BBX 7 12 1 0
BITMAP
1BE0
3960
B000
E000
D000
D014
D028
D02C
E01C
B028
3974
1BD0
ENDCHAR
STARTCHAR uni050D
ENCODING 1293
SWIDTH 452 0
DWIDTH 7 0
BBX 7 9 0 0
BITMAP
0BE0
1D50
3400
3400
7410
3434
3434
1D74
0BE0
ENDCHAR
STARTCHAR uni050E
ENCODING 1294
SWIDTH 616 0
DWIDTH 10 0
BBX 9 12 0 0
BITMAP
BFFF00
16D500
02C000
02C000
02C140
02C2C0
02C1C0
02C1C0
02C1C0
02C280
01D740
00BD00
ENDCHAR
STARTCHAR uni050F
ENCODING 1295
SWIDTH 558 0
DWIDTH 9 0
BBX 8 9 0 0
BITMAP
7FF8
1750
0340
0347
0347
0347
0347
029E
01F8
ENDCHAR
STARTCHAR uni0510
ENCODING 1296
SWIDTH 589 0
DWIDTH 9 0
BBX 8 12 1 0
BITMAP
1BE0
797C
B00D
A004
7400
1FC0
7940
A000
A005
B00D
796C
1BE4
ENDCHAR
STARTCHAR uni0511
ENCODING 1297
SWIDTH 470 0
DWIDTH 8 0
BBX 7 9 0 0
BITMAP
0BD0
2974
3424
3800
1FC0
3900
7414
3974
1BE0
ENDCHAR
STARTCHAR uni0512
ENCODING 1298
SWIDTH 664 0
DWIDTH 11 0
BBX 10 15 0 -3
BITMAP
07FF80
0B5780
0B0380
0B0380
0A0380
0A0380
0A0380
0A0380
0A0380
0D0380
2C0390
B403F0
000070
0001A0
0003D0
ENDCHAR
STARTCHAR uni0513
ENCODING 1299
SWIDTH 553 0
DWIDTH 9 0
BBX 9 12 0 -3
BITMAP
0FFC00
0D6C00
0D1C00
0D1C00
0D1C00
0C1C00
1C1C00
681D00
B41F40
000340
000740
001E00
ENDCHAR
STARTCHAR uni1E00
ENCODING 7680
SWIDTH 576 0
DWIDTH 9 0
BBX 9 16 0 -4
BITMAP
00D000
01E000
02B000
037400
072800
0A1C00
0D1D00
1D0E00
2FFF00
395700
740340
B00280
000000
01D000
016000
01E000
ENDCHAR
STARTCHAR uni1E01
ENCODING 7681
SWIDTH 479 0
DWIDTH 8 0
BBX 6 13 1 -4
BITMAP
2F80
B5D0
90E0
00A0
2FE0
A4A0
D0A0
E6E0
7EA0
0000
1D00
2600
1D00
ENDCHAR
STARTCHAR uni1E3E
ENCODING 7742
SWIDTH 755 0
DWIDTH 12 0
BBX 10 15 1 0
BITMAP
002C00
006000
000000
B400F0
B801F0
BC02F0
AC03B0
AD07B0
AA0AB0
A70DB0
A35CB0
A2A8B0
A1F4B0
A0F0B0
A0A0B0
ENDCHAR
STARTCHAR uni1E3F
ENCODING 7743
SWIDTH 752 0
DWIDTH 12 0
BBX 10 12 1 0
BITMAP
002C00
006000
000000
EB8B80
F5F9E0
D0B070
D0A070
D0A070
D0A070
D0A070
D0A070
D0A070
ENDCHAR
STARTCHAR Wgrave
ENCODING 7808
SWIDTH 761 0
DWIDTH 12 0
BBX 12 15 0 0
BITMAP
00B000
002800
000000
702C0A
342C0D
343D0D
283A1C
28661C
1CA728
1C9328
0DC274
0EC2B0
0B81F0
0740E0
0740E0
ENDCHAR
STARTCHAR wgrave
ENCODING 7809
SWIDTH 649 0
DWIDTH 10 0
BBX 10 12 0 0
BITMAP
02C000
00A000
000000
707070
70B0A0
34F4D0
25E8D0
299DC0
1E4E80
0F4B40
0F0B40
0A0700
ENDCHAR
STARTCHAR Wacute
ENCODING 7810
SWIDTH 761 0
DWIDTH 12 0
BBX 12 15 0 0
BITMAP
000B40
001D00
000000
702C0A
342C0D
343D0D
283A1C
28661C
1CA728
1C9328
0DC274
0EC2B0
0B81F0
0740E0
0740E0
ENDCHAR
STARTCHAR wacute
ENCODING 7811
SWIDTH 649 0
DWIDTH 10 0
BBX 10 12 0 0
BITMAP
002D00
007000
000000
707070
70B0A0
34F4D0
25E8D0
299DC0
1E4E80
0F4B40
0F0B40
0A0700
ENDCHAR
STARTCHAR Wdieresis
ENCODING 7812
SWIDTH 761 0
DWIDTH 12 0
BBX 12 15 0 0
BITMAP
008140
00D280
000000
702C0A
342C0D
343D0D
283A1C
28661C
1CA728
1C9328
0DC274
0EC2B0
0B81F0
0740E0
0740E0
ENDCHAR
STARTCHAR wdieresis
ENCODING 7813
SWIDTH 649 0
DWIDTH 10 0
BBX 10 12 0 0
BITMAP
020500
074A00
000000
707070
70B0A0
34F4D0
25E8D0
299DC0
1E4E80
0F4B40
0F0B40
0A0700
ENDCHAR
STARTCHAR uni1EA0
ENCODING 7840
SWIDTH 576 0
DWIDTH 9 0
BBX 9 15 0 -3
BITMAP
00D000
01E000
02B000
037400
072800
0A1C00
0D1D00
1D0E00
2FFF00
395700
740340
B00280
000000
00D000
009000
ENDCHAR
STARTCHAR uni1EA1
ENCODING 7841
SWIDTH 479 0
DWIDTH 8 0
BBX 6 12 1 -3
BITMAP
2F80
B5D0
90E0
00A0
2FE0
A4A0
D0A0
E6E0
7EA0
0000
1C00
0800
ENDCHAR
STARTCHAR uni1EA2
ENCODING 7842
SWIDTH 576 0
DWIDTH 9 0
BBX 9 16 0 0
BITMAP
00E000
007000
009000
000000
00D000
01E000
02B000
037400
072800
0A1C00
0D1D00
1D0E00
2FFF00
395700
740340
B00280
ENDCHAR
STARTCHAR uni1EA3
ENCODING 7843
SWIDTH 479 0
DWIDTH 8 0
BBX 6 13 1 0
BITMAP
0A00
0240
0600
0000
2F80
B5D0
90E0
00A0
2FE0
A4A0
D0A0
E6E0
7EA0
ENDCHAR
STARTCHAR uni1EA4
ENCODING 7844
SWIDTH 576 0
DWIDTH 9 0
BBX 9 16 0 0
BITMAP
000280
02E600
072800
000000
00D000
01E000
02B000
037400
072800
0A1C00
0D1D00
1D0E00
2FFF00
395700
740340
B00280
ENDCHAR
STARTCHAR uni1EA5
ENCODING 7845
SWIDTH 479 0
DWIDTH 8 0
BBX 7 13 1 0
BITMAP
001C
1F64
35C0
0000
2F80
B5D0
90E0
00A0
2FE0
A4A0
D0A0
E6E0
7EA0
ENDCHAR
STARTCHAR uni1EA6
ENCODING 7846
SWIDTH 576 0
DWIDTH 9 0
BBX 9 16 0 0
BITMAP
700000
26E000
072800
000000
00D000
01E000
02B000
037400
072800
0A1C00
0D1D00
1D0E00
2FFF00
395700
740340
B00280
ENDCHAR
STARTCHAR uni1EA7
ENCODING 7847
SWIDTH 479 0
DWIDTH 8 0
BBX 7 13 0 0
BITMAP
D000
67D0
0D60
0000
0BE0
2D74
2438
0028
0BF8
2928
3428
39B8
1FA8
ENDCHAR
STARTCHAR uni1EA8
ENCODING 7848
SWIDTH 576 0
DWIDTH 9 0
BBX 9 17 0 0
BITMAP
000600
000300
02EA00
062800
000000
00D000
01E000
02B000
037400
072800
0A1C00
0D1D00
1D0E00
2FFF00
395700
740340
B00280
ENDCHAR
STARTCHAR uni1EA9
ENCODING 7849
SWIDTH 479 0
DWIDTH 8 0
BBX 7 14 1 0
BITMAP
0064
0024
1F60
35C0
0000
2F80
B5D0
90E0
00A0
2FE0
A4A0
D0A0
E6E0
7EA0
ENDCHAR
STARTCHAR uni1EAA
ENCODING 7850
SWIDTH 576 0
DWIDTH 9 0
BBX 9 18 0 0
BITMAP
029400
027000
000000
02E000
062800
000000
00D000
01E000
02B000
037400
072800
0A1C00
0D1D00
1D0E00
2FFF00
395700
740340
B00280
ENDCHAR
STARTCHAR uni1EAB
ENCODING 7851
SWIDTH 479 0
DWIDTH 8 0
BBX 6 15 1 0
BITMAP
1880
2740
0000
1F40
35C0
0000
2F80
B5D0
90E0
00A0
2FE0
A4A0
D0A0
E6E0
7EA0
ENDCHAR
STARTCHAR uni1EAC
ENCODING 7852
SWIDTH 576 0
DWIDTH 9 0
BBX 9 18 0 -3
BITMAP
01E000
026400
000000
00D000
01E000
02B000
037400
072800
0A1C00
0D1D00
1D0E00
2FFF00
395700
740340
B00280
000000
00D000
009000
ENDCHAR
STARTCHAR uni1EAD
ENCODING 7853
SWIDTH 479 0
DWIDTH 8 0
BBX 6 15 1 -3
BITMAP
0E00
2580
0000
2F80
B5D0
90E0
00A0
2FE0
A4A0
D0A0
E6E0
7EA0
0000
1C00
0800
ENDCHAR
STARTCHAR uni1EAE
ENCODING 7854
SWIDTH 576 0
DWIDTH 9 0
BBX 9 17 0 0
BITMAP
006000
009000
072800
02E000
000000
00D000
01E000
02B000
037400
072800
0A1C00
0D1D00
1D0E00
2FFF00
395700
740340
B00280
ENDCHAR
STARTCHAR uni1EAF
ENCODING 7855
SWIDTH 479 0
DWIDTH 8 0
BBX 6 14 1 0
BITMAP
0300
0600
35C0
1F40
0000
2F80
B5D0
90E0
00A0
2FE0
A4A0
D0A0
E6E0
7EA0
ENDCHAR
STARTCHAR uni1EB0
ENCODING 7856
SWIDTH 576 0
DWIDTH 9 0
BBX 9 17 0 0
BITMAP
018000
008000
072800
02E000
000000
00D000
01E000
02B000
037400
072800
0A1C00
0D1D00
1D0E00
2FFF00
395700
740340
B00280
ENDCHAR
STARTCHAR uni1EB1
ENCODING 7857
SWIDTH 479 0
DWIDTH 8 0
BBX 6 14 1 0
BITMAP
0C00
0900
35C0
1F40
0000
2F80
B5D0
90E0
00A0
2FE0
A4A0
D0A0
E6E0
7EA0
ENDCHAR
STARTCHAR uni1EB2
ENCODING 7858
SWIDTH 576 0
DWIDTH 9 0
BBX 9 18 0 0
BITMAP
00A000
007000
00D000
072400
02E000
000000
00D000
01E000
02B000
037400
072800
0A1C00
0D1D00
1D0E00
2FFF00
395700
740340
B00280
ENDCHAR
STARTCHAR uni1EB3
ENCODING 7859
SWIDTH 479 0
DWIDTH 8 0
BBX 6 15 1 0
BITMAP
0600
0340
0A00
3580
1F40
0000
2F80
B5D0
90E0
00A0
2FE0
A4A0
D0A0
E6E0
7EA0
ENDCHAR
STARTCHAR uni1EB4
ENCODING 7860
SWIDTH 576 0
DWIDTH 9 0
BBX 9 18 0 0
BITMAP
029400
027000
000000
072400
02E000
000000
00D000
01E000
02B000
037400
072800
0A1C00
0D1D00
1D0E00
2FFF00
395700
740340
B00280
ENDCHAR
STARTCHAR uni1EB5
ENCODING 7861
SWIDTH 479 0
DWIDTH 8 0
BBX 6 15 1 0
BITMAP
1C80
2740
0000
3580
1F40
0000
2F80
B5D0
90E0
00A0
2FE0
A4A0
D0A0
E6E0
7EA0
ENDCHAR
STARTCHAR uni1EB6
ENCODING 7862
SWIDTH 576 0
DWIDTH 9 0
BBX 9 18 0 -3
BITMAP
0A1C00
02F400
000000
00D000
01E000
02B000
037400
072800
0A1C00
0D1D00
1D0E00
2FFF00
395700
740340
B00280
000000
00D000
009000
ENDCHAR
STARTCHAR uni1EB7
ENCODING 7863
SWIDTH 479 0
DWIDTH 8 0
BBX 6 15 1 -3
BITMAP
70D0
2F80
0000
2F80
B5D0
90E0
00A0
2FE0
A4A0
D0A0
E6E0
7EA0
0000
1C00
0800
ENDCHAR
STARTCHAR uni1EB8
ENCODING 7864
SWIDTH 496 0
DWIDTH 8 0
BBX 7 15 1 -3
BITMAP
BFF4
A550
A000
A000
A000
BFE0
A540
A000
A000
A000
A550
BFF4
0000
0600
0500
ENDCHAR
STARTCHAR uni1EB9
ENCODING 7865
SWIDTH 468 0
DWIDTH 8 0
BBX 7 12 0 -3
BITMAP
0BE0
2D74
3428
342C
7FFC
7550
3400
2D68
0BE0
0000
0240
0140
ENDCHAR
STARTCHAR uni1EBA
ENCODING 7866
SWIDTH 496 0
DWIDTH 8 0
BBX 7 16 1 0
BITMAP
0740
0280
0700
0000
BFF4
A550
A000
A000
A000
BFE0
A540
A000
A000
A000
A550
BFF4
ENDCHAR
STARTCHAR uni1EBB
ENCODING 7867
SWIDTH 468 0
DWIDTH 8 0
BBX 7 13 0 0
BITMAP
0280
00D0
0280
0000
0BE0
2D74
3428
342C
7FFC
7550
3400
2D68
0BE0
ENDCHAR
STARTCHAR uni1EBC
ENCODING 7868
SWIDTH 496 0
DWIDTH 8 0
BBX 7 15 1 0
BITMAP
2DA0
32C0
0000
BFF4
A550
A000
A000
A000
BFE0
A540
A000
A000
A000
A550
BFF4
ENDCHAR
STARTCHAR uni1EBD
ENCODING 7869
SWIDTH 468 0
DWIDTH 8 0
BBX 7 12 0 0
BITMAP
0E70
19E0
0000
0BE0
2D74
3428
342C
7FFC
7550
3400
2D68
0BE0
ENDCHAR
STARTCHAR uni1EBE
ENCODING 7870
SWIDTH 496 0
DWIDTH 8 0
BBX 8 16 1 0
BITMAP
001D
0B58
29D0
0000
BFF4
A550
A000
A000
A000
BFE0
A540
A000
A000
A000
A550
BFF4
ENDCHAR
STARTCHAR uni1EBF
ENCODING 7871
SWIDTH 468 0
DWIDTH 8 0
BBX 8 13 0 0
BITMAP
000B
07D9
1DA0
0000
0BE0
2D74
3428
342C
7FFC
7550
3400
2D68
0BE0
ENDCHAR
STARTCHAR uni1EC0
ENCODING 7872
SWIDTH 496 0
DWIDTH 8 0
BBX 8 16 0 0
BITMAP
A000
26D0
0A74
0000
2FFD
2954
2800
2800
2800
2FF8
2950
2800
2800
2800
2954
2FFD
ENDCHAR
STARTCHAR uni1EC1
ENCODING 7873
SWIDTH 468 0
DWIDTH 8 0
BBX 8 13 -1 0
BITMAP
7400
19F4
0768
0000
02F8
0B5D
0D0A
0D0B
1FFF
1D54
0D00
0B5A
02F8
ENDCHAR
STARTCHAR uni1EC2
ENCODING 7874
SWIDTH 496 0
DWIDTH 8 0
BBX 7 17 1 0
BITMAP
0024
0018
1F70
2490
0000
BFF4
A550
A000
A000
A000
BFE0
A540
A000
A000
A000
A550
BFF4
ENDCHAR
STARTCHAR uni1EC3
ENCODING 7875
SWIDTH 468 0
DWIDTH 8 0
BBX 8 14 0 0
BITMAP
0018
0009
07E8
1860
0000
0BE0
2D74
3428
342C
7FFC
7550
3400
2D68
0BE0
ENDCHAR
STARTCHAR uni1EC4
ENCODING 7876
SWIDTH 496 0
DWIDTH 8 0
BBX 7 18 1 0
BITMAP
1D80
1680
0000
0B40
2490
0000
BFF4
A550
A000
A000
A000
BFE0
A540
A000
A000
A000
A550
BFF4
ENDCHAR
STARTCHAR uni1EC5
ENCODING 7877
SWIDTH 468 0
DWIDTH 8 0
BBX 7 15 0 0
BITMAP
0A50
09D0
0000
0790
1C60
0000
0BE0
2D74
3428
342C
7FFC
7550
3400
2D68
0BE0
ENDCHAR
STARTCHAR uni1EC6
ENCODING 7878
SWIDTH 496 0
DWIDTH 8 0
BBX 7 18 1 -3
BITMAP
0B40
1980
0000
BFF4
A550
A000
A000
A000
BFE0
A540
A000
A000
A000
A550
BFF4
0000
0600
0500
ENDCHAR
STARTCHAR uni1EC7
ENCODING 7879
SWIDTH 468 0
DWIDTH 8 0
BBX 7 15 0 -3
BITMAP
0780
09A0
0000
0BE0
2D74
3428
342C
7FFC
7550
3400
2D68
0BE0
0000
0240
0140
ENDCHAR
STARTCHAR uni1EC8
ENCODING 7880
SWIDTH 250 0
DWIDTH 4 0
BBX 3 16 1 0
BITMAP
A0
24
60
00
A0
A0
A0
A0
A0
A0
A0
A0
A0
A0
A0
A0
ENDCHAR
STARTCHAR uni1EC9
ENCODING 7881
SWIDTH 234 0
DWIDTH 4 0
BBX 3 13 1 0
BITMAP
A0
34
A0
00
E0
E0
E0
E0
E0
E0
E0
E0
E0
ENDCHAR
STARTCHAR uni1ECA
ENCODING 7882
SWIDTH 250 0
DWIDTH 4 0
BBX 2 15 1 -3
BITMAP
A0
A0
A0
A0
A0
A0
A0
A0
A0
A0
A0
A0
00
A0
50
ENDCHAR
STARTCHAR uni1ECB
ENCODING 7883
SWIDTH 229 0
DWIDTH 4 0
BBX 2 15 1 -3
BITMAP
50
90
00
E0
E0
E0
E0
E0
E0
E0
E0
E0
00
D0
90
ENDCHAR
STARTCHAR uni1ECC
ENCODING 7884
SWIDTH 600 0
DWIDTH 10 0
BBX 8 15 1 -3
BITMAP
1BE0
3978
B01D
E00D
D00E
D00A
D00A
D00E
E00D
B01D
3978
1BE0
0000
0340
0240
ENDCHAR
STARTCHAR uni1ECD
ENCODING 7885
SWIDTH 501 0
DWIDTH 8 0
BBX 8 12 0 -3
BITMAP
0BE0
2D78
341C
740D
700D
740D
341C
2D78
0BE0
0000
0280
0140
ENDCHAR
STARTCHAR uni1ECE
ENCODING 7886
SWIDTH 600 0
DWIDTH 10 0
BBX 8 16 1 0
BITMAP
0280
00D0
0280
0000
1BE0
3978
B01D
E00D
D00E
D00A
D00A
D00E
E00D
B01D
3978
1BE0
ENDCHAR
STARTCHAR uni1ECF
ENCODING 7887
SWIDTH 501 0
DWIDTH 8 0
BBX 8 13 0 0
BITMAP
0280
0090
0280
0000
0BE0
2D78
341C
740D
700D
740D
341C
2D78
0BE0
ENDCHAR
STARTCHAR uni1ED0
ENCODING 7888
SWIDTH 600 0
DWIDTH 10 0
BBX 8 16 1 0
BITMAP
000B
07D9
1DA0
0000
1BE0
3978
B01D
E00D
D00E
D00A
D00A
D00E
E00D
B01D
3978
1BE0
ENDCHAR
STARTCHAR uni1ED1
ENCODING 7889
SWIDTH 501 0
DWIDTH 8 0
BBX 8 13 0 0
BITMAP
0007
07D9
1D60
0000
0BE0
2D78
341C
740D
700D
740D
341C
2D78
0BE0
ENDCHAR
STARTCHAR uni1ED2
ENCODING 7890
SWIDTH 600 0
DWIDTH 10 0
BBX 9 16 0 0
BITMAP
740000
29F400
076800
000000
06F800
0E5E00
2C0740
380340
340380
340280
340280
340380
380340
2C0740
0E5E00
06F800
ENDCHAR
STARTCHAR uni1ED3
ENCODING 7891
SWIDTH 501 0
DWIDTH 8 0
BBX 8 13 0 0
BITMAP
D000
67D0
1D60
0000
0BE0
2D78
341C
740D
700D
740D
341C
2D78
0BE0
ENDCHAR
STARTCHAR uni1ED4
ENCODING 7892
SWIDTH 600 0
DWIDTH 10 0
BBX 8 17 1 0
BITMAP
0018
0009
07E8
1860
0000
1BE0
3978
B01D
E00D
D00E
D00A
D00A
D00E
E00D
B01D
3978
1BE0
ENDCHAR
STARTCHAR uni1ED5
ENCODING 7893
SWIDTH 501 0
DWIDTH 8 0
BBX 8 14 0 0
BITMAP
0018
0009
07D8
1C70
0000
0BE0
2D78
341C
740D
700D
740D
341C
2D78
0BE0
ENDCHAR
STARTCHAR uni1ED6
ENCODING 7894
SWIDTH 600 0
DWIDTH 10 0
BBX 8 18 1 0
BITMAP
0A50
09C0
0000
0780
1C60
0000
1BE0
3978
B01D
E00D
D00E
D00A
D00A
D00E
E00D
B01D
3978
1BE0
ENDCHAR
STARTCHAR uni1ED7
ENCODING 7895
SWIDTH 501 0
DWIDTH 8 0
BBX 8 15 0 0
BITMAP
0620
09D0
0000
07D0
1D60
0000
0BE0
2D78
341C
740D
700D
740D
341C
2D78
0BE0
ENDCHAR
STARTCHAR uni1ED8
ENCODING 7896
SWIDTH 600 0
DWIDTH 10 0
BBX 8 18 1 -3
BITMAP
0780
09A0
0000
1BE0
3978
B01D
E00D
D00E
D00A
D00A
D00E
E00D
B01D
3978
1BE0
0000
0340
0240
ENDCHAR
STARTCHAR uni1ED9
ENCODING 7897
SWIDTH 501 0
DWIDTH 8 0
BBX 8 15 0 -3
BITMAP
0380
0960
0000
0BE0
2D78
341C
740D
700D
740D
341C
2D78
0BE0
0000
0280
0140
ENDCHAR
STARTCHAR uni1EDA
ENCODING 7898
SWIDTH 592 0
DWIDTH 9 0
BBX 10 15 0 0
BITMAP
003800
00A000
0000A0
06F4D0
0E6F80
280B00
340740
340340
740380
740380
340340
340340
280B00
0E6D00
06F400
ENDCHAR
STARTCHAR uni1EDB
ENCODING 7899
SWIDTH 502 0
DWIDTH 8 0
BBX 8 12 0 0
BITMAP
00A0
0180
0002
0BE7
1D7D
341C
341D
700D
341C
341C
1D78
0BE0
ENDCHAR
STARTCHAR uni1EDC
ENCODING 7900
SWIDTH 592 0
DWIDTH 9 0
BBX 10 15 0 0
BITMAP
078000
01D000
0000A0
06F4D0
0E6F80
280B00
340740
340340
740380
740380
340340
340340
280B00
0E6D00
06F400
ENDCHAR
STARTCHAR uni1EDD
ENCODING 7901
SWIDTH 502 0
DWIDTH 8 0
BBX 8 12 0 0
BITMAP
0E00
0240
0002
0BE7
1D7D
341C
341D
700D
341C
341C
1D78
0BE0
ENDCHAR
STARTCHAR uni1EDE
ENCODING 7902
SWIDTH 592 0
DWIDTH 9 0
BBX 10 16 0 0
BITMAP
00A000
003000
00A000
0000A0
06F4D0
0E6F80
280B00
340740
340340
740380
740380
340340
340340
280B00
0E6D00
06F400
ENDCHAR
STARTCHAR uni1EDF
ENCODING 7903
SWIDTH 502 0
DWIDTH 8 0
BBX 8 13 0 0
BITMAP
0280
0090
0180
0002
0BE7
1D7D
341C
341D
700D
341C
341C
1D78
0BE0
ENDCHAR
STARTCHAR uni1EE0
ENCODING 7904
SWIDTH 592 0
DWIDTH 9 0
BBX 10 15 0 0
BITMAP
079C00
097800
0000A0
06F4D0
0E6F80
280B00
340740
340340
740380
740380
340340
340340
280B00
0E6D00
06F400
ENDCHAR
STARTCHAR uni1EE1
ENCODING 7905
SWIDTH 502 0
DWIDTH 8 0
BBX 8 12 0 0
BITMAP
0F64
19E0
0002
0BE7
1D7D
341C
341D
700D
341C
341C
1D78
0BE0
ENDCHAR
STARTCHAR uni1EE2
ENCODING 7906
SWIDTH 592 0
DWIDTH 9 0
BBX 10 16 0 -3
BITMAP
0000A0
06F4D0
0E6F80
280B00
340740
340340
740380
740380
340340
340340
280B00
0E6D00
06F400
000000
00D000
008000
ENDCHAR
STARTCHAR uni1EE3
ENCODING 7907
SWIDTH 502 0
DWIDTH 8 0
BBX 8 13 0 -3
BITMAP
0002
0BE7
1D7D
341C
341D
700D
341C
341C
1D78
0BE0
0000
0280
0140
ENDCHAR
STARTCHAR uni1EE4
ENCODING 7908
SWIDTH 561 0
DWIDTH 9 0
BBX 7 15 1 -3
BITMAP
D01C
D01C
D01C
D01C
D01C
D01C
D01C
D01C
D01C
A02C
7574
1FD0
0000
0700
0200
ENDCHAR
STARTCHAR uni1EE5
ENCODING 7909
SWIDTH 483 0
DWIDTH 8 0
BBX 6 12 1 -3
BITMAP
D0A0
D0A0
D0A0
D0A0
D0A0
D0A0
D0A0
B6E0
2EA0
0000
1C00
0800
ENDCHAR
STARTCHAR uni1EE6
ENCODING 7910
SWIDTH 561 0
DWIDTH 9 0
BBX 7 16 1 0
BITMAP
0340
01C0
0340
0000
D01C
D01C
D01C
D01C
D01C
D01C
D01C
D01C
D01C
A02C
7574
1FD0
ENDCHAR
STARTCHAR uni1EE7
ENCODING 7911
SWIDTH 483 0
DWIDTH 8 0
BBX 6 13 1 0
BITMAP
0A00
0340
0A00
0000
D0A0
D0A0
D0A0
D0A0
D0A0
D0A0
D0A0
B6E0
2EA0
ENDCHAR
STARTCHAR uni1EE8
ENCODING 7912
SWIDTH 608 0
DWIDTH 10 0
BBX 10 15 1 0
BITMAP
00E000
028000
000040
D01C90
D01DD0
D01F40
D01C00
D01C00
D01C00
D01C00
D01C00
D01C00
A02800
79B400
1FD000
ENDCHAR
STARTCHAR uni1EE9
ENCODING 7913
SWIDTH 549 0
DWIDTH 9 0
BBX 8 12 1 0
BITMAP
0280
0600
0006
D0A6
D0B8
D0A0
D0A0
D0A0
D0A0
D0A0
B6E0
2EA0
ENDCHAR
STARTCHAR uni1EEA
ENCODING 7914
SWIDTH 608 0
DWIDTH 10 0
BBX 10 15 1 0
BITMAP
1E0000
074000
000040
D01C90
D01DD0
D01F40
D01C00
D01C00
D01C00
D01C00
D01C00
D01C00
A02800
79B400
1FD000
ENDCHAR
STARTCHAR uni1EEB
ENCODING 7915
SWIDTH 549 0
DWIDTH 9 0
BBX 8 12 1 0
BITMAP
3800
0900
0006
D0A6
D0B8
D0A0
D0A0
D0A0
D0A0
D0A0
B6E0
2EA0
ENDCHAR
STARTCHAR uni1EEC
ENCODING 7916
SWIDTH 608 0
DWIDTH 10 0
BBX 10 16 1 0
BITMAP
028000
00D000
028000
000040
D01C90
D01DD0
D01F40
D01C00
D01C00
D01C00
D01C00
D01C00
D01C00
A02800
79B400
1FD000
ENDCHAR
STARTCHAR uni1EED
ENCODING 7917
SWIDTH 549 0
DWIDTH 9 0
BBX 8 13 1 0
BITMAP
0A00
0240
0600
0006
D0A6
D0B8
D0A0
D0A0
D0A0
D0A0
D0A0
B6E0
2EA0
ENDCHAR
STARTCHAR uni1EEE
ENCODING 7918
SWIDTH 608 0
DWIDTH 10 0
BBX 10 15 1 0
BITMAP
1E7000
25E000
000040
D01C90
D01DD0
D01F40
D01C00
D01C00
D01C00
D01C00
D01C00
D01C00
A02800
79B400
1FD000
ENDCHAR
STARTCHAR uni1EEF
ENCODING 7919
SWIDTH 549 0
DWIDTH 9 0
BBX 8 12 1 0
BITMAP
3D90
6780
0006
D0A6
D0B8
D0A0
D0A0
D0A0
D0A0
D0A0
B6E0
2EA0
ENDCHAR
STARTCHAR uni1EF0
ENCODING 7920
SWIDTH 608 0
DWIDTH 10 0
BBX 10 16 1 -3
BITMAP
000040
D01C90
D01DD0
D01F40
D01C00
D01C00
D01C00
D01C00
D01C00
D01C00
A02800
79B400
1FD000
000000
034000
024000
ENDCHAR
STARTCHAR uni1EF1
ENCODING 7921
SWIDTH 549 0
DWIDTH 9 0
BBX 8 13 1 -3
BITMAP
0006
D0A6
D0B8
D0A0
D0A0
D0A0
D0A0
D0A0
B6E0
2EA0
0000
0D00
0900
ENDCHAR
STARTCHAR Ygrave
ENCODING 7922
SWIDTH 524 0
DWIDTH 8 0
BBX 8 15 0 0
BITMAP
0B00
0280
0000
B00B
340D
281C
1D38
0E74
07A0
03D0
02C0
02C0
02C0
02C0
02C0
ENDCHAR
STARTCHAR ygrave
ENCODING 7923
SWIDTH 416 0
DWIDTH 7 0
BBX 7 15 0 -3
BITMAP
1D00
0600
0000
B074
7070
34A0
28D0
1DC0
0E80
0B80
0B40
0700
0A00
1D00
7800
ENDCHAR
STARTCHAR uni1EF4
ENCODING 7924
SWIDTH 524 0
DWIDTH 8 0
BBX 8 15 0 -3
BITMAP
B00B
340D
281C
1D38
0E74
07A0
03D0
02C0
02C0
02C0
02C0
02C0
0000
0280
0140
ENDCHAR
STARTCHAR uni1EF5
ENCODING 7925
SWIDTH 416 0
DWIDTH 7 0
BBX 7 13 0 -4
BITMAP
B074
7070
34A0
28D0
1DC0
0E80
0B80
0B40
0700
0A00
1D00
78D0
0090
ENDCHAR
STARTCHAR uni1EF6
ENCODING 7926
SWIDTH 524 0
DWIDTH 8 0
BBX 8 16 0 0
BITMAP
01D0
00A0
01C0
0000
B00B
340D
281C
1D38
0E74
07A0
03D0
02C0
02C0
02C0
02C0
02C0
ENDCHAR
STARTCHAR uni1EF7
ENCODING 7927
SWIDTH 416 0
DWIDTH 7 0
BBX 7 16 0 -3
BITMAP
0340
01C0
0340
0000
B074
7070
34A0
28D0
1DC0
0E80
0B80
0B40
0700
0A00
1D00
7800
ENDCHAR
STARTCHAR uni1EF8
ENCODING 7928
SWIDTH 524 0
DWIDTH 8 0
BBX 8 15 0 0
BITMAP
0B68
0CB0
0000
B00B
340D
281C
1D38
0E74
07A0
03D0
02C0
02C0
02C0
02C0
02C0
ENDCHAR
STARTCHAR uni1EF9
ENCODING 7929
SWIDTH 416 0
DWIDTH 7 0
BBX 7 15 0 -3
BITMAP
1E60
26D0
0000
B074
7070
34A0
28D0
1DC0
0E80
0B80
0B40
0700
0A00
1D00
7800
ENDCHAR
STARTCHAR uni1F4D
ENCODING 8013
SWIDTH 634 0
DWIDTH 10 0
BBX 13 12 -3 0
BITMAP
DB0BE400
D92E6D00
68340A00
00700700
00700700
00700740
00700740
00700700
00700700
00340A00
002E6D00
000BE400
ENDCHAR
STARTCHAR uni2000
ENCODING 8192
SWIDTH 447 0
DWIDTH 7 0
BBX 1 1 0 0
BITMAP
00
ENDCHAR
STARTCHAR uni2001
ENCODING 8193
SWIDTH 876 0
DWIDTH 14 0
BBX 1 1 0 0
BITMAP
00
ENDCHAR
STARTCHAR uni2002
ENCODING 8194
SWIDTH 447 0
DWIDTH 7 0
BBX 1 1 0 0
BITMAP
00
ENDCHAR
STARTCHAR uni2003
ENCODING 8195
SWIDTH 876 0
DWIDTH 14 0
BBX 1 1 0 0
BITMAP
00
ENDCHAR
STARTCHAR uni2004
ENCODING 8196
SWIDTH 305 0
DWIDTH 5 0
BBX 1 1 0 0
BITMAP
00
ENDCHAR
STARTCHAR uni2005
ENCODING 8197
SWIDTH 233 0
DWIDTH 4 0
BBX 1 1 0 0
BITMAP
00
ENDCHAR
STARTCHAR uni2006
ENCODING 8198
SWIDTH 162 0
DWIDTH 3 0
BBX 1 1 0 0
BITMAP
00
ENDCHAR
STARTCHAR uni2007
ENCODING 8199
SWIDTH 491 0
DWIDTH 8 0
BBX 1 1 0 0
BITMAP
00
ENDCHAR
STARTCHAR uni2008
ENCODING 8200
SWIDTH 249 0
DWIDTH 4 0
BBX 1 1 0 0
BITMAP
00
ENDCHAR
STARTCHAR uni2009
ENCODING 8201
SWIDTH 190 0
DWIDTH 3 0
BBX 1 1 0 0
BITMAP
00
ENDCHAR
STARTCHAR uni200A
ENCODING 8202
SWIDTH 105 0
DWIDTH 2 0
BBX 1 1 0 0
BITMAP
00
ENDCHAR
STARTCHAR uni200B
ENCODING 8203
SWIDTH 0 0
DWIDTH 0 0
BBX 1 1 0 0
BITMAP
00
ENDCHAR
STARTCHAR uni2010
ENCODING 8208
SWIDTH 248 0
DWIDTH 4 0
BBX 4 2 0 3
BITMAP
BE
14
ENDCHAR
STARTCHAR uni2011
ENCODING 8209
SWIDTH 248 0
DWIDTH 4 0
BBX 4 2 0 3
BITMAP
BE
14
ENDCHAR
STARTCHAR endash
ENCODING 8211
SWIDTH 572 0
DWIDTH 9 0
BBX 7 2 1 4
BITMAP
BFF8
1550
ENDCHAR
STARTCHAR emdash
ENCODING 8212
SWIDTH 678 0
DWIDTH 11 0
BBX 9 2 1 4
BITMAP
BFFFC0
155540
ENDCHAR
STARTCHAR uni2015
ENCODING 8213
SWIDTH 678 0
DWIDTH 11 0
BBX 9 2 1 4
BITMAP
BFFFC0
155540
ENDCHAR
STARTCHAR underscoredbl
ENCODING 8215
SWIDTH 402 0
DWIDTH 6 0
BBX 7 4 0 -4
BITMAP
BFF4
1550
BFF4
1550
ENDCHAR
STARTCHAR quoteleft
ENCODING 8216
SWIDTH 194 0
DWIDTH 3 0
BBX 3 4 0 8
BITMAP
18
34
34
70
ENDCHAR
STARTCHAR quoteright
ENCODING 8217
SWIDTH 194 0
DWIDTH 3 0
BBX 3 4 0 8
BITMAP
34
34
70
60
ENDCHAR
STARTCHAR quotesinglbase
ENCODING 8218
SWIDTH 194 0
DWIDTH 3 0
BBX 3 4 0 -2
BITMAP
10
34
70
60
ENDCHAR
STARTCHAR quotereversed
ENCODING 8219
SWIDTH 194 0
DWIDTH 3 0
BBX 3 4 0 8
BITMAP
70
70
34
24
ENDCHAR
STARTCHAR quotedblleft
ENCODING 8220
SWIDTH 333 0
DWIDTH 5 0
BBX 4 4 1 8
BITMAP
62
9A
DE
DD
ENDCHAR
STARTCHAR quotedblright
ENCODING 8221
SWIDTH 337 0
DWIDTH 5 0
BBX 5 4 0 8
BITMAP
2A80
3680
3740
6200
ENDCHAR
STARTCHAR quotedblbase
ENCODING 8222
SWIDTH 326 0
DWIDTH 5 0
BBX 5 4 0 -2
BITMAP
3640
3740
7740
6600
ENDCHAR
STARTCHAR dagger
ENCODING 8224
SWIDTH 482 0
DWIDTH 8 0
BBX 7 12 0 0
BITMAP
0380
0380
0380
7FFC
1794
0380
0380
0380
0380
0380
0380
0380
ENDCHAR
STARTCHAR daggerdbl
ENCODING 8225
SWIDTH 500 0
DWIDTH 8 0
BBX 8 15 0 -3
BITMAP
0280
0280
0280
7FFD
1694
0280
0280
0280
0280
0280
1694
7FFD
0280
0280
0280
ENDCHAR
STARTCHAR bullet
ENCODING 8226
SWIDTH 336 0
DWIDTH 5 0
BBX 4 4 1 4
BITMAP
78
FD
BC
14
ENDCHAR
STARTCHAR twodotenleader
ENCODING 8229
SWIDTH 420 0
DWIDTH 7 0
BBX 5 2 1 0
BITMAP
5140
A280
ENDCHAR
STARTCHAR ellipsis
ENCODING 8230
SWIDTH 590 0
DWIDTH 9 0
BBX 8 2 1 0
BITMAP
5149
A28D
ENDCHAR
STARTCHAR uni2027
ENCODING 8231
SWIDTH 181 0
DWIDTH 3 0
BBX 2 2 0 4
BITMAP
70
20
ENDCHAR
STARTCHAR perthousand
ENCODING 8240
SWIDTH 818 0
DWIDTH 13 0
BBX 13 12 0 0
BITMAP
2E000000
62450000
61890000
62580000
2E240000
00600000
00900000
018BAE00
0258A240
06189240
0918A240
000BAE00
ENDCHAR
STARTCHAR minute
ENCODING 8242
SWIDTH 174 0
DWIDTH 3 0
BBX 2 4 0 8
BITMAP
70
70
70
70
ENDCHAR
STARTCHAR second
ENCODING 8243
SWIDTH 319 0
DWIDTH 5 0
BBX 4 4 1 8
BITMAP
D9
C9
C8
C8
ENDCHAR
STARTCHAR guilsinglleft
ENCODING 8249
SWIDTH 271 0
DWIDTH 4 0
BBX 3 6 1 1
BITMAP
28
70
90
90
70
28
ENDCHAR
STARTCHAR guilsinglright
ENCODING 8250
SWIDTH 271 0
DWIDTH 4 0
BBX 3 6 1 1
BITMAP
C0
60
34
34
60
C0
ENDCHAR
STARTCHAR exclamdbl
ENCODING 8252
SWIDTH 491 0
DWIDTH 8 0
BBX 6 12 1 0
BITMAP
A0A0
A0A0
A0A0
A0A0
A0A0
A0A0
A0A0
A0A0
5050
0000
5050
A0A0
ENDCHAR
STARTCHAR fraction
ENCODING 8260
SWIDTH 403 0
DWIDTH 6 0
BBX 6 9 0 1
BITMAP
0020
0090
01C0
0240
0600
0900
1800
3000
6000
ENDCHAR
STARTCHAR uni2074
ENCODING 8308
SWIDTH 329 0
DWIDTH 5 0
BBX 5 6 0 6
BITMAP
0700
0F00
2B00
3300
7F80
0300
ENDCHAR
STARTCHAR uni207F
ENCODING 8319
SWIDTH 374 0
DWIDTH 6 0
BBX 5 7 1 5
BITMAP
DE00
E700
D300
D340
D340
D340
D340
ENDCHAR
STARTCHAR franc
ENCODING 8355
SWIDTH 480 0
DWIDTH 8 0
BBX 7 12 0 0
BITMAP
2FFC
2954
2800
2800
2800
2FF8
2950
2800
2800
BF40
3D00
2800
ENDCHAR
STARTCHAR lira
ENCODING 8356
SWIDTH 510 0
DWIDTH 8 0
BBX 8 12 0 0
BITMAP
02F4
0A6C
0D0D
1C00
1C00
7FD0
1D00
7FD0
1D00
1D00
2D54
7FFE
ENDCHAR
STARTCHAR uni20A6
ENCODING 8358
SWIDTH 691 0
DWIDTH 11 0
BBX 11 12 0 0
BITMAP
1D01D0
1F01D0
1F41D0
1E81D0
1DC1D0
BFFFF8
1D75D0
BFFFF8
1D5ED0
1D0BD0
1D03D0
1D01D0
ENDCHAR
STARTCHAR peseta
ENCODING 8359
SWIDTH 709 0
DWIDTH 11 0
BBX 10 12 1 0
BITMAP
BF4000
A5D700
A0A700
A0BFD0
A0A700
A1D700
BF8700
A40700
A00700
A00700
A00740
A002D0
ENDCHAR
STARTCHAR uni20A8
ENCODING 8360
SWIDTH 911 0
DWIDTH 15 0
BBX 13 12 1 0
BITMAP
BF900000
A5B40000
A0280000
A028BE00
A029D740
A0768140
BFE1E000
A5D07D00
A0A00780
A0764280
A03AD780
A02CBE00
ENDCHAR
STARTCHAR uni20A9
ENCODING 8361
SWIDTH 634 0
DWIDTH 10 0
BBX 10 12 0 0
BITMAP
70A0E0
70B0D0
34F0D0
34F5C0
BFFFE0
29AA80
1D9A80
BFFFE0
1E5F40
0F4F00
0B0F00
0B0A00
ENDCHAR
STARTCHAR uni20AA
ENCODING 8362
SWIDTH 669 0
DWIDTH 11 0
BBX 9 9 1 0
BITMAP
FFD280
E5B280
D07280
D77280
D77280
D77280
D70280
D75740
D7FE00
ENDCHAR
STARTCHAR dong
ENCODING 8363
SWIDTH 510 0
DWIDTH 8 0
BBX 8 15 0 -3
BITMAP
002C
00FF
006D
0BAC
2D7C
342C
742C
702C
742C
342C
2D7C
0BAC
0000
2FFD
0554
ENDCHAR
STARTCHAR Euro
ENCODING 8364
SWIDTH 493 0
DWIDTH 8 0
BBX 7 12 0 0
BITMAP
01FC
0794
0A00
0D00
7FE0
0D00
7FE0
0D00
0E00
0B00
0794
01BC
ENDCHAR
STARTCHAR uni20B1
ENCODING 8369
SWIDTH 648 0
DWIDTH 10 0
BBX 10 12 0 0
BITMAP
1FF900
1D5B00
BFFFF0
1D5690
BFFFF0
1D5B50
1FFE00
1D5000
1C0000
1C0000
1C0000
1C0000
ENDCHAR
STARTCHAR uni20B9
ENCODING 8377
SWIDTH 462 0
DWIDTH 7 0
BBX 7 12 0 0
BITMAP
7FFC
16D0
00E0
7FFC
15E0
01D0
BF80
7800
1D00
0B00
0380
01D0
ENDCHAR
STARTCHAR uni20BA
ENCODING 8378
SWIDTH 500 0
DWIDTH 8 0
BBX 8 12 0 0
BITMAP
0D00
0E80
0F80
7E00
5E80
0F80
7E0D
5D1D
0D1C
0D28
0EB4
0F90
ENDCHAR
STARTCHAR uni20BC
ENCODING 8380
SWIDTH 575 0
DWIDTH 9 0
BBX 9 9 0 0
BITMAP
00D000
00D000
07F400
1EED00
28DB00
34D340
74D340
70D340
70D340
ENDCHAR
STARTCHAR uni20BD
ENCODING 8381
SWIDTH 583 0
DWIDTH 9 0
BBX 9 12 0 0
BITMAP
1FF900
1D5B00
1C0380
1C0280
1C0380
1C0740
BFFE00
1D5000
BFD000
1D4000
1C0000
1C0000
ENDCHAR
STARTCHAR uni2105
ENCODING 8453
SWIDTH 640 0
DWIDTH 10 0
BBX 9 12 1 0
BITMAP
780000
D61800
C02400
D66000
7C9000
018000
024000
072E00
096240
1C9240
146240
002E00
ENDCHAR
STARTCHAR uni2113
ENCODING 8467
SWIDTH 422 0
DWIDTH 7 0
BBX 5 12 1 0
BITMAP
0B40
2AC0
29C0
39C0
3A80
3F40
3E00
F800
7800
2800
1D00
0A00
ENDCHAR
STARTCHAR uni2116
ENCODING 8470
SWIDTH 886 0
DWIDTH 14 0
BBX 13 12 1 0
BITMAP
B0287D00
B428D700
B829C340
AC29C340
A928D700
A7287D00
A3680000
A2A8FF00
A0E80000
A0B80000
A0780000
A0380000
ENDCHAR
STARTCHAR trademark
ENCODING 8482
SWIDTH 547 0
DWIDTH 9 0
BBX 8 4 0 8
BITMAP
7D89
14C9
14A9
1465
ENDCHAR
STARTCHAR Omega
ENCODING 8486
SWIDTH 581 0
DWIDTH 9 0
BBX 8 12 1 0
BITMAP
1B90
39B4
B028
E01C
D01D
D01D
D01D
D01C
A01C
7028
78B4
FDFD
ENDCHAR
STARTCHAR estimated
ENCODING 8494
SWIDTH 636 0
DWIDTH 10 0
BBX 8 9 1 0
BITMAP
07E4
281C
700A
B00B
BFFF
B000
7000
2818
0BE4
ENDCHAR
STARTCHAR oneeighth
ENCODING 8539
SWIDTH 666 0
DWIDTH 11 0
BBX 10 12 0 0
BITMAP
190000
6D0000
0D0900
0D0C00
0D2400
0D6000
009BD0
018DA0
034BD0
060DA0
080DA0
0007D0
ENDCHAR
STARTCHAR threeeighths
ENCODING 8540
SWIDTH 736 0
DWIDTH 12 0
BBX 10 12 1 0
BITMAP
BD0000
4A0000
3D0500
0A0D00
8A1800
B93000
006BD0
00CDA0
0247D0
030DA0
050DA0
0007D0
ENDCHAR
STARTCHAR fiveeighths
ENCODING 8541
SWIDTH 736 0
DWIDTH 12 0
BBX 10 12 1 0
BITMAP
BD0000
C00000
FD0900
4A0C00
8A2400
B87000
009BD0
018DA0
024BD0
060DA0
080DA0
0007D0
ENDCHAR
STARTCHAR seveneighths
ENCODING 8542
SWIDTH 692 0
DWIDTH 11 0
BBX 11 12 0 0
BITMAP
7F8000
024000
030600
0A0900
0D1800
182400
0063E0
00C670
0183E0
030630
050A34
0002E0
ENDCHAR
STARTCHAR partialdiff
ENCODING 8706
SWIDTH 497 0
DWIDTH 8 0
BBX 7 12 1 0
BITMAP
7E40
56C0
00E0
00B0
2FB0
B5F0
D074
D070
D070
D0A0
75D0
2F40
ENDCHAR
STARTCHAR Delta
ENCODING 8710
SWIDTH 614 0
DWIDTH 10 0
BBX 10 12 0 0
BITMAP
00A000
00F000
01F400
02A800
035C00
070D00
0A0A00
0D0700
1C0740
380380
7556C0
BFFFD0
ENDCHAR
STARTCHAR product
ENCODING 8719
SWIDTH 614 0
DWIDTH 10 0
BBX 8 14 1 -2
BITMAP
BFFE
A55E
A00A
A00A
A00A
A00A
A00A
A00A
A00A
A00A
A00A
A00A
A00A
A00A
ENDCHAR
STARTCHAR summation
ENCODING 8721
SWIDTH 513 0
DWIDTH 8 0
BBX 8 14 0 -2
BITMAP
7FFE
3954
1C00
0A00
0340
01C0
00A0
00A0
01D0
0340
0A00
1C00
3955
7FFF
ENDCHAR
STARTCHAR minus
ENCODING 8722
SWIDTH 499 0
DWIDTH 8 0
BBX 6 2 1 4
BITMAP
BFE0
1540
ENDCHAR
STARTCHAR radical
ENCODING 8730
SWIDTH 536 0
DWIDTH 9 0
BBX 8 12 0 0
BITMAP
0007
000A
000D
001C
0028
0034
7C74
1D70
0AA0
07D0
03C0
0280
ENDCHAR
STARTCHAR infinity
ENCODING 8734
SWIDTH 874 0
DWIDTH 14 0
BBX 13 9 0 0
BITMAP
07D07D00
1D75D740
341B4280
340F01C0
700A01C0
340F01C0
341B4280
1D75D740
07D07D00
ENDCHAR
STARTCHAR integral
ENCODING 8747
SWIDTH 235 0
DWIDTH 4 0
BBX 6 15 -1 -3
BITMAP
02D0
0B40
0A00
0A00
0A00
0A00
0A00
0A00
0A00
0A00
0A00
0A00
0A00
1D00
7800
ENDCHAR
STARTCHAR approxequal
ENCODING 8776
SWIDTH 492 0
DWIDTH 8 0
BBX 7 6 0 2
BITMAP
2E44
66F8
0010
2E44
66F8
0010
ENDCHAR
STARTCHAR notequal
ENCODING 8800
SWIDTH 479 0
DWIDTH 8 0
BBX 6 8 1 1
BITMAP
0080
0180
FFE0
5A50
0800
FFE0
7540
6000
ENDCHAR
STARTCHAR lessequal
ENCODING 8804
SWIDTH 445 0
DWIDTH 7 0
BBX 6 9 0 0
BITMAP
0060
06E0
6D00
7900
0B90
00B0
0000
1550
7FF0
ENDCHAR
STARTCHAR greaterequal
ENCODING 8805
SWIDTH 460 0
DWIDTH 7 0
BBX 6 9 1 0
BITMAP
9000
7D00
06D0
02E0
6E40
E000
0000
5540
FFE0
ENDCHAR
STARTCHAR lozenge
ENCODING 9674
SWIDTH 442 0
DWIDTH 7 0
BBX 7 12 0 0
BITMAP
0740
0B80
0DC0
28A0
3470
7034
7034
3470
1CA0
0DC0
0B80
0740
ENDCHAR
STARTCHAR uniEE01
ENCODING 60929
SWIDTH 271 0
DWIDTH 4 0
BBX 2 9 1 1
BITMAP
60
70
00
00
00
00
00
60
70
ENDCHAR
STARTCHAR uniEE02
ENCODING 60930
SWIDTH 298 0
DWIDTH 5 0
BBX 3 4 1 5
BITMAP
CC
CC
CC
CC
ENDCHAR
STARTCHAR uniF6C3
ENCODING 63171
SWIDTH 235 0
DWIDTH 4 0
BBX 2 3 1 -1
BITMAP
90
D0
80
ENDCHAR
STARTCHAR uniFB01
ENCODING 64257
SWIDTH 489 0
DWIDTH 8 0
BBX 7 12 0 0
BITMAP
0BE0
1D50
2800
BF68
2C28
2828
2828
2828
2828
2828
2828
2828
ENDCHAR
STARTCHAR uniFB02
ENCODING 64258
SWIDTH 503 0
DWIDTH 8 0
BBX 7 12 0 0
BITMAP
07E8
1E6C
1C2C
7F6C
1C2C
1C2C
1C2C
1C2C
1C2C
1C2C
1C2C
1C2C
ENDCHAR
STARTCHAR uniFB03
ENCODING 64259
SWIDTH 744 0
DWIDTH 12 0
BBX 11 12 0 0
BITMAP
07CBE0
1E5D50
1C1C00
7FFF68
1C2C28
1C2C28
1C2C28
1C2C28
1C2C28
1C2C28
1C2C28
1C2C28
ENDCHAR
STARTCHAR uniFB04
ENCODING 64260
SWIDTH 744 0
DWIDTH 12 0
BBX 11 12 0 0
BITMAP
07CBE4
1E5D68
1C1C28
7FFF68
1C2C28
1C2C28
1C2C28
1C2C28
1C2C28
1C2C28
1C2C28
1C2C28
ENDCHAR
STARTCHAR uniFEFF
ENCODING 65279
SWIDTH 0 0
DWIDTH 0 0
BBX 1 1 0 0
BITMAP
00
ENDCHAR
STARTCHAR uniFFFC
ENCODING 65532
SWIDTH 1024 0
DWIDTH 16 0
BBX 16 15 0 -3
BITMAP
7CF6DBAF
60000003
60000003
00000000
60000003
62E3E023
0217E020
62162623
62E3E2E3
00000000
60000003
60000003
00000000
60000003
7CF6DBAF
ENDCHAR
STARTCHAR uniFFFD
ENCODING 65533
SWIDTH 1025 0
DWIDTH 16 0
BBX 15 15 1 -2
BITMAP
00060000
001F8000
007FE000
01FFF800
07E07E00
1FC12F80
7FEB1FE0
FFFE2FF4
7FF87FE0
1FF4FF80
07FFFE00
01F4F800
007FE000
001F8000
00060000
ENDCHAR
STARTCHAR .notdef
ENCODING -1
SWIDTH 392 0
DWIDTH 6 0
BBX 6 12 0 0
BITMAP
7FD0
5050
5050
5410
5510
5510
5510
5510
5410
5050
5050
7FD0
ENDCHAR
STARTCHAR glyph369
ENCODING -1
SWIDTH 364 0
DWIDTH 6 0
BBX 4 3 1 9
BITMAP
DB
D9
68
ENDCHAR
STARTCHAR uni2009.locl
ENCODING -1
SWIDTH 124 0
DWIDTH 2 0
BBX 1 1 0 0
BITMAP
00
ENDCHAR
STARTCHAR f_f.dlig
ENCODING -1
SWIDTH 546 0
DWIDTH 9 0
BBX 9 12 0 0
BITMAP
07CB80
1E6D00
1C2800
7FFF00
1C2800
1C2800
1C2800
1C2800
1C2800
1C2800
1C2800
1C2800
ENDCHAR
STARTCHAR longs_t.dlig
ENCODING -1
SWIDTH 544 0
DWIDTH 9 0
BBX 8 12 0 0
BITMAP
0BE4
1D68
1C28
7CFF
1C28
1C28
1C28
1C28
1C28
1C28
1C2D
140F
ENDCHAR
STARTCHAR s_t.dlig
ENCODING -1
SWIDTH 710 0
DWIDTH 11 0
BBX 10 12 1 0
BITMAP
00BE00
02D740
018340
2FDFE0
A6D380
D09340
B40340
2E4340
06D340
80D340
E5D290
6F41E0
ENDCHAR
STARTCHAR two.dnom
ENCODING -1
SWIDTH 329 0
DWIDTH 5 0
BBX 5 6 0 0
BITMAP
2E00
7240
0340
0A00
2800
7F80
ENDCHAR
STARTCHAR one.dnom
ENCODING -1
SWIDTH 329 0
DWIDTH 5 0
BBX 3 6 1 0
BITMAP
64
B4
24
24
24
24
ENDCHAR
STARTCHAR zero.dnom
ENCODING -1
SWIDTH 329 0
DWIDTH 5 0
BBX 5 6 0 0
BITMAP
2E00
7240
7280
7280
7240
2E00
ENDCHAR
STARTCHAR nine.c2sc
ENCODING -1
SWIDTH 447 0
DWIDTH 7 0
BBX 7 9 0 0
BITMAP
1B80
39A0
7070
7034
39B4
1FB0
0070
06D0
0E40
ENDCHAR
STARTCHAR eight.c2sc
ENCODING -1
SWIDTH 447 0
DWIDTH 7 0
BBX 6 9 1 0
BITMAP
2E40
A6C0
D1C0
A2C0
3F40
A6C0
D0D0
E6C0
6F40
ENDCHAR
STARTCHAR seven.c2sc
ENCODING -1
SWIDTH 447 0
DWIDTH 7 0
BBX 7 9 0 0
BITMAP
7FF8
1574
00A0
00D0
01C0
0380
0700
0A00
1D00
ENDCHAR
STARTCHAR six.c2sc
ENCODING -1
SWIDTH 447 0
DWIDTH 7 0
BBX 6 9 1 0
BITMAP
1B40
7900
A000
EF40
E6D0
D0D0
D0D0
B6C0
2F40
ENDCHAR
STARTCHAR five.c2sc
ENCODING -1
SWIDTH 447 0
DWIDTH 7 0
BBX 6 9 1 0
BITMAP
7FC0
7540
A000
BF40
A6D0
00D0
40D0
A6D0
2F40
ENDCHAR
STARTCHAR four.c2sc
ENCODING -1
SWIDTH 447 0
DWIDTH 7 0
BBX 7 9 0 0
BITMAP
00E0
02E0
07A0
0DA0
28A0
34A0
BFF8
15A0
00A0
ENDCHAR
STARTCHAR three.c2sc
ENCODING -1
SWIDTH 447 0
DWIDTH 7 0
BBX 6 9 1 0
BITMAP
6E40
E6C0
41C0
02C0
2F40
06C0
80D0
E6C0
7E40
ENDCHAR
STARTCHAR two.c2sc
ENCODING -1
SWIDTH 447 0
DWIDTH 7 0
BBX 7 9 0 0
BITMAP
1B90
39B0
7074
0070
00D0
0380
0A00
2D50
7FF8
ENDCHAR
STARTCHAR one.c2sc
ENCODING -1
SWIDTH 447 0
DWIDTH 7 0
BBX 4 9 1 0
BITMAP
1A
EE
0A
0A
0A
0A
0A
0A
0A
ENDCHAR
STARTCHAR zero.c2sc
ENCODING -1
SWIDTH 447 0
DWIDTH 7 0
BBX 7 9 0 0
BITMAP
0B90
29B0
3434
3434
7434
7434
3434
29B0
0B90
ENDCHAR
STARTCHAR Z.c2sc
ENCODING -1
SWIDTH 454 0
DWIDTH 7 0
BBX 7 9 0 0
BITMAP
7FF8
1574
00E0
02C0
0740
0A00
1C00
3950
7FF8
ENDCHAR
STARTCHAR Y.c2sc
ENCODING -1
SWIDTH 458 0
DWIDTH 7 0
BBX 7 9 0 0
BITMAP
B02C
3434
2CB0
0DD0
0BC0
0740
0340
0340
0340
ENDCHAR
STARTCHAR X.c2sc
ENCODING -1
SWIDTH 478 0
DWIDTH 8 0
BBX 7 9 0 0
BITMAP
742C
2C74
0DA0
0BD0
0380
0BD0
1DA0
2874
742C
ENDCHAR
STARTCHAR W.c2sc
ENCODING -1
SWIDTH 655 0
DWIDTH 10 0
BBX 10 9 0 0
BITMAP
707070
70B4A0
34E4A0
24D8D0
298CC0
1E4DC0
0E4A80
0F0780
0A0740
ENDCHAR
STARTCHAR V.c2sc
ENCODING -1
SWIDTH 487 0
DWIDTH 8 0
BBX 8 9 0 0
BITMAP
B00D
741C
3428
2834
1C70
0DA0
0AD0
07C0
0380
ENDCHAR
STARTCHAR U.c2sc
ENCODING -1
SWIDTH 488 0
DWIDTH 8 0
BBX 6 9 1 0
BITMAP
D070
D070
D070
D070
D070
D070
D070
A5E0
2F80
ENDCHAR
STARTCHAR T.c2sc
ENCODING -1
SWIDTH 456 0
DWIDTH 7 0
BBX 7 9 0 0
BITMAP
BFFC
1754
0340
0340
0340
0340
0340
0340
0340
ENDCHAR
STARTCHAR S.c2sc
ENCODING -1
SWIDTH 453 0
DWIDTH 7 0
BBX 7 9 0 0
BITMAP
1BD0
3974
3424
3D00
0BE0
0074
7028
3974
1BE0
ENDCHAR
STARTCHAR R.c2sc
ENCODING -1
SWIDTH 465 0
DWIDTH 7 0
BBX 6 9 1 0
BITMAP
FF80
E5E0
D0A0
D0E0
FF80
E780
D1C0
D0E0
D0B0
ENDCHAR
STARTCHAR Q.c2sc
ENCODING -1
SWIDTH 519 0
DWIDTH 8 0
BBX 8 11 0 -2
BITMAP
0BE0
2D78
341D
740D
700D
740D
341D
2D68
0BF4
001D
0004
ENDCHAR
STARTCHAR P.c2sc
ENCODING -1
SWIDTH 481 0
DWIDTH 8 0
BBX 6 9 1 0
BITMAP
FF80
E5B0
D070
D0B0
FFD0
E400
D000
D000
D000
ENDCHAR
STARTCHAR O.c2sc
ENCODING -1
SWIDTH 519 0
DWIDTH 8 0
BBX 8 9 0 0
BITMAP
07E0
2D68
340D
740D
700E
340D
340D
1D68
0BE0
ENDCHAR
STARTCHAR N.c2sc
ENCODING -1
SWIDTH 533 0
DWIDTH 9 0
BBX 7 9 1 0
BITMAP
E038
F438
F838
DD38
D738
D278
D1F8
D0B8
D038
ENDCHAR
STARTCHAR M.c2sc
ENCODING -1
SWIDTH 652 0
DWIDTH 10 0
BBX 9 9 1 0
BITMAP
F00B40
F40F40
F81F40
EC2B40
DD3740
DA7340
D7A340
D2D340
D1C340
ENDCHAR
STARTCHAR L.c2sc
ENCODING -1
SWIDTH 411 0
DWIDTH 7 0
BBX 6 9 1 0
BITMAP
D000
D000
D000
D000
D000
D000
D000
E540
FFD0
ENDCHAR
STARTCHAR K.c2sc
ENCODING -1
SWIDTH 473 0
DWIDTH 8 0
BBX 7 9 1 0
BITMAP
D0B0
D2D0
D740
EE00
FE00
F740
D2C0
D0E0
D074
ENDCHAR
STARTCHAR J.c2sc
ENCODING -1
SWIDTH 419 0
DWIDTH 7 0
BBX 6 9 0 0
BITMAP
00A0
00A0
00A0
00A0
00A0
00A0
60A0
75D0
2F80
ENDCHAR
STARTCHAR I.c2sc
ENCODING -1
SWIDTH 221 0
DWIDTH 4 0
BBX 2 9 1 0
BITMAP
D0
D0
D0
D0
D0
D0
D0
D0
D0
ENDCHAR
STARTCHAR H.c2sc
ENCODING -1
SWIDTH 533 0
DWIDTH 9 0
BBX 7 9 1 0
BITMAP
D038
D038
D038
FFF8
E578
D038
D038
D038
D038
ENDCHAR
STARTCHAR G.c2sc
ENCODING -1
SWIDTH 509 0
DWIDTH 8 0
BBX 8 9 0 0
BITMAP
0BE0
2D68
3418
3400
70FD
341D
340D
1D6D
0BE4
ENDCHAR
STARTCHAR F.c2sc
ENCODING -1
SWIDTH 415 0
DWIDTH 7 0
BBX 6 9 1 0
BITMAP
FFD0
E540
D000
D000
FF80
E500
D000
D000
D000
ENDCHAR
STARTCHAR dollar.c2sc
ENCODING -1
SWIDTH 453 0
DWIDTH 7 0
BBX 7 13 0 -2
BITMAP
0240
0240
1BD0
3974
3424
3D00
0BE0
0074
6028
3974
1BE0
0240
0240
ENDCHAR
STARTCHAR sterling.c2sc
ENCODING -1
SWIDTH 467 0
DWIDTH 7 0
BBX 7 9 0 0
BITMAP
07E0
1D74
1C24
2C00
BFD0
2C00
2800
2950
3FFC
ENDCHAR
STARTCHAR yen.c2sc
ENCODING -1
SWIDTH 400 0
DWIDTH 6 0
BBX 6 9 0 0
BITMAP
B070
3490
29C0
0E40
7FE0
0B00
7FE0
0B00
0B00
ENDCHAR
STARTCHAR Gamma.c2sc
ENCODING -1
SWIDTH 405 0
DWIDTH 7 0
BBX 5 9 1 0
BITMAP
FFC0
E540
D000
D000
D000
D000
D000
D000
D000
ENDCHAR
STARTCHAR Delta.c2sc
ENCODING -1
SWIDTH 487 0
DWIDTH 8 0
BBX 8 9 0 0
BITMAP
0380
07C0
0AD0
0DA0
1C70
2834
3428
756C
BFFD
ENDCHAR
STARTCHAR Theta.c2sc
ENCODING -1
SWIDTH 519 0
DWIDTH 8 0
BBX 8 9 0 0
BITMAP
07E0
2D68
340D
740D
77EE
354D
340D
1D68
0BE0
ENDCHAR
STARTCHAR Lambda.c2sc
ENCODING -1
SWIDTH 487 0
DWIDTH 8 0
BBX 8 9 0 0
BITMAP
0380
07C0
0AD0
0DA0
1C70
2834
3428
741C
B00D
ENDCHAR
STARTCHAR Xi.c2sc
ENCODING -1
SWIDTH 389 0
DWIDTH 6 0
BBX 6 9 0 0
BITMAP
7FE0
1540
0000
0000
3FD0
1540
0000
1540
7FE0
ENDCHAR
STARTCHAR Pi.c2sc
ENCODING -1
SWIDTH 525 0
DWIDTH 8 0
BBX 7 9 1 0
BITMAP
FFF4
E574
D034
D034
D034
D034
D034
D034
D034
ENDCHAR
STARTCHAR Sigma.c2sc
ENCODING -1
SWIDTH 435 0
DWIDTH 7 0
BBX 7 9 0 0
BITMAP
7FF4
7950
2C00
0E00
0740
0E00
2C00
7950
7FF8
ENDCHAR
STARTCHAR Phi.c2sc
ENCODING -1
SWIDTH 587 0
DWIDTH 9 0
BBX 9 9 0 0
BITMAP
00D000
0BF800
2DEB00
34D340
74D280
34D380
28D700
0BFD00
00D000
ENDCHAR
STARTCHAR Psi.c2sc
ENCODING -1
SWIDTH 560 0
DWIDTH 9 0
BBX 9 9 0 0
BITMAP
71D740
71D740
71D740
35D700
35D700
2DDD00
0BF800
01D000
01D000
ENDCHAR
STARTCHAR Omega.c2sc
ENCODING -1
SWIDTH 540 0
DWIDTH 9 0
BBX 7 9 1 0
BITMAP
1F90
75B0
E038
D028
D028
D028
A034
74B4
FDF8
ENDCHAR
STARTCHAR uni0402.c2sc
ENCODING -1
SWIDTH 596 0
DWIDTH 10 0
BBX 9 9 0 0
BITMAP
BFF400
175000
070000
07BE00
075780
0702C0
0702C0
070780
070E00
ENDCHAR
STARTCHAR uni0404.c2sc
ENCODING -1
SWIDTH 490 0
DWIDTH 8 0
BBX 7 9 0 0
BITMAP
0BE0
2D68
341C
7400
7FC0
3540
341C
2D68
0BE0
ENDCHAR
STARTCHAR uni0409.c2sc
ENCODING -1
SWIDTH 782 0
DWIDTH 13 0
BBX 12 9 0 0
BITMAP
0FFD00
0E5D00
0D0D00
0D0FF8
0D0D5E
0D0D0B
1C0D0B
680D5E
B40FF8
ENDCHAR
STARTCHAR uni040A.c2sc
ENCODING -1
SWIDTH 788 0
DWIDTH 13 0
BBX 11 9 1 0
BITMAP
D03400
D03400
D03400
FFFFE0
E57978
D0341C
D0341C
D03978
D03FE0
ENDCHAR
STARTCHAR uni040B.c2sc
ENCODING -1
SWIDTH 596 0
DWIDTH 10 0
BBX 9 9 0 0
BITMAP
BFF400
175000
070000
07BE00
075780
070280
0701C0
0701C0
0701C0
ENDCHAR
STARTCHAR uni040F.c2sc
ENCODING -1
SWIDTH 524 0
DWIDTH 8 0
BBX 7 12 1 -3
BITMAP
D034
D034
D034
D034
D034
D034
D034
E574
FFF4
0700
0700
0700
ENDCHAR
STARTCHAR uni0411.c2sc
ENCODING -1
SWIDTH 479 0
DWIDTH 8 0
BBX 6 9 1 0
BITMAP
FFD0
E540
D000
FF80
E5E0
D070
D070
E5E0
FF80
ENDCHAR
STARTCHAR uni0414.c2sc
ENCODING -1
SWIDTH 563 0
DWIDTH 9 0
BBX 9 12 0 -3
BITMAP
0BFE00
0A5E00
0A0A00
0A0A00
0A0A00
0D0A00
1C0A00
295E00
BFFF80
A00380
A00380
A00380
ENDCHAR
STARTCHAR uni0416.c2sc
ENCODING -1
SWIDTH 651 0
DWIDTH 10 0
BBX 10 9 0 0
BITMAP
7470E0
2C71C0
1D7380
0A7700
07FE00
0AB740
1D7380
3871D0
7470E0
ENDCHAR
STARTCHAR uni0417.c2sc
ENCODING -1
SWIDTH 466 0
DWIDTH 7 0
BBX 7 9 0 0
BITMAP
1BD0
39B4
1034
0074
07E0
0174
6028
3974
1FD0
ENDCHAR
STARTCHAR uni0418.c2sc
ENCODING -1
SWIDTH 537 0
DWIDTH 9 0
BBX 7 9 1 0
BITMAP
D038
D0B8
D1F8
D2A8
D728
DD28
F828
F428
E028
ENDCHAR
STARTCHAR uni041A.c2sc
ENCODING -1
SWIDTH 473 0
DWIDTH 8 0
BBX 6 9 1 0
BITMAP
D0E0
D2C0
D340
DA00
FD00
EA00
D740
D2D0
D0E0
ENDCHAR
STARTCHAR uni041B.c2sc
ENCODING -1
SWIDTH 521 0
DWIDTH 8 0
BBX 8 9 0 0
BITMAP
0FFD
0E5D
0D0D
0D0D
0D0D
0D0D
1C0D
680D
B40D
ENDCHAR
STARTCHAR uni0423.c2sc
ENCODING -1
SWIDTH 454 0
DWIDTH 7 0
BBX 7 9 0 0
BITMAP
7028
3434
2870
1CA0
0DD0
0BC0
0780
0700
2D00
ENDCHAR
STARTCHAR uni0426.c2sc
ENCODING -1
SWIDTH 564 0
DWIDTH 9 0
BBX 8 12 1 -3
BITMAP
D034
D034
D034
D034
D034
D034
D034
E578
FFFE
000A
0009
0009
ENDCHAR
STARTCHAR uni0427.c2sc
ENCODING -1
SWIDTH 487 0
DWIDTH 8 0
BBX 7 9 0 0
BITMAP
7028
7028
7028
7028
3428
1FF8
0028
0028
0028
ENDCHAR
STARTCHAR uni0428.c2sc
ENCODING -1
SWIDTH 691 0
DWIDTH 11 0
BBX 9 9 1 0
BITMAP
D0D1C0
D0D1C0
D0D1C0
D0D1C0
D0D1C0
D0D1C0
D0D1C0
E5D5C0
FFFFC0
ENDCHAR
STARTCHAR uni0429.c2sc
ENCODING -1
SWIDTH 731 0
DWIDTH 12 0
BBX 11 12 1 -3
BITMAP
D0D1C0
D0D1C0
D0D1C0
D0D1C0
D0D1C0
D0D1C0
D0D1C0
E5D5D0
FFFFF4
000034
000030
000030
ENDCHAR
STARTCHAR uni042A.c2sc
ENCODING -1
SWIDTH 559 0
DWIDTH 9 0
BBX 9 9 0 0
BITMAP
BE0000
1A0000
0A0000
0BF900
0A5B00
0A0340
0A0340
0A5B00
0BF900
ENDCHAR
STARTCHAR uni042B.c2sc
ENCODING -1
SWIDTH 658 0
DWIDTH 11 0
BBX 9 9 1 0
BITMAP
D00380
D00380
D00380
FF8380
E5E380
D07380
D07380
E5E380
FF8380
ENDCHAR
STARTCHAR uni042C.c2sc
ENCODING -1
SWIDTH 475 0
DWIDTH 8 0
BBX 6 9 1 0
BITMAP
D000
D000
D000
FF80
E5E0
D070
D070
E5E0
FF80
ENDCHAR
STARTCHAR uni042D.c2sc
ENCODING -1
SWIDTH 491 0
DWIDTH 8 0
BBX 7 9 0 0
BITMAP
1BD0
3974
702C
001C
03FC
015C
702C
3974
1BD0
ENDCHAR
STARTCHAR uni042E.c2sc
ENCODING -1
SWIDTH 705 0
DWIDTH 11 0
BBX 10 9 1 0
BITMAP
D0BE00
D1D680
D341D0
D340D0
FF00E0
E740D0
D341D0
D2D680
D0BE00
ENDCHAR
STARTCHAR uni042F.c2sc
ENCODING -1
SWIDTH 499 0
DWIDTH 8 0
BBX 6 9 1 0
BITMAP
2FF0
B5B0
D070
A070
2FF0
29B0
7470
A070
D070
ENDCHAR
STARTCHAR uni0492.c2sc
ENCODING -1
SWIDTH 444 0
DWIDTH 7 0
BBX 7 9 0 0
BITMAP
1FF8
1D50
1C00
1C00
BF40
1D00
1C00
1C00
1C00
ENDCHAR
STARTCHAR uni0496.c2sc
ENCODING -1
SWIDTH 676 0
DWIDTH 11 0
BBX 11 12 0 -3
BITMAP
7470E0
2C71C0
1D7380
0A7700
07FE00
0AB740
1D7380
3871D0
7470F8
000028
000028
000014
ENDCHAR
STARTCHAR uni049A.c2sc
ENCODING -1
SWIDTH 492 0
DWIDTH 8 0
BBX 7 12 1 -3
BITMAP
D0E0
D2C0
D340
DA00
FD00
EA00
D740
D2D0
D0F4
0024
0024
0024
ENDCHAR
STARTCHAR uni049C.c2sc
ENCODING -1
SWIDTH 562 0
DWIDTH 9 0
BBX 8 9 1 0
BITMAP
D01C
D034
D8A0
DDC0
FF80
EDD0
D8B0
D038
D01D
ENDCHAR
STARTCHAR uni04A0.c2sc
ENCODING -1
SWIDTH 571 0
DWIDTH 9 0
BBX 9 9 0 0
BITMAP
BF0740
1B0E00
072C00
077400
07E000
077400
072C00
070E00
070740
ENDCHAR
STARTCHAR uni04A8.c2sc
ENCODING -1
SWIDTH 625 0
DWIDTH 10 0
BBX 10 9 0 0
BITMAP
0A2E00
2DA780
34D2C0
34D1C0
70D1C0
34D1C0
38A280
1E7B40
06FFD0
ENDCHAR
STARTCHAR uni04B0.c2sc
ENCODING -1
SWIDTH 480 0
DWIDTH 8 0
BBX 7 9 0 0
BITMAP
B02C
3434
2CB0
0DD0
0BC0
1FE0
0780
0340
0340
ENDCHAR
STARTCHAR uni04B2.c2sc
ENCODING -1
SWIDTH 514 0
DWIDTH 8 0
BBX 8 12 0 -3
BITMAP
742C
2C74
0DA0
0BD0
0380
0BD0
1DA0
2874
742E
0006
0006
0006
ENDCHAR
STARTCHAR uni04B4.c2sc
ENCODING -1
SWIDTH 695 0
DWIDTH 11 0
BBX 11 12 0 -3
BITMAP
BFF5C0
1751C0
0701C0
0701C0
0701C0
0701C0
0701C0
0755D0
07FFF4
000034
000034
000030
ENDCHAR
STARTCHAR uni04B8.c2sc
ENCODING -1
SWIDTH 487 0
DWIDTH 8 0
BBX 7 9 0 0
BITMAP
7028
7028
7028
7268
3768
1FF8
0368
0228
0028
ENDCHAR
STARTCHAR uni04BA.c2sc
ENCODING -1
SWIDTH 487 0
DWIDTH 8 0
BBX 7 9 1 0
BITMAP
D000
D000
D000
FF90
E5B0
D070
D034
D034
D034
ENDCHAR
STARTCHAR uni04BC.c2sc
ENCODING -1
SWIDTH 632 0
DWIDTH 10 0
BBX 10 9 0 0
BITMAP
00BE00
02D780
9741C0
AB00D0
3FFFD0
0B5540
070000
02D640
00BE40
ENDCHAR
STARTCHAR uni04D8.c2sc
ENCODING -1
SWIDTH 527 0
DWIDTH 8 0
BBX 8 9 0 0
BITMAP
0BE0
096C
000D
000A
7FFE
355A
340D
2D6C
0BE0
ENDCHAR
STARTCHAR uni04E0.c2sc
ENCODING -1
SWIDTH 466 0
DWIDTH 7 0
BBX 7 9 0 0
BITMAP
3FF4
15E0
0280
0790
01B4
0038
6038
3974
1FD0
ENDCHAR
STARTCHAR uni04E8.c2sc
ENCODING -1
SWIDTH 519 0
DWIDTH 8 0
BBX 8 9 0 0
BITMAP
07E0
2D68
340D
740D
7FFE
355D
340D
1D68
0BE0
ENDCHAR
STARTCHAR lira.c2sc
ENCODING -1
SWIDTH 467 0
DWIDTH 7 0
BBX 7 9 0 0
BITMAP
07D0
0D74
1C38
2C00
BFD0
2C00
BFD0
2950
3FFC
ENDCHAR
STARTCHAR Euro.c2sc
ENCODING -1
SWIDTH 433 0
DWIDTH 7 0
BBX 7 9 0 0
BITMAP
06F4
0E50
1C00
7FE0
1C00
7FE0
1C00
0E50
06F4
ENDCHAR
STARTCHAR uni2116.c2sc
ENCODING -1
SWIDTH 884 0
DWIDTH 14 0
BBX 13 9 1 0
BITMAP
E0387D00
F438D700
F839C300
DD39C340
D738D700
D2787D00
D1F80000
D0B8FE00
D0380000
ENDCHAR
STARTCHAR uni20BD.c2sc
ENCODING -1
SWIDTH 512 0
DWIDTH 8 0
BBX 8 9 0 0
BITMAP
1FF4
1D5D
1C0A
1C1D
BFF8
1D40
BF80
1D00
1C00
ENDCHAR
STARTCHAR three.dnom
ENCODING -1
SWIDTH 329 0
DWIDTH 5 0
BBX 5 6 0 0
BITMAP
2E00
1340
0F00
0240
6240
2E00
ENDCHAR
STARTCHAR four.dnom
ENCODING -1
SWIDTH 329 0
DWIDTH 5 0
BBX 5 6 0 0
BITMAP
0700
0F00
2B00
3300
7F80
0300
ENDCHAR
STARTCHAR five.dnom
ENCODING -1
SWIDTH 329 0
DWIDTH 5 0
BBX 4 6 1 0
BITMAP
FD
C0
FC
4A
8A
B8
ENDCHAR
STARTCHAR six.dnom
ENCODING -1
SWIDTH 329 0
DWIDTH 5 0
BBX 5 6 0 0
BITMAP
1A00
3400
7F40
7280
3280
2E00
ENDCHAR
STARTCHAR seven.dnom
ENCODING -1
SWIDTH 329 0
DWIDTH 5 0
BBX 5 6 0 0
BITMAP
7F80
0240
0700
0900
0C00
2800
ENDCHAR
STARTCHAR eight.dnom
ENCODING -1
SWIDTH 329 0
DWIDTH 5 0
BBX 5 6 0 0
BITMAP
2E00
3740
2F00
7240
7280
2E00
ENDCHAR
STARTCHAR nine.dnom
ENCODING -1
SWIDTH 329 0
DWIDTH 5 0
BBX 5 6 0 0
BITMAP
2E00
7240
7280
2F40
0740
1D00
ENDCHAR
STARTCHAR glyph550
ENCODING -1
SWIDTH 404 0
DWIDTH 6 0
BBX 5 2 1 4
BITMAP
FF40
1500
ENDCHAR
STARTCHAR glyph551
ENCODING -1
SWIDTH 306 0
DWIDTH 5 0
BBX 3 4 1 9
BITMAP
28
70
94
70
ENDCHAR
STARTCHAR E.c2sc
ENCODING -1
SWIDTH 428 0
DWIDTH 7 0
BBX 6 9 1 0
BITMAP
FFD0
E540
D000
D000
FF80
E500
D000
E540
FFD0
ENDCHAR
STARTCHAR g.ss01
ENCODING -1
SWIDTH 463 0
DWIDTH 7 0
BBX 7 12 0 -3
BITMAP
1BFC
39B4
7034
7034
39B0
1F90
3400
2FE4
7568
A01C
B578
2FD0
ENDCHAR
STARTCHAR alpha.ss02
ENCODING -1
SWIDTH 523 0
DWIDTH 8 0
BBX 8 9 0 0
BITMAP
0B8D
2D6D
382C
341C
7418
341C
342C
2D6D
0B89
ENDCHAR
STARTCHAR R.ss03
ENCODING -1
SWIDTH 577 0
DWIDTH 9 0
BBX 8 12 1 0
BITMAP
BFE0
A578
A02C
A01C
A01C
A078
BFF0
A578
A02C
A01C
A01C
A01D
ENDCHAR
STARTCHAR K.ss04
ENCODING -1
SWIDTH 560 0
DWIDTH 9 0
BBX 8 12 1 0
BITMAP
A01D
A038
A0B0
A1E0
A2C0
BB40
BF40
A2C0
A1E0
A0B4
A03C
A01E
ENDCHAR
STARTCHAR k.ss04
ENCODING -1
SWIDTH 453 0
DWIDTH 7 0
BBX 6 12 1 0
BITMAP
D000
D000
D000
D0E0
D2C0
D340
D700
FE00
EB00
D380
D1D0
D0A0
ENDCHAR
STARTCHAR K.ss05
ENCODING -1
SWIDTH 572 0
DWIDTH 9 0
BBX 8 12 1 0
BITMAP
A02C
A074
A1E0
A3C0
AB40
BD00
BE00
A740
A2C0
A0E0
A078
A01D
ENDCHAR
STARTCHAR k.ss05
ENCODING -1
SWIDTH 454 0
DWIDTH 7 0
BBX 6 12 1 0
BITMAP
D000
D000
D000
D1D0
D380
DA00
EC00
FC00
EE00
DB40
D2C0
D0E0
ENDCHAR
STARTCHAR D.c2sc
ENCODING -1
SWIDTH 492 0
DWIDTH 8 0
BBX 6 9 1 0
BITMAP
FE40
E6D0
D0A0
D070
D070
D070
D0A0
E6D0
FE40
ENDCHAR
STARTCHAR C.c2sc
ENCODING -1
SWIDTH 490 0
DWIDTH 8 0
BBX 7 9 0 0
BITMAP
0BE0
2D68
341C
7400
7000
3400
341C
2D68
0BE0
ENDCHAR
STARTCHAR B.c2sc
ENCODING -1
SWIDTH 475 0
DWIDTH 8 0
BBX 6 9 1 0
BITMAP
FF80
E5D0
D0A0
D1D0
FF80
D1E0
D0A0
E5E0
FF80
ENDCHAR
STARTCHAR A.c2sc
ENCODING -1
SWIDTH 501 0
DWIDTH 8 0
BBX 8 9 0 0
BITMAP
0280
03C0
07A0
0A70
0D74
1C38
3FFC
755D
B00E
ENDCHAR
STARTCHAR glyph564
ENCODING -1
SWIDTH 236 0
DWIDTH 4 0
BBX 2 3 1 9
BITMAP
60
A0
A0
ENDCHAR
STARTCHAR glyph565
ENCODING -1
SWIDTH 402 0
DWIDTH 6 0
BBX 4 4 1 10
BITMAP
30
14
D7
7D
ENDCHAR
STARTCHAR glyph566
ENCODING -1
SWIDTH 0 0
DWIDTH 0 0
BBX 4 4 -6 9
BITMAP
0A
0C
76
5A
ENDCHAR
STARTCHAR glyph567
ENCODING -1
SWIDTH 455 0
DWIDTH 7 0
BBX 7 3 1 10
BITMAP
0034
2E60
A240
ENDCHAR
STARTCHAR glyph568
ENCODING -1
SWIDTH 454 0
DWIDTH 7 0
BBX 7 3 -1 10
BITMAP
A000
26E0
0A34
ENDCHAR
STARTCHAR glyph569
ENCODING -1
SWIDTH 446 0
DWIDTH 7 0
BBX 6 4 1 10
BITMAP
0090
0060
2E90
A240
ENDCHAR
STARTCHAR glyph570
ENCODING -1
SWIDTH 453 0
DWIDTH 7 0
BBX 5 5 1 10
BITMAP
3600
5A00
0000
2D00
A240
ENDCHAR
STARTCHAR uni0490.c2sc
ENCODING -1
SWIDTH 405 0
DWIDTH 7 0
BBX 5 12 1 0
BITMAP
0040
01C0
01C0
FFC0
E540
D000
D000
D000
D000
D000
D000
D000
ENDCHAR
STARTCHAR glyph572
ENCODING -1
SWIDTH 404 0
DWIDTH 6 0
BBX 4 4 1 10
BITMAP
0D
18
D7
7D
ENDCHAR
STARTCHAR glyph573
ENCODING -1
SWIDTH 404 0
DWIDTH 6 0
BBX 4 5 1 10
BITMAP
18
09
18
D6
7D
ENDCHAR
STARTCHAR zero.numr
ENCODING -1
SWIDTH 329 0
DWIDTH 5 0
BBX 5 6 0 6
BITMAP
2E00
7240
7280
7280
7240
2E00
ENDCHAR
STARTCHAR four.numr
ENCODING -1
SWIDTH 329 0
DWIDTH 5 0
BBX 5 6 0 6
BITMAP
0700
0F00
2B00
3300
7F80
0300
ENDCHAR
STARTCHAR five.numr
ENCODING -1
SWIDTH 329 0
DWIDTH 5 0
BBX 4 6 1 6
BITMAP
FD
C0
FC
4A
8A
B8
ENDCHAR
STARTCHAR six.numr
ENCODING -1
SWIDTH 329 0
DWIDTH 5 0
BBX 5 6 0 6
BITMAP
1A00
3400
7F40
7280
3280
2E00
ENDCHAR
STARTCHAR seven.numr
ENCODING -1
SWIDTH 329 0
DWIDTH 5 0
BBX 5 6 0 6
BITMAP
7F80
0240
0700
0900
0C00
2800
ENDCHAR
STARTCHAR eight.numr
ENCODING -1
SWIDTH 329 0
DWIDTH 5 0
BBX 5 6 0 6
BITMAP
2E00
3740
2F00
7240
7280
2E00
ENDCHAR
STARTCHAR nine.numr
ENCODING -1
SWIDTH 329 0
DWIDTH 5 0
BBX 5 6 0 6
BITMAP
2E00
7240
7280
2F40
0740
1D00
ENDCHAR
STARTCHAR C.ss06
ENCODING -1
SWIDTH 603 0
DWIDTH 10 0
BBX 8 12 1 0
BITMAP
0BE0
2D6C
740E
A00A
E000
D000
D000
E000
A00A
740E
2D6C
0BE0
ENDCHAR
STARTCHAR G.ss06
ENCODING -1
SWIDTH 618 0
DWIDTH 10 0
BBX 8 12 1 0
BITMAP
0BE4
2D6C
740E
A005
E000
D000
D0BE
E01A
A00A
740A
2D5E
07F4
ENDCHAR
STARTCHAR D.ss06
ENCODING -1
SWIDTH 608 0
DWIDTH 10 0
BBX 8 12 1 0
BITMAP
BF90
A5B4
A02C
A00D
A00E
A00A
A00A
A00E
A00D
A02C
A5B4
BF90
ENDCHAR
STARTCHAR O.ss06
ENCODING -1
SWIDTH 643 0
DWIDTH 10 0
BBX 9 12 1 0
BITMAP
07E000
2D6C00
740E00
A00B00
E00740
D00340
D00340
E00740
A00B00
740E00
2D6C00
0BE000
ENDCHAR
STARTCHAR Q.ss06
ENCODING -1
SWIDTH 644 0
DWIDTH 10 0
BBX 9 14 1 -2
BITMAP
07E000
2D6C00
740E00
A00B00
E00740
D00340
D00340
E00740
A00B00
740E00
2D6C00
0BF400
002D00
000500
ENDCHAR
STARTCHAR one.oldstyle.pnum
ENCODING -1
SWIDTH 421 0
DWIDTH 7 0
BBX 4 9 1 0
BITMAP
06
6F
AB
07
07
07
07
07
07
ENDCHAR
STARTCHAR two.oldstyle.pnum
ENCODING -1
SWIDTH 492 0
DWIDTH 8 0
BBX 6 9 1 0
BITMAP
2F80
75D0
E0A0
40E0
02C0
0740
1D00
7950
BFF0
ENDCHAR
STARTCHAR three.oldstyle.pnum
ENCODING -1
SWIDTH 474 0
DWIDTH 8 0
BBX 7 12 0 -3
BITMAP
7FF8
15B0
01D0
0380
07D0
00B0
0034
0028
0038
0034
55E0
6F80
ENDCHAR
STARTCHAR four.oldstyle.pnum
ENCODING -1
SWIDTH 524 0
DWIDTH 8 0
BBX 8 12 0 -3
BITMAP
0038
00B8
01E8
0268
0728
0D28
2C28
3569
7FFF
0028
0028
0028
ENDCHAR
STARTCHAR five.oldstyle.pnum
ENCODING -1
SWIDTH 483 0
DWIDTH 8 0
BBX 6 12 1 -3
BITMAP
7FF0
7550
A000
A000
AF80
E6D0
40A0
0070
00B0
00A0
96D0
7E40
ENDCHAR
STARTCHAR seven.oldstyle.pnum
ENCODING -1
SWIDTH 458 0
DWIDTH 7 0
BBX 7 12 0 -3
BITMAP
7FF8
1578
0034
0060
00D0
01C0
0280
0340
0700
0A00
0D00
1C00
ENDCHAR
STARTCHAR glyph592
ENCODING -1
SWIDTH 402 0
DWIDTH 6 0
BBX 4 5 1 10
BITMAP
76
8D
00
D7
7D
ENDCHAR
STARTCHAR glyph593
ENCODING -1
SWIDTH 183 0
DWIDTH 3 0
BBX 2 4 0 -3
BITMAP
70
70
70
70
ENDCHAR
STARTCHAR OE.c2sc
ENCODING -1
SWIDTH 714 0
DWIDTH 11 0
BBX 11 9 0 0
BITMAP
07FFFC
2D6D54
341C00
741C00
701FF4
341D50
341C00
1D6D54
0BFFFC
ENDCHAR
STARTCHAR nine.oldstyle.pnum
ENCODING -1
SWIDTH 520 0
DWIDTH 8 0
BBX 7 12 1 -3
BITMAP
1F80
75E0
A070
D034
D034
A034
75B4
1FB4
0070
00A0
16D0
7E40
ENDCHAR
STARTCHAR glyph596
ENCODING -1
SWIDTH 234 0
DWIDTH 4 0
BBX 4 4 -1 -3
BITMAP
0A
0A
1E
78
ENDCHAR
STARTCHAR three.oldstyle
ENCODING -1
SWIDTH 494 0
DWIDTH 8 0
BBX 7 12 0 -3
BITMAP
3FFC
1574
00A0
0280
03D0
0074
0028
001C
002C
0038
65B4
2F90
ENDCHAR
STARTCHAR five.oldstyle
ENCODING -1
SWIDTH 494 0
DWIDTH 8 0
BBX 6 12 1 -3
BITMAP
7FF0
7550
6000
A000
BF80
A6D0
40B0
0070
0070
00A0
96D0
6F40
ENDCHAR
STARTCHAR four.oldstyle
ENCODING -1
SWIDTH 494 0
DWIDTH 8 0
BBX 8 12 0 -3
BITMAP
0074
00B4
01F4
0374
0A34
0D34
2834
7578
BFFE
0034
0034
0034
ENDCHAR
STARTCHAR two.oldstyle
ENCODING -1
SWIDTH 494 0
DWIDTH 8 0
BBX 6 9 1 0
BITMAP
2F80
B5D0
D0A0
40D0
02C0
0B40
1D00
7950
BFF0
ENDCHAR
STARTCHAR seven.oldstyle
ENCODING -1
SWIDTH 494 0
DWIDTH 8 0
BBX 6 12 1 -3
BITMAP
FFF0
55B0
0090
01C0
0280
0340
0700
0A00
0D00
1C00
2800
3400
ENDCHAR
STARTCHAR zero.oldstyle
ENCODING -1
SWIDTH 494 0
DWIDTH 8 0
BBX 8 9 0 0
BITMAP
0BE0
2D78
741C
700D
700D
700D
741C
2D78
0BE0
ENDCHAR
STARTCHAR six.oldstyle
ENCODING -1
SWIDTH 494 0
DWIDTH 8 0
BBX 6 12 1 0
BITMAP
0B80
2D40
7400
A000
EB80
F5E0
E0B0
D070
D070
A0B0
75D0
1F80
ENDCHAR
STARTCHAR nine.oldstyle
ENCODING -1
SWIDTH 494 0
DWIDTH 8 0
BBX 6 12 1 -3
BITMAP
2F40
B5D0
D0B0
D070
D070
D070
B5F0
2FB0
00B0
00E0
56C0
7E00
ENDCHAR
STARTCHAR eight.oldstyle
ENCODING -1
SWIDTH 494 0
DWIDTH 8 0
BBX 6 12 1 0
BITMAP
2F80
75D0
A0A0
A0A0
71D0
2F80
75D0
D0A0
D070
D0B0
B5D0
2F80
ENDCHAR
STARTCHAR one.oldstyle
ENCODING -1
SWIDTH 494 0
DWIDTH 8 0
BBX 5 9 1 0
BITMAP
0240
1F40
7B40
0340
0340
0340
0340
0340
0340
ENDCHAR
STARTCHAR glyph607
ENCODING -1
SWIDTH 237 0
DWIDTH 4 0
BBX 4 12 -1 -3
BITMAP
0A
0A
0A
0A
0A
0A
0A
0A
0A
0A
1D
78
ENDCHAR
STARTCHAR glyph608
ENCODING -1
SWIDTH 238 0
DWIDTH 4 0
BBX 4 12 -1 -3
BITMAP
0A
0A
0A
0A
0A
0A
0A
0A
0A
0A
1D
78
ENDCHAR
STARTCHAR glyph609
ENCODING -1
SWIDTH 235 0
DWIDTH 4 0
BBX 2 9 1 0
BITMAP
E0
E0
E0
E0
E0
E0
E0
E0
E0
ENDCHAR
STARTCHAR glyph610
ENCODING -1
SWIDTH 235 0
DWIDTH 4 0
BBX 3 12 0 -3
BITMAP
38
38
38
38
38
38
38
38
38
60
90
B4
ENDCHAR
STARTCHAR glyph611
ENCODING -1
SWIDTH 235 0
DWIDTH 4 0
BBX 2 9 1 0
BITMAP
E0
E0
E0
E0
E0
E0
E0
E0
E0
ENDCHAR
STARTCHAR germandbls.sc
ENCODING -1
SWIDTH 475 0
DWIDTH 8 0
BBX 6 9 1 0
BITMAP
2F40
B6D0
D280
D700
DB80
D1A0
D0A0
D5E0
DF80
ENDCHAR
STARTCHAR zero.oldstyle.pnum
ENCODING -1
SWIDTH 545 0
DWIDTH 9 0
BBX 7 9 1 0
BITMAP
1F90
75B0
A038
D028
D028
D028
A038
75B0
1F90
ENDCHAR
STARTCHAR seven.pnum
ENCODING -1
SWIDTH 458 0
DWIDTH 7 0
BBX 7 12 0 0
BITMAP
7FF8
1574
0070
00A0
00D0
01C0
0280
0340
0700
0A00
0D00
1C00
ENDCHAR
STARTCHAR b.ss06
ENCODING -1
SWIDTH 493 0
DWIDTH 8 0
BBX 7 12 1 0
BITMAP
D000
D000
D000
EB80
F5E0
D070
D074
D034
D074
D070
F5E0
DB80
ENDCHAR
STARTCHAR c.ss06
ENCODING -1
SWIDTH 460 0
DWIDTH 7 0
BBX 7 9 0 0
BITMAP
0BD0
2D74
3428
3400
7000
3400
3428
2D74
0BD0
ENDCHAR
STARTCHAR d.ss06
ENCODING -1
SWIDTH 503 0
DWIDTH 8 0
BBX 7 12 0 0
BITMAP
001C
001C
001C
0BAC
2D7C
381C
741C
701C
341C
341C
2D7C
0B9C
ENDCHAR
STARTCHAR g.ss06
ENCODING -1
SWIDTH 500 0
DWIDTH 8 0
BBX 7 12 0 -3
BITMAP
0BDC
2D7C
381C
741C
701C
741C
341C
2D7C
0BAC
0028
1574
1BE0
ENDCHAR
STARTCHAR o.ss06
ENCODING -1
SWIDTH 508 0
DWIDTH 8 0
BBX 8 9 0 0
BITMAP
07E0
1D78
381C
340D
700D
340D
341C
1D78
0BE0
ENDCHAR
STARTCHAR p.ss06
ENCODING -1
SWIDTH 500 0
DWIDTH 8 0
BBX 7 12 1 -3
BITMAP
DB80
F5E0
D070
D074
D034
D074
D070
F5E0
EB80
D000
D000
D000
ENDCHAR
STARTCHAR q.ss06
ENCODING -1
SWIDTH 508 0
DWIDTH 8 0
BBX 7 12 0 -3
BITMAP
0BAC
2D7C
381C
341C
701C
341C
341C
2D7C
0BEC
001C
001C
001C
ENDCHAR
STARTCHAR e.ss07
ENCODING -1
SWIDTH 468 0
DWIDTH 8 0
BBX 7 9 0 0
BITMAP
0BD0
1D74
3828
3428
7FFC
3550
3400
1D54
07E4
ENDCHAR
STARTCHAR g.ss07
ENCODING -1
SWIDTH 492 0
DWIDTH 8 0
BBX 7 12 0 -3
BITMAP
0BAC
2D7C
342C
342C
702C
342C
342C
2D7C
0BA8
0028
0574
1BD0
ENDCHAR
STARTCHAR one.pnum
ENCODING -1
SWIDTH 382 0
DWIDTH 6 0
BBX 5 12 0 0
BITMAP
0240
1F40
7740
0340
0340
0340
0340
0340
0340
0340
0340
0340
ENDCHAR
STARTCHAR ampersand.c2sc
ENCODING -1
SWIDTH 526 0
DWIDTH 8 0
BBX 7 9 1 0
BITMAP
2E00
B740
A340
3B00
3D24
AB34
D2F0
E5E0
7E74
ENDCHAR
STARTCHAR Lslash.c2sc
ENCODING -1
SWIDTH 411 0
DWIDTH 7 0
BBX 7 9 0 0
BITMAP
3400
3400
3400
3A00
B900
7400
3400
3950
3FF4
ENDCHAR
STARTCHAR AE.c2sc
ENCODING -1
SWIDTH 676 0
DWIDTH 11 0
BBX 11 9 0 0
BITMAP
00BFF0
01F940
02B800
076FD0
0A2940
0D2800
2FF800
396950
B02FF4
ENDCHAR
STARTCHAR Thorn.c2sc
ENCODING -1
SWIDTH 440 0
DWIDTH 7 0
BBX 6 9 1 0
BITMAP
D000
D000
FF40
E6D0
D0D0
D1D0
FF80
E400
D000
ENDCHAR
STARTCHAR Oslash.c2sc
ENCODING -1
SWIDTH 519 0
DWIDTH 8 0
BBX 8 10 0 -1
BITMAP
07EC
2D78
347D
749D
718E
374D
3E0D
1D68
2BE0
1000
ENDCHAR
STARTCHAR Hbar.c2sc
ENCODING -1
SWIDTH 533 0
DWIDTH 9 0
BBX 8 9 0 0
BITMAP
340E
BFFF
395E
340E
3FFE
395E
340E
340E
340E
ENDCHAR
STARTCHAR Eng.c2sc
ENCODING -1
SWIDTH 533 0
DWIDTH 9 0
BBX 7 12 1 -3
BITMAP
E038
F438
F838
DD38
D738
D278
D0F8
D0B8
D038
0034
0074
01E0
ENDCHAR
STARTCHAR Dcroat.c2sc
ENCODING -1
SWIDTH 492 0
DWIDTH 8 0
BBX 8 9 -1 0
BITMAP
0FE4
0E6D
0D0A
0D07
7FC7
1E47
0D0A
0E6D
0FE4
ENDCHAR
STARTCHAR Eth.c2sc
ENCODING -1
SWIDTH 492 0
DWIDTH 8 0
BBX 8 9 -1 0
BITMAP
0FE4
0E6D
0D0A
0D07
7FC7
1E47
0D0A
0E6D
0FE4
ENDCHAR
STARTCHAR Tbar.c2sc
ENCODING -1
SWIDTH 456 0
DWIDTH 7 0
BBX 7 9 0 0
BITMAP
BFFC
1754
0340
1FE0
0780
0340
0340
0340
0340
ENDCHAR
STARTCHAR Agrave.c2sc
ENCODING -1
SWIDTH 501 0
DWIDTH 8 0
BBX 8 12 0 0
BITMAP
0A00
0240
0000
0280
03C0
07A0
0A70
0D74
1C38
3FFC
755D
B00E
ENDCHAR
STARTCHAR Aacute.c2sc
ENCODING -1
SWIDTH 501 0
DWIDTH 8 0
BBX 8 12 0 0
BITMAP
00B0
0180
0000
0280
03C0
07A0
0A70
0D74
1C38
3FFC
755D
B00E
ENDCHAR
STARTCHAR Acircumflex.c2sc
ENCODING -1
SWIDTH 501 0
DWIDTH 8 0
BBX 8 12 0 0
BITMAP
02C0
0960
0000
0280
03C0
07A0
0A70
0D74
1C38
3FFC
755D
B00E
ENDCHAR
STARTCHAR Atilde.c2sc
ENCODING -1
SWIDTH 501 0
DWIDTH 8 0
BBX 8 12 0 0
BITMAP
0B64
18A0
0000
0280
03C0
07A0
0A70
0D74
1C38
3FFC
755D
B00E
ENDCHAR
STARTCHAR Adieresis.c2sc
ENCODING -1
SWIDTH 501 0
DWIDTH 8 0
BBX 8 12 0 0
BITMAP
0824
1C34
0000
0280
03C0
07A0
0A70
0D74
1C38
3FFC
755D
B00E
ENDCHAR
STARTCHAR Aring.c2sc
ENCODING -1
SWIDTH 501 0
DWIDTH 8 0
BBX 8 13 0 0
BITMAP
0690
0920
0690
0000
0280
03C0
07A0
0A70
0D74
1C38
3FFC
755D
B00E
ENDCHAR
STARTCHAR Aringacute.c2sc
ENCODING -1
SWIDTH 501 0
DWIDTH 8 0
BBX 8 13 0 0
BITMAP
0090
0280
0280
0280
0280
03C0
07A0
0A70
0D74
1C38
3FFC
755D
B00E
ENDCHAR
STARTCHAR Ccedilla.c2sc
ENCODING -1
SWIDTH 490 0
DWIDTH 8 0
BBX 7 12 0 -3
BITMAP
0BE0
2D68
341C
7400
7000
3400
341C
2D68
0BE0
0140
0090
02C0
ENDCHAR
STARTCHAR Egrave.c2sc
ENCODING -1
SWIDTH 428 0
DWIDTH 7 0
BBX 6 12 1 0
BITMAP
7800
1D00
0000
FFD0
E540
D000
D000
FF80
E500
D000
E540
FFD0
ENDCHAR
STARTCHAR Eacute.c2sc
ENCODING -1
SWIDTH 428 0
DWIDTH 7 0
BBX 6 12 1 0
BITMAP
0780
0A00
0000
FFD0
E540
D000
D000
FF80
E500
D000
E540
FFD0
ENDCHAR
STARTCHAR Ecircumflex.c2sc
ENCODING -1
SWIDTH 428 0
DWIDTH 7 0
BBX 6 12 1 0
BITMAP
1E00
2640
0000
FFD0
E540
D000
D000
FF80
E500
D000
E540
FFD0
ENDCHAR
STARTCHAR Edieresis.c2sc
ENCODING -1
SWIDTH 428 0
DWIDTH 7 0
BBX 6 12 1 0
BITMAP
5080
A1C0
0000
FFD0
E540
D000
D000
FF80
E500
D000
E540
FFD0
ENDCHAR
STARTCHAR Igrave.c2sc
ENCODING -1
SWIDTH 221 0
DWIDTH 4 0
BBX 4 12 -1 0
BITMAP
78
1D
00
0D
0D
0D
0D
0D
0D
0D
0D
0D
ENDCHAR
STARTCHAR Iacute.c2sc
ENCODING -1
SWIDTH 221 0
DWIDTH 4 0
BBX 3 12 1 0
BITMAP
38
A0
00
D0
D0
D0
D0
D0
D0
D0
D0
D0
ENDCHAR
STARTCHAR Icircumflex.c2sc
ENCODING -1
SWIDTH 221 0
DWIDTH 4 0
BBX 4 12 0 0
BITMAP
78
99
00
34
34
34
34
34
34
34
34
34
ENDCHAR
STARTCHAR Idieresis.c2sc
ENCODING -1
SWIDTH 221 0
DWIDTH 4 0
BBX 6 12 -1 0
BITMAP
5080
A1D0
0000
0D00
0D00
0D00
0D00
0D00
0D00
0D00
0D00
0D00
ENDCHAR
STARTCHAR Ntilde.c2sc
ENCODING -1
SWIDTH 533 0
DWIDTH 9 0
BBX 7 12 1 0
BITMAP
2DA0
32C0
0000
E038
F438
F838
DD38
D738
D278
D1F8
D0B8
D038
ENDCHAR
STARTCHAR Ograve.c2sc
ENCODING -1
SWIDTH 519 0
DWIDTH 8 0
BBX 8 12 0 0
BITMAP
0B00
0280
0000
07E0
2D68
340D
740D
700E
340D
340D
1D68
0BE0
ENDCHAR
STARTCHAR Oacute.c2sc
ENCODING -1
SWIDTH 519 0
DWIDTH 8 0
BBX 8 12 0 0
BITMAP
00B4
01C0
0000
07E0
2D68
340D
740D
700E
340D
340D
1D68
0BE0
ENDCHAR
STARTCHAR Ocircumflex.c2sc
ENCODING -1
SWIDTH 519 0
DWIDTH 8 0
BBX 8 12 0 0
BITMAP
02D0
0A60
0000
07E0
2D68
340D
740D
700E
340D
340D
1D68
0BE0
ENDCHAR
STARTCHAR Otilde.c2sc
ENCODING -1
SWIDTH 519 0
DWIDTH 8 0
BBX 8 12 0 0
BITMAP
0B64
08B0
0000
07E0
2D68
340D
740D
700E
340D
340D
1D68
0BE0
ENDCHAR
STARTCHAR Odieresis.c2sc
ENCODING -1
SWIDTH 519 0
DWIDTH 8 0
BBX 8 12 0 0
BITMAP
0814
1D28
0000
07E0
2D68
340D
740D
700E
340D
340D
1D68
0BE0
ENDCHAR
STARTCHAR Ugrave.c2sc
ENCODING -1
SWIDTH 488 0
DWIDTH 8 0
BBX 6 12 1 0
BITMAP
3800
0900
0000
D070
D070
D070
D070
D070
D070
D070
A5E0
2F80
ENDCHAR
STARTCHAR Uacute.c2sc
ENCODING -1
SWIDTH 488 0
DWIDTH 8 0
BBX 6 12 1 0
BITMAP
0280
0600
0000
D070
D070
D070
D070
D070
D070
D070
A5E0
2F80
ENDCHAR
STARTCHAR Ucircumflex.c2sc
ENCODING -1
SWIDTH 488 0
DWIDTH 8 0
BBX 6 12 1 0
BITMAP
1E00
2680
0000
D070
D070
D070
D070
D070
D070
D070
A5E0
2F80
ENDCHAR
STARTCHAR Udieresis.c2sc
ENCODING -1
SWIDTH 488 0
DWIDTH 8 0
BBX 6 12 1 0
BITMAP
6080
70D0
0000
D070
D070
D070
D070
D070
D070
D070
A5E0
2F80
ENDCHAR
STARTCHAR Yacute.c2sc
ENCODING -1
SWIDTH 458 0
DWIDTH 7 0
BBX 7 12 0 0
BITMAP
01E0
0280
0000
B02C
3434
2CB0
0DD0
0BC0
0740
0340
0340
0340
ENDCHAR
STARTCHAR Amacron.c2sc
ENCODING -1
SWIDTH 501 0
DWIDTH 8 0
BBX 8 11 0 0
BITMAP
1FF4
0000
0280
03C0
07A0
0A70
0D74
1C38
3FFC
755D
B00E
ENDCHAR
STARTCHAR Abreve.c2sc
ENCODING -1
SWIDTH 501 0
DWIDTH 8 0
BBX 8 12 0 0
BITMAP
1C34
07E0
0000
0280
03C0
07A0
0A70
0D74
1C38
3FFC
755D
B00E
ENDCHAR
STARTCHAR Aogonek.c2sc
ENCODING -1
SWIDTH 501 0
DWIDTH 8 0
BBX 8 12 0 -3
BITMAP
0280
03C0
07A0
0A70
0D74
1C38
3FFC
755D
B00E
0018
0028
002D
ENDCHAR
STARTCHAR Cacute.c2sc
ENCODING -1
SWIDTH 490 0
DWIDTH 8 0
BBX 7 12 0 0
BITMAP
00B0
0180
0000
0BE0
2D68
341C
7400
7000
3400
341C
2D68
0BE0
ENDCHAR
STARTCHAR Ccircumflex.c2sc
ENCODING -1
SWIDTH 490 0
DWIDTH 8 0
BBX 7 12 0 0
BITMAP
02C0
0960
0000
0BE0
2D68
341C
7400
7000
3400
341C
2D68
0BE0
ENDCHAR
STARTCHAR Cdotaccent.c2sc
ENCODING -1
SWIDTH 490 0
DWIDTH 8 0
BBX 7 12 0 0
BITMAP
0140
0280
0000
0BE0
2D68
341C
7400
7000
3400
341C
2D68
0BE0
ENDCHAR
STARTCHAR Ccaron.c2sc
ENCODING -1
SWIDTH 490 0
DWIDTH 8 0
BBX 7 12 0 0
BITMAP
0960
0280
0000
0BE0
2D68
341C
7400
7000
3400
341C
2D68
0BE0
ENDCHAR
STARTCHAR Dcaron.c2sc
ENCODING -1
SWIDTH 492 0
DWIDTH 8 0
BBX 6 12 1 0
BITMAP
6340
1D00
0000
FE40
E6D0
D0A0
D070
D070
D070
D0A0
E6D0
FE40
ENDCHAR
STARTCHAR Emacron.c2sc
ENCODING -1
SWIDTH 428 0
DWIDTH 7 0
BBX 6 11 1 0
BITMAP
BFC0
0000
FFD0
E540
D000
D000
FF80
E500
D000
E540
FFD0
ENDCHAR
STARTCHAR Ebreve.c2sc
ENCODING -1
SWIDTH 428 0
DWIDTH 7 0
BBX 6 12 1 0
BITMAP
A1C0
2F40
0000
FFD0
E540
D000
D000
FF80
E500
D000
E540
FFD0
ENDCHAR
STARTCHAR Edotaccent.c2sc
ENCODING -1
SWIDTH 428 0
DWIDTH 7 0
BBX 6 12 1 0
BITMAP
0900
0D00
0000
FFD0
E540
D000
D000
FF80
E500
D000
E540
FFD0
ENDCHAR
STARTCHAR Eogonek.c2sc
ENCODING -1
SWIDTH 428 0
DWIDTH 7 0
BBX 6 12 1 -3
BITMAP
FFD0
E540
D000
D000
FF80
E500
D000
E540
FFD0
0240
0740
03C0
ENDCHAR
STARTCHAR Ecaron.c2sc
ENCODING -1
SWIDTH 428 0
DWIDTH 7 0
BBX 6 12 1 0
BITMAP
3640
1E00
0000
FFD0
E540
D000
D000
FF80
E500
D000
E540
FFD0
ENDCHAR
STARTCHAR Gcircumflex.c2sc
ENCODING -1
SWIDTH 509 0
DWIDTH 8 0
BBX 8 12 0 0
BITMAP
0380
0960
0000
0BE0
2D68
3418
3400
70FD
341D
340D
1D6D
0BE4
ENDCHAR
STARTCHAR Gbreve.c2sc
ENCODING -1
SWIDTH 509 0
DWIDTH 8 0
BBX 8 12 0 0
BITMAP
1C34
0BE0
0000
0BE0
2D68
3418
3400
70FD
341D
340D
1D6D
0BE4
ENDCHAR
STARTCHAR Gdotaccent.c2sc
ENCODING -1
SWIDTH 509 0
DWIDTH 8 0
BBX 8 12 0 0
BITMAP
0140
0280
0000
0BE0
2D68
3418
3400
70FD
341D
340D
1D6D
0BE4
ENDCHAR
STARTCHAR uni0122.c2sc
ENCODING -1
SWIDTH 509 0
DWIDTH 8 0
BBX 8 13 0 -4
BITMAP
0BE0
2D68
3418
3400
70FD
341D
340D
1D6D
0BE4
0000
0280
0240
0200
ENDCHAR
STARTCHAR Hcircumflex.c2sc
ENCODING -1
SWIDTH 533 0
DWIDTH 9 0
BBX 7 12 1 0
BITMAP
0B40
1980
0000
D038
D038
D038
FFF8
E578
D038
D038
D038
D038
ENDCHAR
STARTCHAR Itilde.c2sc
ENCODING -1
SWIDTH 221 0
DWIDTH 4 0
BBX 5 12 -1 0
BITMAP
79C0
5780
0000
0D00
0D00
0D00
0D00
0D00
0D00
0D00
0D00
0D00
ENDCHAR
STARTCHAR Imacron.c2sc
ENCODING -1
SWIDTH 221 0
DWIDTH 4 0
BBX 5 11 -1 0
BITMAP
7FC0
0000
0D00
0D00
0D00
0D00
0D00
0D00
0D00
0D00
0D00
ENDCHAR
STARTCHAR Ibreve.c2sc
ENCODING -1
SWIDTH 221 0
DWIDTH 4 0
BBX 5 12 -1 0
BITMAP
61C0
2F40
0000
0D00
0D00
0D00
0D00
0D00
0D00
0D00
0D00
0D00
ENDCHAR
STARTCHAR Iogonek.c2sc
ENCODING -1
SWIDTH 221 0
DWIDTH 4 0
BBX 3 12 0 -3
BITMAP
34
34
34
34
34
34
34
34
38
60
A0
74
ENDCHAR
STARTCHAR Idotaccent.c2sc
ENCODING -1
SWIDTH 221 0
DWIDTH 4 0
BBX 2 12 1 0
BITMAP
90
D0
00
D0
D0
D0
D0
D0
D0
D0
D0
D0
ENDCHAR
STARTCHAR Jcircumflex.c2sc
ENCODING -1
SWIDTH 419 0
DWIDTH 7 0
BBX 7 12 0 0
BITMAP
00E0
0268
0000
00A0
00A0
00A0
00A0
00A0
00A0
60A0
75D0
2F80
ENDCHAR
STARTCHAR uni0136.c2sc
ENCODING -1
SWIDTH 473 0
DWIDTH 8 0
BBX 7 13 1 -4
BITMAP
D0B0
D2D0
D740
EE00
FE00
F740
D2C0
D0E0
D074
0000
0D00
0C00
1800
ENDCHAR
STARTCHAR Lacute.c2sc
ENCODING -1
SWIDTH 411 0
DWIDTH 7 0
BBX 6 12 1 0
BITMAP
3800
A000
0000
D000
D000
D000
D000
D000
D000
D000
E540
FFD0
ENDCHAR
STARTCHAR uni013B.c2sc
ENCODING -1
SWIDTH 411 0
DWIDTH 7 0
BBX 6 13 1 -4
BITMAP
D000
D000
D000
D000
D000
D000
D000
E540
FFD0
0000
0D00
1C00
1800
ENDCHAR
STARTCHAR Lcaron.c2sc
ENCODING -1
SWIDTH 411 0
DWIDTH 7 0
BBX 6 9 1 0
BITMAP
D700
D700
D500
D000
D000
D000
D000
E540
FFD0
ENDCHAR
STARTCHAR Ldot.c2sc
ENCODING -1
SWIDTH 411 0
DWIDTH 7 0
BBX 6 9 1 0
BITMAP
D000
D000
D000
D600
D700
D000
D000
E540
FFD0
ENDCHAR
STARTCHAR Nacute.c2sc
ENCODING -1
SWIDTH 533 0
DWIDTH 9 0
BBX 7 12 1 0
BITMAP
02D0
0740
0000
E038
F438
F838
DD38
D738
D278
D1F8
D0B8
D038
ENDCHAR
STARTCHAR uni0145.c2sc
ENCODING -1
SWIDTH 533 0
DWIDTH 9 0
BBX 7 13 1 -4
BITMAP
E038
F438
F838
DD38
D738
D278
D1F8
D0B8
D038
0000
0700
0A00
0900
ENDCHAR
STARTCHAR Ncaron.c2sc
ENCODING -1
SWIDTH 533 0
DWIDTH 9 0
BBX 7 12 1 0
BITMAP
19C0
0B00
0000
E038
F438
F838
DD38
D738
D278
D1F8
D0B8
D038
ENDCHAR
STARTCHAR Omacron.c2sc
ENCODING -1
SWIDTH 519 0
DWIDTH 8 0
BBX 8 11 0 0
BITMAP
0FF4
0000
07E0
2D68
340D
740D
700E
340D
340D
1D68
0BE0
ENDCHAR
STARTCHAR Obreve.c2sc
ENCODING -1
SWIDTH 519 0
DWIDTH 8 0
BBX 8 12 0 0
BITMAP
0D24
07E0
0000
07E0
2D68
340D
740D
700E
340D
340D
1D68
0BE0
ENDCHAR
STARTCHAR Ohungarumlaut.c2sc
ENCODING -1
SWIDTH 519 0
DWIDTH 8 0
BBX 8 12 0 0
BITMAP
02A8
0660
0000
07E0
2D68
340D
740D
700E
340D
340D
1D68
0BE0
ENDCHAR
STARTCHAR Racute.c2sc
ENCODING -1
SWIDTH 465 0
DWIDTH 7 0
BBX 6 12 1 0
BITMAP
0780
0900
0000
FF80
E5E0
D0A0
D0E0
FF80
E780
D1C0
D0E0
D0B0
ENDCHAR
STARTCHAR uni0156.c2sc
ENCODING -1
SWIDTH 465 0
DWIDTH 7 0
BBX 6 13 1 -4
BITMAP
FF80
E5E0
D0A0
D0E0
FF80
E780
D1C0
D0E0
D0B0
0000
0D00
1C00
1800
ENDCHAR
STARTCHAR Rcaron.c2sc
ENCODING -1
SWIDTH 465 0
DWIDTH 7 0
BBX 6 12 1 0
BITMAP
7240
1D00
0000
FF80
E5E0
D0A0
D0E0
FF80
E780
D1C0
D0E0
D0B0
ENDCHAR
STARTCHAR Sacute.c2sc
ENCODING -1
SWIDTH 453 0
DWIDTH 7 0
BBX 7 12 0 0
BITMAP
00E0
0280
0000
1BD0
3974
3424
3D00
0BE0
0074
7028
3974
1BE0
ENDCHAR
STARTCHAR Scircumflex.c2sc
ENCODING -1
SWIDTH 453 0
DWIDTH 7 0
BBX 7 12 0 0
BITMAP
0780
0990
0000
1BD0
3974
3424
3D00
0BE0
0074
7028
3974
1BE0
ENDCHAR
STARTCHAR Scedilla.c2sc
ENCODING -1
SWIDTH 453 0
DWIDTH 7 0
BBX 7 12 0 -3
BITMAP
1BD0
3974
3424
3D00
0BE0
0074
7028
3974
1BE0
0240
0080
0280
ENDCHAR
STARTCHAR Scaron.c2sc
ENCODING -1
SWIDTH 453 0
DWIDTH 7 0
BBX 7 12 0 0
BITMAP
0D90
0780
0000
1BD0
3974
3424
3D00
0BE0
0074
7028
3974
1BE0
ENDCHAR
STARTCHAR uni021A.c2sc
ENCODING -1
SWIDTH 456 0
DWIDTH 7 0
BBX 7 13 0 -4
BITMAP
BFFC
1754
0340
0340
0340
0340
0340
0340
0340
0000
0340
0300
0600
ENDCHAR
STARTCHAR Tcaron.c2sc
ENCODING -1
SWIDTH 456 0
DWIDTH 7 0
BBX 7 12 0 0
BITMAP
0D90
0740
0000
BFFC
1754
0340
0340
0340
0340
0340
0340
0340
ENDCHAR
STARTCHAR uni0162.c2sc
ENCODING -1
SWIDTH 456 0
DWIDTH 7 0
BBX 7 12 0 -3
BITMAP
BFFC
1754
0340
0340
0340
0340
0340
0340
0340
0200
0080
0380
ENDCHAR
STARTCHAR Utilde.c2sc
ENCODING -1
SWIDTH 488 0
DWIDTH 8 0
BBX 6 12 1 0
BITMAP
3DD0
6780
0000
D070
D070
D070
D070
D070
D070
D070
A5E0
2F80
ENDCHAR
STARTCHAR Umacron.c2sc
ENCODING -1
SWIDTH 488 0
DWIDTH 8 0
BBX 6 11 1 0
BITMAP
7FD0
0000
D070
D070
D070
D070
D070
D070
D070
A5E0
2F80
ENDCHAR
STARTCHAR Ubreve.c2sc
ENCODING -1
SWIDTH 488 0
DWIDTH 8 0
BBX 6 12 1 0
BITMAP
71C0
2F40
0000
D070
D070
D070
D070
D070
D070
D070
A5E0
2F80
ENDCHAR
STARTCHAR Uring.c2sc
ENCODING -1
SWIDTH 488 0
DWIDTH 8 0
BBX 6 13 1 0
BITMAP
1A40
2180
1A40
0000
D070
D070
D070
D070
D070
D070
D070
A5E0
2F80
ENDCHAR
STARTCHAR Uhungarumlaut.c2sc
ENCODING -1
SWIDTH 488 0
DWIDTH 8 0
BBX 6 12 1 0
BITMAP
0DE0
1A80
0000
D070
D070
D070
D070
D070
D070
D070
A5E0
2F80
ENDCHAR
STARTCHAR Uogonek.c2sc
ENCODING -1
SWIDTH 488 0
DWIDTH 8 0
BBX 6 12 1 -3
BITMAP
D070
D070
D070
D070
D070
D070
D070
A5E0
2F80
0600
0A00
0780
ENDCHAR
STARTCHAR Wcircumflex.c2sc
ENCODING -1
SWIDTH 655 0
DWIDTH 10 0
BBX 10 12 0 0
BITMAP
00B400
019800
000000
707070
70B4A0
34E4A0
24D8D0
298CC0
1E4DC0
0E4A80
0F0780
0A0740
ENDCHAR
STARTCHAR Ycircumflex.c2sc
ENCODING -1
SWIDTH 458 0
DWIDTH 7 0
BBX 7 12 0 0
BITMAP
0780
0990
0000
B02C
3434
2CB0
0DD0
0BC0
0740
0340
0340
0340
ENDCHAR
STARTCHAR Ydieresis.c2sc
ENCODING -1
SWIDTH 458 0
DWIDTH 7 0
BBX 7 12 0 0
BITMAP
1420
2870
0000
B02C
3434
2CB0
0DD0
0BC0
0740
0340
0340
0340
ENDCHAR
STARTCHAR Zacute.c2sc
ENCODING -1
SWIDTH 454 0
DWIDTH 7 0
BBX 7 12 0 0
BITMAP
01E0
0280
0000
7FF8
1574
00E0
02C0
0740
0A00
1C00
3950
7FF8
ENDCHAR
STARTCHAR Zdotaccent.c2sc
ENCODING -1
SWIDTH 454 0
DWIDTH 7 0
BBX 7 12 0 0
BITMAP
0200
0340
0000
7FF8
1574
00E0
02C0
0740
0A00
1C00
3950
7FF8
ENDCHAR
STARTCHAR Zcaron.c2sc
ENCODING -1
SWIDTH 454 0
DWIDTH 7 0
BBX 7 12 0 0
BITMAP
0D90
0780
0000
7FF8
1574
00E0
02C0
0740
0A00
1C00
3950
7FF8
ENDCHAR
STARTCHAR two.pnum
ENCODING -1
SWIDTH 493 0
DWIDTH 8 0
BBX 7 12 1 0
BITMAP
2F80
B5D0
D0A0
80A0
00A0
01D0
0380
0B00
1D00
3800
B550
FFF4
ENDCHAR
STARTCHAR three.pnum
ENCODING -1
SWIDTH 493 0
DWIDTH 8 0
BBX 6 12 1 0
BITMAP
2F40
A5D0
D0A0
00A0
01D0
1F80
05D0
00A0
00A0
D0A0
A5D0
2F40
ENDCHAR
STARTCHAR four.pnum
ENCODING -1
SWIDTH 493 0
DWIDTH 8 0
BBX 8 12 0 0
BITMAP
00B0
00F0
02F0
0370
0A70
0D70
2870
3470
BFFD
1574
0070
0070
ENDCHAR
STARTCHAR five.pnum
ENCODING -1
SWIDTH 493 0
DWIDTH 8 0
BBX 7 12 1 0
BITMAP
3FF0
3550
7000
7000
7B80
75E0
0070
0074
0074
A070
75E0
1F80
ENDCHAR
STARTCHAR six.pnum
ENCODING -1
SWIDTH 503 0
DWIDTH 8 0
BBX 7 12 1 0
BITMAP
06C0
2E40
3400
7000
AB80
B9E0
A070
A034
A034
7070
39E0
1F80
ENDCHAR
STARTCHAR eight.pnum
ENCODING -1
SWIDTH 513 0
DWIDTH 8 0
BBX 6 12 1 0
BITMAP
1F80
75E0
A0A0
A0B0
74E0
2F80
75D0
A070
D070
A070
75E0
1F80
ENDCHAR
STARTCHAR nine.pnum
ENCODING -1
SWIDTH 503 0
DWIDTH 8 0
BBX 6 12 1 0
BITMAP
2F40
B6C0
D0E0
D0A0
D0A0
D0B0
A1E0
7FA0
04A0
01D0
1780
2D00
ENDCHAR
STARTCHAR zero.pnum
ENCODING -1
SWIDTH 513 0
DWIDTH 8 0
BBX 6 12 1 0
BITMAP
1F80
75E0
A0B0
E070
D070
D070
D070
D070
E070
A0B0
75E0
1F80
ENDCHAR
STARTCHAR G_acutecomb.ccmp
ENCODING -1
SWIDTH 590 0
DWIDTH 9 0
BBX 8 15 1 0
BITMAP
01D0
0240
0000
1BE0
7978
A01C
E004
D000
D000
D0FD
D05D
E00D
B00D
396D
1BE4
ENDCHAR
STARTCHAR g_acutecomb.ccmp
ENCODING -1
SWIDTH 492 0
DWIDTH 8 0
BBX 7 15 0 -3
BITMAP
00E0
0280
0000
0BAC
2D7C
342C
742C
702C
742C
342C
2D7C
0BAC
0028
1974
1BE0
ENDCHAR
STARTCHAR N_gravecomb.ccmp
ENCODING -1
SWIDTH 619 0
DWIDTH 10 0
BBX 8 15 1 0
BITMAP
0E00
0240
0000
B00A
B40A
BC0A
AD0A
A70A
A34A
A1CA
A0DA
A0BA
A03E
A02E
A00E
ENDCHAR
STARTCHAR n_gravecomb.ccmp
ENCODING -1
SWIDTH 483 0
DWIDTH 8 0
BBX 6 12 1 0
BITMAP
3800
0900
0000
EB80
F5D0
E0A0
D0A0
D0A0
D0A0
D0A0
D0A0
D0A0
ENDCHAR
STARTCHAR A_uni030F.ccmp
ENCODING -1
SWIDTH 576 0
DWIDTH 9 0
BBX 9 15 0 0
BITMAP
1DD000
076000
000000
00D000
01E000
02B000
037400
072800
0A1C00
0D1D00
1D0E00
2FFF00
395700
740340
B00280
ENDCHAR
STARTCHAR a_uni030F.ccmp
ENCODING -1
SWIDTH 479 0
DWIDTH 8 0
BBX 6 12 1 0
BITMAP
EA00
3700
0000
2F80
B5D0
90E0
00A0
2FE0
A4A0
D0A0
E6E0
7EA0
ENDCHAR
STARTCHAR E_uni030F.ccmp
ENCODING -1
SWIDTH 496 0
DWIDTH 8 0
BBX 7 15 1 0
BITMAP
AA00
2A40
0000
BFF4
A550
A000
A000
A000
BFE0
A540
A000
A000
A000
A550
BFF4
ENDCHAR
STARTCHAR e_uni030F.ccmp
ENCODING -1
SWIDTH 468 0
DWIDTH 8 0
BBX 7 12 0 0
BITMAP
7740
1DC0
0000
0BE0
2D74
3428
342C
7FFC
7550
3400
2D68
0BE0
ENDCHAR
STARTCHAR I_uni030F.ccmp
ENCODING -1
SWIDTH 250 0
DWIDTH 4 0
BBX 4 15 -1 0
BITMAP
EA
37
00
0A
0A
0A
0A
0A
0A
0A
0A
0A
0A
0A
0A
ENDCHAR
STARTCHAR dotlessi_uni030F.ccmp
ENCODING -1
SWIDTH 234 0
DWIDTH 4 0
BBX 5 12 -2 0
BITMAP
7740
1DC0
0000
0380
0380
0380
0380
0380
0380
0380
0380
0380
ENDCHAR
STARTCHAR O_uni030F.ccmp
ENCODING -1
SWIDTH 600 0
DWIDTH 10 0
BBX 8 15 1 0
BITMAP
7740
1DC0
0000
1BE0
3978
B01D
E00D
D00E
D00A
D00A
D00E
E00D
B01D
3978
1BE0
ENDCHAR
STARTCHAR o_uni030F.ccmp
ENCODING -1
SWIDTH 501 0
DWIDTH 8 0
BBX 8 12 0 0
BITMAP
7B80
1DC0
0000
0BE0
2D78
341C
740D
700D
740D
341C
2D78
0BE0
ENDCHAR
STARTCHAR R_uni030F.ccmp
ENCODING -1
SWIDTH 530 0
DWIDTH 9 0
BBX 7 15 1 0
BITMAP
AA00
2A40
0000
BF90
A5B4
A028
A028
A028
A074
BFE0
A5D0
A0A0
A074
A038
A02C
ENDCHAR
STARTCHAR r_uni030F.ccmp
ENCODING -1
SWIDTH 304 0
DWIDTH 5 0
BBX 6 12 -1 0
BITMAP
7740
1DC0
0000
0ED0
0F90
0E00
0D00
0D00
0D00
0D00
0D00
0D00
ENDCHAR
STARTCHAR U_uni030F.ccmp
ENCODING -1
SWIDTH 561 0
DWIDTH 9 0
BBX 7 15 1 0
BITMAP
B700
2A80
0000
D01C
D01C
D01C
D01C
D01C
D01C
D01C
D01C
D01C
A02C
7574
1FD0
ENDCHAR
STARTCHAR u_uni030F.ccmp
ENCODING -1
SWIDTH 483 0
DWIDTH 8 0
BBX 7 12 0 0
BITMAP
7740
1DC0
0000
3428
3428
3428
3428
3428
3428
3428
2DB8
0BA8
ENDCHAR
STARTCHAR Upsilon1_acutecomb.ccmp
ENCODING -1
SWIDTH 514 0
DWIDTH 8 0
BBX 11 13 -2 0
BITMAP
A00000
978074
82C0E0
00D1C0
00A280
007740
003F00
001E00
001D00
001D00
001D00
001D00
001D00
ENDCHAR
STARTCHAR B_dotbelowcomb.ccmp
ENCODING -1
SWIDTH 545 0
DWIDTH 9 0
BBX 7 15 1 -3
BITMAP
BFD0
A5B4
A038
A038
A074
BFE0
A574
A028
A028
A028
A5B4
BFD0
0000
0600
0500
ENDCHAR
STARTCHAR b_dotbelowcomb.ccmp
ENCODING -1
SWIDTH 493 0
DWIDTH 8 0
BBX 6 15 1 -3
BITMAP
D000
D000
D000
EB80
F5E0
D070
D070
D070
D070
D070
F5E0
DB80
0000
0A00
0500
ENDCHAR
STARTCHAR D_dotbelowcomb.ccmp
ENCODING -1
SWIDTH 570 0
DWIDTH 9 0
BBX 7 15 1 -3
BITMAP
BF90
A5B4
A028
A01C
A01C
A01C
A01C
A01C
A01C
A038
A5B4
BF90
0000
0600
0500
ENDCHAR
STARTCHAR d_dotbelowcomb.ccmp
ENCODING -1
SWIDTH 496 0
DWIDTH 8 0
BBX 7 15 0 -3
BITMAP
002C
002C
002C
0BAC
2D7C
342C
742C
702C
742C
342C
2D7C
0BAC
0000
0180
0140
ENDCHAR
STARTCHAR D_uniF6C3.ccmp
ENCODING -1
SWIDTH 570 0
DWIDTH 9 0
BBX 7 16 1 -4
BITMAP
BF90
A5B4
A028
A01C
A01C
A01C
A01C
A01C
A01C
A038
A5B4
BF90
0000
0700
0A00
0900
ENDCHAR
STARTCHAR d_uniF6C3.ccmp
ENCODING -1
SWIDTH 496 0
DWIDTH 8 0
BBX 7 16 0 -4
BITMAP
002C
002C
002C
0BAC
2D7C
342C
742C
702C
742C
342C
2D7C
0BAC
0000
01C0
0280
0240
ENDCHAR
STARTCHAR H_dotbelowcomb.ccmp
ENCODING -1
SWIDTH 620 0
DWIDTH 10 0
BBX 8 15 1 -3
BITMAP
A00A
A00A
A00A
A00A
A00A
BFFE
A55A
A00A
A00A
A00A
A00A
A00A
0000
0340
0240
ENDCHAR
STARTCHAR h_dotbelowcomb.ccmp
ENCODING -1
SWIDTH 482 0
DWIDTH 8 0
BBX 6 15 1 -3
BITMAP
D000
D000
D000
EB80
F5D0
E0A0
D0A0
D0A0
D0A0
D0A0
D0A0
D0A0
0000
0A00
0500
ENDCHAR
STARTCHAR K_acutecomb.ccmp
ENCODING -1
SWIDTH 544 0
DWIDTH 9 0
BBX 8 15 1 0
BITMAP
02D0
0600
0000
A02C
A074
A0E0
A2C0
A740
AF00
BB40
B2C0
A0E0
A074
A038
A01D
ENDCHAR
STARTCHAR k_acutecomb.ccmp
ENCODING -1
SWIDTH 450 0
DWIDTH 7 0
BBX 6 15 1 0
BITMAP
0380
0A00
0000
D000
D000
D000
D1D0
D380
DB00
ED00
FD00
EB00
D380
D1D0
D0A0
ENDCHAR
STARTCHAR K_dotbelowcomb.ccmp
ENCODING -1
SWIDTH 544 0
DWIDTH 9 0
BBX 8 14 1 -2
BITMAP
A02C
A074
A0E0
A2C0
A740
AF00
BB40
B2C0
A0E0
A074
A038
A01D
0740
0200
ENDCHAR
STARTCHAR k_dotbelowcomb.ccmp
ENCODING -1
SWIDTH 450 0
DWIDTH 7 0
BBX 6 14 1 -2
BITMAP
D000
D000
D000
D1D0
D380
DB00
ED00
FD00
EB00
D380
D1D0
D0A0
0D00
0800
ENDCHAR
STARTCHAR L_dotbelowcomb.ccmp
ENCODING -1
SWIDTH 475 0
DWIDTH 8 0
BBX 6 15 1 -3
BITMAP
A000
A000
A000
A000
A000
A000
A000
A000
A000
A000
A550
BFF0
0000
0600
0500
ENDCHAR
STARTCHAR l_dotbelowcomb.ccmp
ENCODING -1
SWIDTH 229 0
DWIDTH 4 0
BBX 2 15 1 -3
BITMAP
E0
E0
E0
E0
E0
E0
E0
E0
E0
E0
E0
E0
00
D0
90
ENDCHAR
STARTCHAR M_dotbelowcomb.ccmp
ENCODING -1
SWIDTH 755 0
DWIDTH 12 0
BBX 10 15 1 -3
BITMAP
B400F0
B801F0
BC02F0
AC03B0
AD07B0
AA0AB0
A70DB0
A35CB0
A2A8B0
A1F4B0
A0F0B0
A0A0B0
000000
00A000
005000
ENDCHAR
STARTCHAR m_dotbelowcomb.ccmp
ENCODING -1
SWIDTH 752 0
DWIDTH 12 0
BBX 10 12 1 -3
BITMAP
EB8B80
F5F9E0
D0B070
D0A070
D0A070
D0A070
D0A070
D0A070
D0A070
000000
00A000
005000
ENDCHAR
STARTCHAR N_dotbelowcomb.ccmp
ENCODING -1
SWIDTH 619 0
DWIDTH 10 0
BBX 8 15 1 -3
BITMAP
B00A
B40A
BC0A
AD0A
A70A
A34A
A1CA
A0DA
A0BA
A03E
A02E
A00E
0000
0240
0140
ENDCHAR
STARTCHAR n_dotbelowcomb.ccmp
ENCODING -1
SWIDTH 483 0
DWIDTH 8 0
BBX 6 12 1 -3
BITMAP
EB80
F5D0
E0A0
D0A0
D0A0
D0A0
D0A0
D0A0
D0A0
0000
0D00
0900
ENDCHAR
STARTCHAR O_tildecomb_acutecomb.ccmp
ENCODING -1
SWIDTH 600 0
DWIDTH 10 0
BBX 8 17 1 0
BITMAP
00C0
0180
0A60
09D0
0000
1BE0
3978
B01D
E00D
D00E
D00A
D00A
D00E
E00D
B01D
3978
1BE0
ENDCHAR
STARTCHAR P_acutecomb.ccmp
ENCODING -1
SWIDTH 554 0
DWIDTH 9 0
BBX 8 15 1 0
BITMAP
02D0
0740
0000
BFE0
A578
A01C
A01D
A01C
A028
BFF4
A500
A000
A000
A000
A000
ENDCHAR
STARTCHAR p_acutecomb.ccmp
ENCODING -1
SWIDTH 493 0
DWIDTH 8 0
BBX 6 15 1 -3
BITMAP
01D0
0340
0000
DB80
F5E0
D070
D070
D070
D070
D070
F5E0
EB80
D000
D000
D000
ENDCHAR
STARTCHAR R_dotbelowcomb.ccmp
ENCODING -1
SWIDTH 530 0
DWIDTH 9 0
BBX 7 15 1 -3
BITMAP
BF90
A5B4
A028
A028
A028
A074
BFE0
A5D0
A0A0
A074
A038
A02C
0000
0A00
0500
ENDCHAR
STARTCHAR r_dotbelowcomb.ccmp
ENCODING -1
SWIDTH 304 0
DWIDTH 5 0
BBX 4 12 1 -3
BITMAP
ED
F9
E0
D0
D0
D0
D0
D0
D0
00
D0
90
ENDCHAR
STARTCHAR S_dotbelowcomb.ccmp
ENCODING -1
SWIDTH 518 0
DWIDTH 8 0
BBX 8 15 0 -3
BITMAP
0BE4
2D6C
380D
3405
2D00
0F90
01F8
001D
100E
740E
2D6D
0BE4
0000
01C0
0180
ENDCHAR
STARTCHAR s_dotbelowcomb.ccmp
ENCODING -1
SWIDTH 455 0
DWIDTH 7 0
BBX 6 12 1 -3
BITMAP
2F40
A6D0
D090
B400
2F40
02D0
90D0
E5D0
2F40
0000
0A00
0500
ENDCHAR
STARTCHAR T_dotbelowcomb.ccmp
ENCODING -1
SWIDTH 520 0
DWIDTH 8 0
BBX 8 15 0 -3
BITMAP
BFFF
16D5
02C0
02C0
02C0
02C0
02C0
02C0
02C0
02C0
02C0
02C0
0000
0280
0140
ENDCHAR
STARTCHAR t_dotbelowcomb.ccmp
ENCODING -1
SWIDTH 295 0
DWIDTH 5 0
BBX 4 14 0 -3
BITMAP
2C
2C
BF
2C
2C
2C
2C
2C
2C
1D
0B
00
0A
05
ENDCHAR
STARTCHAR U_tildecomb_acutecomb.ccmp
ENCODING -1
SWIDTH 561 0
DWIDTH 9 0
BBX 7 17 1 0
BITMAP
0180
0240
0E90
1AC0
0000
D01C
D01C
D01C
D01C
D01C
D01C
D01C
D01C
D01C
A02C
7574
1FD0
ENDCHAR
STARTCHAR V_tildecomb.ccmp
ENCODING -1
SWIDTH 560 0
DWIDTH 9 0
BBX 9 15 0 0
BITMAP
079800
09B400
000000
B00380
740740
380B00
280E00
1C0D00
0D1C00
0A2800
073400
077000
03F000
02E000
01D000
ENDCHAR
STARTCHAR v_tildecomb.ccmp
ENCODING -1
SWIDTH 427 0
DWIDTH 7 0
BBX 7 12 0 0
BITMAP
1E60
26D0
0000
B034
7070
34A0
2890
1CD0
0DC0
0B80
0B40
0700
ENDCHAR
STARTCHAR V_dotbelowcomb.ccmp
ENCODING -1
SWIDTH 560 0
DWIDTH 9 0
BBX 9 15 0 -3
BITMAP
B00380
740740
380B00
280E00
1C0D00
0D1C00
0A2800
073400
077000
03F000
02E000
01D000
000000
01C000
008000
ENDCHAR
STARTCHAR v_dotbelowcomb.ccmp
ENCODING -1
SWIDTH 427 0
DWIDTH 7 0
BBX 7 12 0 -3
BITMAP
B034
7070
34A0
2890
1CD0
0DC0
0B80
0B40
0700
0000
0700
0200
ENDCHAR
STARTCHAR W_dotbelowcomb.ccmp
ENCODING -1
SWIDTH 761 0
DWIDTH 12 0
BBX 12 15 0 -3
BITMAP
702C0A
342C0D
343D0D
283A1C
28661C
1CA728
1C9328
0DC274
0EC2B0
0B81F0
0740E0
0740E0
000000
001800
001400
ENDCHAR
STARTCHAR w_dotbelowcomb.ccmp
ENCODING -1
SWIDTH 649 0
DWIDTH 10 0
BBX 10 12 0 -3
BITMAP
707070
70B0A0
34F4D0
25E8D0
299DC0
1E4E80
0F4B40
0F0B40
0A0700
000000
00A000
005000
ENDCHAR
STARTCHAR Z_dotbelowcomb.ccmp
ENCODING -1
SWIDTH 522 0
DWIDTH 8 0
BBX 8 15 0 -3
BITMAP
7FFD
155D
0028
0074
00E0
01C0
0380
0700
0E00
2C00
3954
7FFE
0000
0280
0140
ENDCHAR
STARTCHAR z_dotbelowcomb.ccmp
ENCODING -1
SWIDTH 438 0
DWIDTH 7 0
BBX 7 12 0 -3
BITMAP
7FF4
15B0
00D0
0280
0740
0E00
1C00
3950
7FF4
0000
0740
0200
ENDCHAR
STARTCHAR Alphatonos.c2sc
ENCODING -1
SWIDTH 501 0
DWIDTH 8 0
BBX 8 11 0 0
BITMAP
2800
3400
2280
03C0
07A0
0A70
0D74
1C38
3FFC
755D
B00E
ENDCHAR
STARTCHAR Epsilontonos.c2sc
ENCODING -1
SWIDTH 458 0
DWIDTH 7 0
BBX 8 11 -1 0
BITMAP
A000
D000
8BFE
0B54
0B00
0B00
0BFD
0B54
0B00
0B54
0BFE
ENDCHAR
STARTCHAR Etatonos.c2sc
ENCODING -1
SWIDTH 562 0
DWIDTH 9 0
BBX 9 11 -1 0
BITMAP
A00000
900000
8B01C0
0B01C0
0B01C0
0BFFC0
0B56C0
0B01C0
0B01C0
0B01C0
0B01C0
ENDCHAR
STARTCHAR Iotatonos.c2sc
ENCODING -1
SWIDTH 250 0
DWIDTH 4 0
BBX 4 11 -1 0
BITMAP
A0
90
87
07
07
07
07
07
07
07
07
ENDCHAR
STARTCHAR Omicrontonos.c2sc
ENCODING -1
SWIDTH 523 0
DWIDTH 8 0
BBX 9 11 -1 0
BITMAP
340000
700000
61F800
075B00
0E0340
0D0280
0D0280
0D0280
0E0340
075B00
01F800
ENDCHAR
STARTCHAR Upsilontonos.c2sc
ENCODING -1
SWIDTH 487 0
DWIDTH 8 0
BBX 10 11 -2 0
BITMAP
700000
600000
5341D0
02C2C0
00D340
00AB00
007D00
002C00
002800
002800
002800
ENDCHAR
STARTCHAR Omegatonos.c2sc
ENCODING -1
SWIDTH 545 0
DWIDTH 9 0
BBX 8 11 0 0
BITMAP
D000
C000
87E4
1D6C
280A
340A
340A
340A
280D
1E2D
3F7F
ENDCHAR
STARTCHAR Alpha.c2sc
ENCODING -1
SWIDTH 501 0
DWIDTH 8 0
BBX 8 9 0 0
BITMAP
0280
03C0
07A0
0A70
0D74
1C38
3FFC
755D
B00E
ENDCHAR
STARTCHAR Beta.c2sc
ENCODING -1
SWIDTH 475 0
DWIDTH 8 0
BBX 6 9 1 0
BITMAP
FF80
E5D0
D0A0
D1D0
FF80
D1E0
D0A0
E5E0
FF80
ENDCHAR
STARTCHAR Epsilon.c2sc
ENCODING -1
SWIDTH 428 0
DWIDTH 7 0
BBX 6 9 1 0
BITMAP
FFD0
D000
D000
D000
FF80
D000
D000
D000
FFD0
ENDCHAR
STARTCHAR Zeta.c2sc
ENCODING -1
SWIDTH 454 0
DWIDTH 7 0
BBX 7 9 0 0
BITMAP
7FF8
1574
00E0
02C0
0740
0A00
1C00
3950
7FF8
ENDCHAR
STARTCHAR Eta.c2sc
ENCODING -1
SWIDTH 533 0
DWIDTH 9 0
BBX 7 9 1 0
BITMAP
D038
D038
D038
FFF8
E578
D038
D038
D038
D038
ENDCHAR
STARTCHAR Iota.c2sc
ENCODING -1
SWIDTH 221 0
DWIDTH 4 0
BBX 2 9 1 0
BITMAP
D0
D0
D0
D0
D0
D0
D0
D0
D0
ENDCHAR
STARTCHAR Kappa.c2sc
ENCODING -1
SWIDTH 473 0
DWIDTH 8 0
BBX 7 9 1 0
BITMAP
D0B0
D2D0
D740
EE00
FE00
F740
D2C0
D0E0
D074
ENDCHAR
STARTCHAR Mu.c2sc
ENCODING -1
SWIDTH 652 0
DWIDTH 10 0
BBX 9 9 1 0
BITMAP
F00B40
F40F40
F81F40
EC2B40
DD3740
DA7340
D7A340
D2D340
D1C340
ENDCHAR
STARTCHAR Nu.c2sc
ENCODING -1
SWIDTH 533 0
DWIDTH 9 0
BBX 7 9 1 0
BITMAP
E038
F438
F838
DD38
D738
D278
D1F8
D0B8
D038
ENDCHAR
STARTCHAR Omicron.c2sc
ENCODING -1
SWIDTH 519 0
DWIDTH 8 0
BBX 8 9 0 0
BITMAP
07E0
2D68
340D
740D
700E
340D
340D
1D68
0BE0
ENDCHAR
STARTCHAR Rho.c2sc
ENCODING -1
SWIDTH 481 0
DWIDTH 8 0
BBX 6 9 1 0
BITMAP
FF80
E5B0
D070
D0B0
FFD0
E400
D000
D000
D000
ENDCHAR
STARTCHAR Tau.c2sc
ENCODING -1
SWIDTH 456 0
DWIDTH 7 0
BBX 7 9 0 0
BITMAP
BFFC
1754
0340
0340
0340
0340
0340
0340
0340
ENDCHAR
STARTCHAR Upsilon.c2sc
ENCODING -1
SWIDTH 458 0
DWIDTH 7 0
BBX 7 9 0 0
BITMAP
B02C
3434
2CB0
0DD0
0BC0
0740
0340
0340
0340
ENDCHAR
STARTCHAR Chi.c2sc
ENCODING -1
SWIDTH 478 0
DWIDTH 8 0
BBX 7 9 0 0
BITMAP
742C
2C74
0DA0
0BD0
0380
0BD0
1DA0
2874
742C
ENDCHAR
STARTCHAR Iotadieresis.c2sc
ENCODING -1
SWIDTH 221 0
DWIDTH 4 0
BBX 6 12 -1 0
BITMAP
5080
A1D0
0000
0D00
0D00
0D00
0D00
0D00
0D00
0D00
0D00
0D00
ENDCHAR
STARTCHAR Upsilondieresis.c2sc
ENCODING -1
SWIDTH 458 0
DWIDTH 7 0
BBX 7 12 0 0
BITMAP
1420
2870
0000
B02C
3434
2CB0
0DD0
0BC0
0740
0340
0340
0340
ENDCHAR
STARTCHAR uni0401.c2sc
ENCODING -1
SWIDTH 428 0
DWIDTH 7 0
BBX 6 12 1 0
BITMAP
5080
A1C0
0000
FFD0
E540
D000
D000
FF80
E500
D000
E540
FFD0
ENDCHAR
STARTCHAR uni0403.c2sc
ENCODING -1
SWIDTH 405 0
DWIDTH 7 0
BBX 5 12 1 0
BITMAP
0780
0A00
0000
FFC0
E540
D000
D000
D000
D000
D000
D000
D000
ENDCHAR
STARTCHAR uni0405.c2sc
ENCODING -1
SWIDTH 453 0
DWIDTH 7 0
BBX 7 9 0 0
BITMAP
1BD0
3974
3424
3D00
0BE0
0074
7028
3974
1BE0
ENDCHAR
STARTCHAR uni0406.c2sc
ENCODING -1
SWIDTH 221 0
DWIDTH 4 0
BBX 2 9 1 0
BITMAP
D0
D0
D0
D0
D0
D0
D0
D0
D0
ENDCHAR
STARTCHAR uni0407.c2sc
ENCODING -1
SWIDTH 221 0
DWIDTH 4 0
BBX 6 12 -1 0
BITMAP
5080
A1D0
0000
0D00
0D00
0D00
0D00
0D00
0D00
0D00
0D00
0D00
ENDCHAR
STARTCHAR uni0408.c2sc
ENCODING -1
SWIDTH 419 0
DWIDTH 7 0
BBX 6 9 0 0
BITMAP
00A0
00A0
00A0
00A0
00A0
00A0
60A0
75D0
2F80
ENDCHAR
STARTCHAR uni040C.c2sc
ENCODING -1
SWIDTH 473 0
DWIDTH 8 0
BBX 7 12 1 0
BITMAP
0740
0900
0000
D0B0
D2D0
D740
EE00
FE00
F740
D2C0
D0E0
D074
ENDCHAR
STARTCHAR uni040E.c2sc
ENCODING -1
SWIDTH 454 0
DWIDTH 7 0
BBX 7 12 0 0
BITMAP
2870
0BD0
0000
7028
3434
2870
1CA0
0DD0
0BC0
0780
0700
2D00
ENDCHAR
STARTCHAR uni0410.c2sc
ENCODING -1
SWIDTH 501 0
DWIDTH 8 0
BBX 8 9 0 0
BITMAP
0280
03C0
07A0
0A70
0D74
1C38
3FFC
755D
B00E
ENDCHAR
STARTCHAR uni0412.c2sc
ENCODING -1
SWIDTH 475 0
DWIDTH 8 0
BBX 6 9 1 0
BITMAP
FF80
E5D0
D0A0
D1D0
FF80
D1E0
D0A0
E5E0
FF80
ENDCHAR
STARTCHAR uni0413.c2sc
ENCODING -1
SWIDTH 405 0
DWIDTH 7 0
BBX 5 9 1 0
BITMAP
FFC0
E540
D000
D000
D000
D000
D000
D000
D000
ENDCHAR
STARTCHAR uni0415.c2sc
ENCODING -1
SWIDTH 428 0
DWIDTH 7 0
BBX 6 9 1 0
BITMAP
FFD0
E540
D000
D000
FF80
E500
D000
E540
FFD0
ENDCHAR
STARTCHAR uni0419.c2sc
ENCODING -1
SWIDTH 537 0
DWIDTH 9 0
BBX 7 12 1 0
BITMAP
34A0
1F80
0000
D038
D0B8
D1F8
D2A8
D728
DD28
F828
F428
E028
ENDCHAR
STARTCHAR uni041C.c2sc
ENCODING -1
SWIDTH 652 0
DWIDTH 10 0
BBX 9 9 1 0
BITMAP
F00B40
F40F40
F81F40
EC2B40
DD3740
DA7340
D7A340
D2D340
D1C340
ENDCHAR
STARTCHAR uni041D.c2sc
ENCODING -1
SWIDTH 533 0
DWIDTH 9 0
BBX 7 9 1 0
BITMAP
D038
D038
D038
FFF8
E578
D038
D038
D038
D038
ENDCHAR
STARTCHAR uni041E.c2sc
ENCODING -1
SWIDTH 519 0
DWIDTH 8 0
BBX 8 9 0 0
BITMAP
07E0
2D68
340D
740D
700E
340D
340D
1D68
0BE0
ENDCHAR
STARTCHAR uni041F.c2sc
ENCODING -1
SWIDTH 525 0
DWIDTH 8 0
BBX 7 9 1 0
BITMAP
FFF4
E574
D034
D034
D034
D034
D034
D034
D034
ENDCHAR
STARTCHAR uni0420.c2sc
ENCODING -1
SWIDTH 481 0
DWIDTH 8 0
BBX 6 9 1 0
BITMAP
FF80
E5B0
D070
D0B0
FFD0
E400
D000
D000
D000
ENDCHAR
STARTCHAR uni0421.c2sc
ENCODING -1
SWIDTH 490 0
DWIDTH 8 0
BBX 7 9 0 0
BITMAP
0BE0
2D68
341C
7400
7000
3400
341C
2D68
0BE0
ENDCHAR
STARTCHAR uni0422.c2sc
ENCODING -1
SWIDTH 456 0
DWIDTH 7 0
BBX 7 9 0 0
BITMAP
BFFC
1754
0340
0340
0340
0340
0340
0340
0340
ENDCHAR
STARTCHAR uni0425.c2sc
ENCODING -1
SWIDTH 478 0
DWIDTH 8 0
BBX 7 9 0 0
BITMAP
742C
2C74
0DA0
0BD0
0380
0BD0
1DA0
2874
742C
ENDCHAR
STARTCHAR uni0498.c2sc
ENCODING -1
SWIDTH 466 0
DWIDTH 7 0
BBX 7 12 0 -3
BITMAP
1BD0
39B4
1034
0074
07E0
0174
5028
7974
1FE0
0740
0740
0740
ENDCHAR
STARTCHAR uni04A2.c2sc
ENCODING -1
SWIDTH 533 0
DWIDTH 9 0
BBX 8 12 1 -3
BITMAP
D038
D038
D038
FFF8
E578
D038
D038
D038
D03E
000A
000A
000A
ENDCHAR
STARTCHAR uni04AA.c2sc
ENCODING -1
SWIDTH 490 0
DWIDTH 8 0
BBX 7 12 0 -3
BITMAP
0BE0
2D68
341C
3400
7000
7400
341C
2D68
0BE0
0280
0280
0280
ENDCHAR
STARTCHAR uni04AE.c2sc
ENCODING -1
SWIDTH 458 0
DWIDTH 7 0
BBX 7 9 0 0
BITMAP
B02C
3434
2CB0
0DD0
0BC0
0740
0340
0340
0340
ENDCHAR
STARTCHAR uni04BE.c2sc
ENCODING -1
SWIDTH 632 0
DWIDTH 10 0
BBX 10 13 0 -4
BITMAP
00BE00
02D780
9741C0
AB00D0
3FFFD0
0B5540
070000
02D640
00BE40
002800
002800
002800
002800
ENDCHAR
STARTCHAR uni04E2.c2sc
ENCODING -1
SWIDTH 537 0
DWIDTH 9 0
BBX 7 11 1 0
BITMAP
3FE0
0000
D038
D0B8
D1F8
D2A8
D728
DD28
F828
F428
E028
ENDCHAR
STARTCHAR uni04EE.c2sc
ENCODING -1
SWIDTH 454 0
DWIDTH 7 0
BBX 7 11 0 0
BITMAP
2FF0
0000
7028
3434
2870
1CA0
0DD0
0BC0
0780
0700
2D00
ENDCHAR
STARTCHAR uni0424.c2sc
ENCODING -1
SWIDTH 587 0
DWIDTH 9 0
BBX 9 9 0 0
BITMAP
00D000
0BF800
2DEB00
34D340
74D280
34D380
28D700
0BFD00
00D000
ENDCHAR
STARTCHAR IJ.c2sc
ENCODING -1
SWIDTH 641 0
DWIDTH 10 0
BBX 9 9 1 0
BITMAP
D00340
D00340
D00340
D00340
D00340
D00340
D24340
D29B00
D0BD00
ENDCHAR
STARTCHAR AEacute.c2sc
ENCODING -1
SWIDTH 676 0
DWIDTH 11 0
BBX 11 12 0 0
BITMAP
000B00
001800
000000
00BFF0
01F940
02B800
076FD0
0A2940
0D2800
2FF800
396950
B02FF4
ENDCHAR
STARTCHAR Oslashacute.c2sc
ENCODING -1
SWIDTH 519 0
DWIDTH 8 0
BBX 8 13 0 -1
BITMAP
00B4
01C0
0000
07EC
2D78
347D
749D
718E
374D
3E0D
1D68
2BE0
1000
ENDCHAR
STARTCHAR uni0218.c2sc
ENCODING -1
SWIDTH 453 0
DWIDTH 7 0
BBX 7 13 0 -4
BITMAP
1BD0
3974
3424
3D00
0BE0
0074
7028
3974
1BE0
0000
0340
0340
0200
ENDCHAR
STARTCHAR Wgrave.c2sc
ENCODING -1
SWIDTH 655 0
DWIDTH 10 0
BBX 10 12 0 0
BITMAP
02D000
00A000
000000
707070
70B4A0
34E4A0
24D8D0
298CC0
1E4DC0
0E4A80
0F0780
0A0740
ENDCHAR
STARTCHAR Wacute.c2sc
ENCODING -1
SWIDTH 655 0
DWIDTH 10 0
BBX 10 12 0 0
BITMAP
001D00
007400
000000
707070
70B4A0
34E4A0
24D8D0
298CC0
1E4DC0
0E4A80
0F0780
0A0740
ENDCHAR
STARTCHAR Wdieresis.c2sc
ENCODING -1
SWIDTH 655 0
DWIDTH 10 0
BBX 10 12 0 0
BITMAP
020500
034A00
000000
707070
70B4A0
34E4A0
24D8D0
298CC0
1E4DC0
0E4A80
0F0780
0A0740
ENDCHAR
STARTCHAR Ygrave.c2sc
ENCODING -1
SWIDTH 458 0
DWIDTH 7 0
BBX 7 12 0 0
BITMAP
1D00
0700
0000
B02C
3434
2CB0
0DD0
0BC0
0740
0340
0340
0340
ENDCHAR
STARTCHAR Aogonek.locl
ENCODING -1
SWIDTH 576 0
DWIDTH 9 0
BBX 9 15 0 -3
BITMAP
00D000
01E000
02B000
037400
072800
0A1C00
0D1D00
1D0E00
2FFF00
395700
740340
B04280
028000
034000
02D000
ENDCHAR
STARTCHAR aogonek.locl
ENCODING -1
SWIDTH 479 0
DWIDTH 8 0
BBX 6 12 1 -3
BITMAP
2F80
B5D0
90E0
00A0
2FE0
A4A0
D0A0
E6E0
7EA0
2400
7400
3C00
ENDCHAR
STARTCHAR Eogonek.locl
ENCODING -1
SWIDTH 496 0
DWIDTH 8 0
BBX 7 15 1 -3
BITMAP
BFF4
A550
A000
A000
A000
BFE0
A540
A000
A000
A000
A550
BFF4
0D00
1800
1E00
ENDCHAR
STARTCHAR eogonek.locl
ENCODING -1
SWIDTH 468 0
DWIDTH 8 0
BBX 7 12 0 -3
BITMAP
0BE0
2D74
3428
342C
7FFC
7550
3400
2D68
0BE0
0600
0A00
0740
ENDCHAR
STARTCHAR Aogonek.c2sc.locl
ENCODING -1
SWIDTH 501 0
DWIDTH 8 0
BBX 8 12 0 -3
BITMAP
0280
03C0
07A0
0A70
0D74
1C38
3FFC
755D
B04E
0700
0A00
0780
ENDCHAR
STARTCHAR Eogonek.c2sc.locl
ENCODING -1
SWIDTH 428 0
DWIDTH 7 0
BBX 6 12 1 -3
BITMAP
FFD0
E540
D000
D000
FF80
E500
D000
E540
FFD0
2800
3400
2D00
ENDCHAR
STARTCHAR glyph1293
ENCODING -1
SWIDTH 234 0
DWIDTH 4 0
BBX 2 12 1 -3
BITMAP
E0
E0
E0
E0
E0
E0
E0
E0
E0
00
D0
90
ENDCHAR
ENDFONT
